<?xml version="1.0" encoding="UTF-8"?>
<!DOCTYPE svg PUBLIC "-//W3C//DTD SVG 1.1//EN" "http://www.w3.org/Graphics/SVG/1.1/DTD/svg11.dtd">
<svg version="1.2" width="100mm" height="100mm" viewBox="0 0 10000 10000" preserveAspectRatio="xMidYMid" fill-rule="evenodd" stroke-width="28.222" stroke-linejoin="round" xmlns="http://www.w3.org/2000/svg" xmlns:ooo="http://xml.openoffice.org/svg/export" xmlns:xlink="http://www.w3.org/1999/xlink" xmlns:presentation="http://sun.com/xmlns/staroffice/presentation" xmlns:smil="http://www.w3.org/2001/SMIL20/" xmlns:anim="urn:oasis:names:tc:opendocument:xmlns:animation:1.0" xml:space="preserve">
 <defs class="ClipPathGroup">
  <clipPath id="presentation_clip_path" clipPathUnits="userSpaceOnUse">
   <rect x="0" y="0" width="10000" height="10000"/>
  </clipPath>
  <clipPath id="presentation_clip_path_shrink" clipPathUnits="userSpaceOnUse">
   <rect x="10" y="10" width="9980" height="9980"/>
  </clipPath>
 </defs>
 <defs class="TextShapeIndex">
  <g ooo:slide="id1" ooo:id-list="id3 id4 id5 id6 id7 id8 id9 id10 id11 id12 id13 id14 id15 id16 id17 id18 id19 id20 id21 id22 id23 id24 id25 id26 id27 id28 id29 id30 id31 id32 id33 id34 id35"/>
 </defs>
 <defs class="EmbeddedBulletChars">
  <g id="bullet-char-template-57356" transform="scale(0.00048828125,-0.00048828125)">
   <path d="M 580,1141 L 1163,571 580,0 -4,571 580,1141 Z"/>
  </g>
  <g id="bullet-char-template-57354" transform="scale(0.00048828125,-0.00048828125)">
   <path d="M 8,1128 L 1137,1128 1137,0 8,0 8,1128 Z"/>
  </g>
  <g id="bullet-char-template-10146" transform="scale(0.00048828125,-0.00048828125)">
   <path d="M 174,0 L 602,739 174,1481 1456,739 174,0 Z M 1358,739 L 309,1346 659,739 1358,739 Z"/>
  </g>
  <g id="bullet-char-template-10132" transform="scale(0.00048828125,-0.00048828125)">
   <path d="M 2015,739 L 1276,0 717,0 1260,543 174,543 174,936 1260,936 717,1481 1274,1481 2015,739 Z"/>
  </g>
  <g id="bullet-char-template-10007" transform="scale(0.00048828125,-0.00048828125)">
   <path d="M 0,-2 C -7,14 -16,27 -25,37 L 356,567 C 262,823 215,952 215,954 215,979 228,992 255,992 264,992 276,990 289,987 310,991 331,999 354,1012 L 381,999 492,748 772,1049 836,1024 860,1049 C 881,1039 901,1025 922,1006 886,937 835,863 770,784 769,783 710,716 594,584 L 774,223 C 774,196 753,168 711,139 L 727,119 C 717,90 699,76 672,76 641,76 570,178 457,381 L 164,-76 C 142,-110 111,-127 72,-127 30,-127 9,-110 8,-76 1,-67 -2,-52 -2,-32 -2,-23 -1,-13 0,-2 Z"/>
  </g>
  <g id="bullet-char-template-10004" transform="scale(0.00048828125,-0.00048828125)">
   <path d="M 285,-33 C 182,-33 111,30 74,156 52,228 41,333 41,471 41,549 55,616 82,672 116,743 169,778 240,778 293,778 328,747 346,684 L 369,508 C 377,444 397,411 428,410 L 1163,1116 C 1174,1127 1196,1133 1229,1133 1271,1133 1292,1118 1292,1087 L 1292,965 C 1292,929 1282,901 1262,881 L 442,47 C 390,-6 338,-33 285,-33 Z"/>
  </g>
  <g id="bullet-char-template-9679" transform="scale(0.00048828125,-0.00048828125)">
   <path d="M 813,0 C 632,0 489,54 383,161 276,268 223,411 223,592 223,773 276,916 383,1023 489,1130 632,1184 813,1184 992,1184 1136,1130 1245,1023 1353,916 1407,772 1407,592 1407,412 1353,268 1245,161 1136,54 992,0 813,0 Z"/>
  </g>
  <g id="bullet-char-template-8226" transform="scale(0.00048828125,-0.00048828125)">
   <path d="M 346,457 C 273,457 209,483 155,535 101,586 74,649 74,723 74,796 101,859 155,911 209,963 273,989 346,989 419,989 480,963 531,910 582,859 608,796 608,723 608,648 583,586 532,535 482,483 420,457 346,457 Z"/>
  </g>
  <g id="bullet-char-template-8211" transform="scale(0.00048828125,-0.00048828125)">
   <path d="M -4,459 L 1135,459 1135,606 -4,606 -4,459 Z"/>
  </g>
  <g id="bullet-char-template-61548" transform="scale(0.00048828125,-0.00048828125)">
   <path d="M 173,740 C 173,903 231,1043 346,1159 462,1274 601,1332 765,1332 928,1332 1067,1274 1183,1159 1299,1043 1357,903 1357,740 1357,577 1299,437 1183,322 1067,206 928,148 765,148 601,148 462,206 346,322 231,437 173,577 173,740 Z"/>
  </g>
 </defs>
 <g>
  <g id="id2" class="Master_Slide">
   <g id="bg-id2" class="Background"/>
   <g id="bo-id2" class="BackgroundObjects"/>
  </g>
 </g>
 <g class="SlideGroup">
  <g>
   <g id="container-id1">
    <g id="id1" class="Slide" clip-path="url(#presentation_clip_path)">
     <g class="Page">
      <g class="com.sun.star.drawing.CustomShape">
       <g id="id3">
        <rect class="BoundingBox" stroke="none" fill="none" x="859" y="859" width="8184" height="8184"/>
        <path fill="rgb(255,255,255)" stroke="none" d="M 9001,4951 C 9001,5662 8814,6360 8458,6976 8103,7592 7592,8103 6976,8458 6360,8814 5662,9001 4951,9001 4239,9001 3541,8814 2925,8458 2309,8103 1798,7592 1443,6976 1087,6360 900,5662 900,4951 900,4239 1087,3541 1443,2925 1798,2309 2309,1798 2925,1443 3541,1087 4239,900 4950,900 5662,900 6360,1087 6976,1443 7592,1798 8103,2309 8458,2925 8814,3541 9001,4239 9001,4950 L 9001,4951 Z"/>
        <path fill="none" stroke="rgb(28,82,127)" stroke-width="81" stroke-linejoin="round" d="M 9001,4951 C 9001,5662 8814,6360 8458,6976 8103,7592 7592,8103 6976,8458 6360,8814 5662,9001 4951,9001 4239,9001 3541,8814 2925,8458 2309,8103 1798,7592 1443,6976 1087,6360 900,5662 900,4951 900,4239 1087,3541 1443,2925 1798,2309 2309,1798 2925,1443 3541,1087 4239,900 4950,900 5662,900 6360,1087 6976,1443 7592,1798 8103,2309 8458,2925 8814,3541 9001,4239 9001,4950 L 9001,4951 Z"/>
       </g>
      </g>
      <g class="com.sun.star.drawing.ClosedBezierShape">
       <g id="id4">
        <rect class="BoundingBox" stroke="none" fill="none" x="4815" y="4328" width="3157" height="4234"/>
        <path fill="none" stroke="rgb(28,82,127)" stroke-width="81" stroke-linejoin="round" d="M 6509,8520 C 6245,8356 5956,8142 5924,7732 5900,7383 5963,7097 5977,6769 5996,6422 5764,6075 5395,6157 5034,6236 4758,5707 4889,5340 5001,5032 4897,4624 5288,4464 5618,4328 5997,4322 6296,4552 6561,4754 6963,4558 7148,4961 7277,5244 7394,5447 7811,5601 8086,5703 7834,6430 7547,6476 6776,6603 7677,6847 7440,7178 7218,7485 6927,7736 6749,8083 L 6589,8374 6616,8520 6509,8520 Z"/>
       </g>
      </g>
      <g class="com.sun.star.drawing.ClosedBezierShape">
       <g id="id5">
        <rect class="BoundingBox" stroke="none" fill="none" x="899" y="1924" width="3696" height="6491"/>
        <path fill="none" stroke="rgb(28,82,127)" stroke-width="81" stroke-linejoin="round" d="M 2492,8133 C 2487,8100 2481,8070 2477,8043 2431,7761 2249,7517 2213,7234 2182,6997 2391,6768 2015,6563 1779,6434 1593,6129 1641,5823 1674,5604 1892,5306 1508,5153 1298,5068 1134,4980 1022,4643 996,4563 969,4490 940,4421 1009,3910 1181,3413 1444,2963 1501,2862 1565,2764 1633,2670 1681,2671 1747,2659 1839,2631 2202,2519 2231,2161 2610,2147 2879,2135 3144,1835 3447,2031 3681,2181 4008,2217 4261,2100 4878,1819 4338,2457 4261,2563 4085,2810 3831,2957 3624,3164 3157,3629 3512,2961 3335,2817 3065,2597 2786,2964 3007,3257 3114,3401 3406,3997 2961,3812 2419,3582 2733,4251 2258,4136 1787,4019 2199,4896 1773,4553 1435,4278 1246,4968 1553,4968 1952,4968 1758,5487 2102,5431 2400,5381 2594,5536 2786,5707 3033,5929 3467,6057 3402,6423 3346,6752 3634,6887 3226,7188 2999,7356 2906,7610 2786,7882 2714,8043 2801,8221 2847,8373 2725,8299 2606,8219 2492,8133 Z"/>
       </g>
      </g>
      <g class="com.sun.star.drawing.ClosedBezierShape">
       <g id="id6">
        <rect class="BoundingBox" stroke="none" fill="none" x="4795" y="2028" width="4217" height="3607"/>
        <path fill="none" stroke="rgb(28,82,127)" stroke-width="81" stroke-linejoin="round" d="M 8430,2966 C 8783,3572 8970,4261 8970,4962 8970,5085 8964,5209 8952,5331 8826,5152 8630,5021 8415,4982 7471,4811 8904,5012 8258,5481 7795,5819 7585,5302 7423,5076 L 7205,4763 6924,4450 7142,4325 C 7871,4103 7078,3523 6802,3854 6472,4249 6177,3721 5776,3980 5569,4115 4504,4744 4940,4074 5260,3579 5016,3515 4940,3262 4824,2868 5363,3073 5807,3073 6245,3073 6016,2282 6336,2167 6657,2050 6959,2428 7298,2197 7426,2109 7569,2082 7715,2069 7995,2333 8235,2633 8430,2966 Z"/>
       </g>
      </g>
      <g class="Group">
       <g class="com.sun.star.drawing.CustomShape">
        <g id="id7">
         <rect class="BoundingBox" stroke="none" fill="none" x="1900" y="2900" width="2702" height="2802"/>
         <path fill="rgb(255,255,255)" stroke="none" d="M 4601,4301 C 4601,4546 4539,4788 4420,5001 4302,5214 4131,5390 3926,5513 3720,5636 3488,5701 3251,5701 3013,5701 2781,5636 2575,5513 2370,5390 2199,5214 2081,5001 1962,4788 1900,4546 1900,4301 1900,4055 1962,3813 2081,3600 2199,3387 2370,3211 2575,3088 2781,2965 3013,2900 3250,2900 3488,2900 3720,2965 3926,3088 4131,3211 4302,3387 4420,3600 4539,3813 4601,4055 4601,4300 L 4601,4301 Z"/>
        </g>
       </g>
       <g class="Group">
        <g class="com.sun.star.drawing.PolyLineShape">
         <g id="id8">
          <rect class="BoundingBox" stroke="none" fill="none" x="2378" y="3401" width="1827" height="1803"/>
          <path fill="none" stroke="rgb(28,82,127)" stroke-width="53" stroke-linejoin="round" d="M 3995,4712 L 3980,4739 3951,4788 3919,4835 3884,4879 3846,4920 3806,4959 3763,4996 3719,5029 3671,5059 3623,5086 3572,5110 3521,5130 3468,5147 3414,5160 3360,5169 3305,5175 3249,5176 3194,5175 3139,5169 3085,5160 3031,5147 2978,5130 2927,5110 2876,5086 2827,5059 2780,5029 2735,4996 2693,4959 2652,4920 2615,4879 2580,4835 2548,4788 2518,4739 2492,4689 2469,4636 2450,4583 2434,4528 2421,4473 2412,4416 2407,4359 2405,4302 2407,4245 2412,4188 2421,4131 2434,4076 2450,4021 2469,3968 2492,3915 2518,3865 2548,3816 2580,3770 2615,3725 2652,3684 2693,3645 2735,3608 2780,3575 2827,3545 2876,3518 2927,3494 2978,3474 3031,3457 3085,3444 3139,3435 3194,3430 3249,3428 3305,3430 3360,3435 3414,3444 3468,3457 3521,3474 3572,3494 3623,3518 3671,3545 3719,3575 3763,3608 3806,3645 3846,3684 3884,3725 3919,3770 3951,3816 3980,3865 4002,3907 4022,3950 4039,3994 4054,4037"/>
          <path fill="rgb(28,82,127)" stroke="none" d="M 4090,4225 L 4204,3983 4177,4013 4143,4040 4105,4061 4061,4075 4016,4081 3970,4077 3928,4066 3890,4048 4090,4225 Z"/>
         </g>
        </g>
        <g class="com.sun.star.drawing.PolyLineShape">
         <g id="id9">
          <rect class="BoundingBox" stroke="none" fill="none" x="2638" y="3671" width="1224" height="1259"/>
          <path fill="none" stroke="rgb(28,82,127)" stroke-width="53" stroke-linejoin="round" d="M 3149,4902 L 3129,4898 3091,4888 3055,4876 3019,4862 2985,4845 2951,4826 2919,4804 2888,4781 2859,4755 2831,4728 2806,4698 2782,4667 2760,4635 2740,4601 2722,4566 2707,4529 2694,4492 2683,4453 2675,4415 2669,4375 2666,4336 2665,4296 2667,4257 2671,4217 2678,4178 2687,4140 2699,4102 2713,4065 2729,4029 2747,3994 2768,3961 2790,3929 2815,3899 2842,3870 2870,3843 2900,3818 2931,3796 2964,3775 2998,3757 3033,3741 3069,3728 3106,3717 3143,3708 3181,3702 3219,3699 3257,3698 3295,3700 3333,3704 3371,3711 3408,3721 3445,3733 3480,3748 3515,3764 3548,3784 3580,3805 3611,3828 3641,3854 3668,3882 3694,3911 3718,3942 3740,3975 3760,4009 3777,4044 3793,4080 3806,4118 3816,4156 3825,4195 3830,4234 3834,4273 3834,4313 3833,4353 3828,4392 3822,4431 3813,4470 3801,4508 3787,4545 3771,4580 3752,4615 3732,4648 3709,4680 3685,4711 3663,4735 3639,4757 3639,4758"/>
          <path fill="rgb(28,82,127)" stroke="none" d="M 3479,4863 L 3746,4874 3708,4861 3670,4841 3636,4813 3606,4778 3583,4738 3569,4695 3563,4652 3565,4610 3479,4863 Z"/>
         </g>
        </g>
        <g class="com.sun.star.drawing.PolyLineShape">
         <g id="id10">
          <rect class="BoundingBox" stroke="none" fill="none" x="2893" y="3939" width="708" height="816"/>
          <path fill="none" stroke="rgb(28,82,127)" stroke-width="53" stroke-linejoin="round" d="M 2920,4316 L 2920,4304 2921,4282 2923,4260 2926,4238 2931,4217 2937,4196 2945,4175 2954,4155 2964,4135 2975,4116 2988,4099 3001,4082 3016,4065 3031,4050 3048,4036 3065,4023 3084,4012 3103,4001 3122,3992 3142,3984 3162,3978 3183,3973 3204,3969 3225,3967 3247,3966 3268,3967 3290,3969 3311,3972 3331,3977 3352,3984 3372,3991 3391,4000 3410,4011 3428,4022 3446,4035 3462,4049 3478,4064 3492,4080 3506,4097 3518,4115 3529,4134 3539,4153 3548,4173 3556,4194 3562,4215 3567,4236 3570,4258 3572,4280 3573,4302 3572,4324 3570,4346 3567,4367 3562,4389 3555,4410 3548,4430 3539,4451 3529,4470 3518,4489 3505,4507 3492,4524 3477,4540 3461,4555 3445,4569 3428,4582 3409,4594 3390,4604 3371,4613 3351,4621 3331,4627 3310,4633 3289,4636 3268,4638 3246,4639 3225,4639 3203,4636 3182,4633 3162,4628 3141,4622 3127,4616"/>
          <path fill="rgb(28,82,127)" stroke="none" d="M 2979,4497 L 3053,4754 3053,4713 3061,4671 3076,4630 3100,4590 3130,4556 3167,4529 3206,4509 3246,4498 2979,4497 Z"/>
         </g>
        </g>
        <g class="com.sun.star.drawing.PolyLineShape">
         <g id="id11">
          <rect class="BoundingBox" stroke="none" fill="none" x="2119" y="2995" width="2263" height="2478"/>
          <path fill="none" stroke="rgb(28,82,127)" stroke-width="53" stroke-linejoin="round" d="M 4002,3461 L 4031,3490 4080,3545 4126,3603 4168,3663 4206,3727 4240,3793 4270,3861 4295,3931 4316,4003 4333,4076 4345,4150 4352,4225 4354,4300 4352,4374 4344,4449 4333,4523 4316,4596 4295,4668 4270,4738 4240,4806 4206,4872 4168,4936 4126,4997 4080,5055 4030,5110 3977,5161 3921,5209 3863,5252 3801,5292 3738,5327 3672,5358 3605,5384 3535,5406 3465,5423 3393,5436 3321,5443 3249,5445 3177,5443 3106,5436 3034,5423 2964,5406 2894,5385 2827,5358 2761,5327 2697,5292 2636,5253 2578,5209 2522,5162 2469,5110 2419,5055 2374,4997 2332,4937 2294,4873 2260,4807 2230,4739 2204,4669 2183,4597 2167,4524 2155,4450 2148,4375 2146,4301 2148,4226 2155,4151 2167,4077 2184,4004 2205,3932 2230,3862 2260,3794 2294,3728 2332,3664 2374,3603 2420,3545 2470,3491 2523,3439 2578,3391 2637,3348 2698,3308 2762,3273 2828,3242 2895,3216 2965,3194 3023,3179 3082,3168 3142,3160 3202,3156 3250,3155"/>
          <path fill="rgb(28,82,127)" stroke="none" d="M 3442,3172 L 3241,2995 3262,3029 3278,3069 3288,3112 3289,3158 3282,3204 3266,3246 3244,3284 3216,3315 3442,3172 Z"/>
         </g>
        </g>
       </g>
      </g>
      <g class="Group">
       <g class="com.sun.star.drawing.ClosedBezierShape">
        <g id="id12">
         <rect class="BoundingBox" stroke="none" fill="none" x="6273" y="4973" width="755" height="2255"/>
         <path fill="rgb(255,255,255)" stroke="none" d="M 6953,7044 C 6922,7092 6878,7131 6825,7158 6772,7186 6711,7200 6650,7200 6589,7200 6528,7186 6475,7158 6422,7131 6378,7092 6347,7044 6316,6997 6300,6943 6300,6889 6300,6834 6316,6780 6347,6733 6375,6690 6414,6653 6461,6626 L 6461,5059 C 6461,5048 6464,5038 6469,5029 6475,5020 6483,5013 6492,5008 6501,5003 6512,5000 6523,5000 L 6770,5000 C 6781,5000 6791,5003 6801,5008 6810,5013 6818,5020 6823,5029 6829,5038 6832,5048 6832,5059 L 6832,6622 C 6882,6650 6924,6688 6953,6733 6984,6780 7000,6834 7000,6889 7000,6943 6984,6997 6953,7044 Z"/>
         <path fill="none" stroke="rgb(28,82,127)" stroke-width="53" stroke-linejoin="round" d="M 6953,7044 C 6922,7092 6878,7131 6825,7158 6772,7186 6711,7200 6650,7200 6589,7200 6528,7186 6475,7158 6422,7131 6378,7092 6347,7044 6316,6997 6300,6943 6300,6889 6300,6834 6316,6780 6347,6733 6375,6690 6414,6653 6461,6626 L 6461,5059 C 6461,5048 6464,5038 6469,5029 6475,5020 6483,5013 6492,5008 6501,5003 6512,5000 6523,5000 L 6770,5000 C 6781,5000 6791,5003 6801,5008 6810,5013 6818,5020 6823,5029 6829,5038 6832,5048 6832,5059 L 6832,6622 C 6882,6650 6924,6688 6953,6733 6984,6780 7000,6834 7000,6889 7000,6943 6984,6997 6953,7044 Z"/>
        </g>
       </g>
       <g class="com.sun.star.drawing.ClosedBezierShape">
        <g id="id13">
         <rect class="BoundingBox" stroke="none" fill="none" x="6415" y="5922" width="475" height="1205"/>
         <path fill="none" stroke="rgb(28,82,127)" stroke-width="53" stroke-linejoin="round" d="M 6862,6908 C 6862,6942 6852,6974 6834,7004 6815,7033 6789,7057 6757,7073 6725,7090 6689,7099 6652,7099 6615,7099 6579,7090 6547,7073 6515,7057 6489,7033 6470,7004 6452,6974 6442,6942 6442,6908 6442,6874 6452,6842 6470,6813 6489,6783 6515,6759 6547,6743 6551,6740 6556,6738 6560,6736 L 6560,5980 C 6560,5974 6561,5969 6564,5964 6567,5960 6571,5956 6575,5953 6580,5950 6585,5949 6591,5949 L 6713,5949 C 6718,5949 6723,5950 6728,5953 6732,5956 6736,5960 6739,5964 6742,5969 6743,5974 6743,5980 L 6743,6736 C 6748,6738 6752,6740 6757,6743 6789,6759 6815,6783 6834,6813 6852,6842 6862,6874 6862,6908 Z"/>
        </g>
       </g>
       <g class="com.sun.star.drawing.CustomShape">
        <g id="id14">
         <rect class="BoundingBox" stroke="none" fill="none" x="6637" y="5183" width="114" height="76"/>
         <path fill="rgb(28,82,127)" stroke="none" d="M 6650,5183 L 6651,5183 C 6648,5183 6646,5184 6644,5185 6642,5186 6641,5187 6640,5189 6639,5191 6638,5193 6638,5196 L 6638,5245 6638,5246 C 6638,5248 6639,5250 6640,5252 6641,5254 6642,5255 6644,5256 6646,5257 6648,5258 6651,5258 L 6737,5258 6738,5258 C 6740,5258 6742,5257 6744,5256 6746,5255 6747,5254 6748,5252 6749,5250 6750,5248 6750,5246 L 6750,5195 6750,5196 6750,5196 C 6750,5193 6749,5191 6748,5189 6747,5187 6746,5186 6744,5185 6742,5184 6740,5183 6738,5183 L 6650,5183 Z"/>
        </g>
       </g>
       <g class="com.sun.star.drawing.CustomShape">
        <g id="id15">
         <rect class="BoundingBox" stroke="none" fill="none" x="6637" y="5306" width="114" height="77"/>
         <path fill="rgb(28,82,127)" stroke="none" d="M 6650,5306 L 6651,5306 C 6648,5306 6646,5307 6644,5308 6642,5309 6641,5310 6640,5312 6639,5314 6638,5316 6638,5319 L 6638,5369 6638,5369 C 6638,5372 6639,5374 6640,5376 6641,5378 6642,5379 6644,5380 6646,5381 6648,5382 6651,5382 L 6737,5382 6737,5382 C 6740,5382 6742,5381 6744,5380 6746,5379 6747,5378 6748,5376 6749,5374 6750,5372 6750,5369 L 6750,5318 6750,5319 6750,5319 C 6750,5316 6749,5314 6748,5312 6747,5310 6746,5309 6744,5308 6742,5307 6740,5306 6737,5306 L 6650,5306 Z"/>
        </g>
       </g>
       <g class="com.sun.star.drawing.CustomShape">
        <g id="id16">
         <rect class="BoundingBox" stroke="none" fill="none" x="6637" y="5434" width="114" height="76"/>
         <path fill="rgb(28,82,127)" stroke="none" d="M 6650,5434 L 6651,5434 C 6648,5434 6646,5435 6644,5436 6642,5437 6641,5438 6640,5440 6639,5442 6638,5444 6638,5447 L 6638,5496 6638,5497 C 6638,5499 6639,5501 6640,5503 6641,5505 6642,5506 6644,5507 6646,5508 6648,5509 6651,5509 L 6737,5509 6738,5509 C 6740,5509 6742,5508 6744,5507 6746,5506 6747,5505 6748,5503 6749,5501 6750,5499 6750,5497 L 6750,5446 6750,5447 6750,5447 C 6750,5444 6749,5442 6748,5440 6747,5438 6746,5437 6744,5436 6742,5435 6740,5434 6738,5434 L 6650,5434 Z"/>
        </g>
       </g>
       <g class="com.sun.star.drawing.CustomShape">
        <g id="id17">
         <rect class="BoundingBox" stroke="none" fill="none" x="6562" y="5557" width="189" height="77"/>
         <path fill="rgb(28,82,127)" stroke="none" d="M 6574,5557 L 6575,5557 C 6572,5557 6570,5558 6568,5559 6566,5560 6565,5561 6564,5563 6563,5565 6562,5567 6562,5570 L 6562,5620 6562,5620 C 6562,5623 6563,5625 6564,5627 6565,5629 6566,5630 6568,5631 6570,5632 6572,5633 6575,5633 L 6737,5633 6737,5633 C 6740,5633 6742,5632 6744,5631 6746,5630 6747,5629 6748,5627 6749,5625 6750,5623 6750,5620 L 6750,5569 6750,5570 6750,5570 C 6750,5567 6749,5565 6748,5563 6747,5561 6746,5560 6744,5559 6742,5558 6740,5557 6737,5557 L 6574,5557 Z"/>
        </g>
       </g>
       <g class="com.sun.star.drawing.CustomShape">
        <g id="id18">
         <rect class="BoundingBox" stroke="none" fill="none" x="6637" y="5684" width="114" height="77"/>
         <path fill="rgb(28,82,127)" stroke="none" d="M 6650,5684 L 6651,5684 C 6648,5684 6646,5685 6644,5686 6642,5687 6641,5688 6640,5690 6639,5692 6638,5694 6638,5697 L 6638,5746 6638,5747 C 6638,5749 6639,5751 6640,5753 6641,5755 6642,5756 6644,5757 6646,5758 6648,5759 6651,5759 L 6737,5759 6738,5759 C 6740,5759 6742,5758 6744,5757 6746,5756 6747,5755 6748,5753 6749,5751 6750,5749 6750,5747 L 6750,5696 6750,5697 6750,5697 C 6750,5694 6749,5692 6748,5690 6747,5688 6746,5687 6744,5686 6742,5685 6740,5684 6738,5684 L 6650,5684 Z"/>
        </g>
       </g>
       <g class="com.sun.star.drawing.CustomShape">
        <g id="id19">
         <rect class="BoundingBox" stroke="none" fill="none" x="6637" y="5809" width="114" height="76"/>
         <path fill="rgb(28,82,127)" stroke="none" d="M 6650,5809 L 6651,5809 C 6648,5809 6646,5810 6644,5811 6642,5812 6641,5813 6640,5815 6639,5817 6638,5819 6638,5822 L 6638,5871 6638,5872 C 6638,5874 6639,5876 6640,5878 6641,5880 6642,5881 6644,5882 6646,5883 6648,5884 6651,5884 L 6737,5884 6738,5884 C 6740,5884 6742,5883 6744,5882 6746,5881 6747,5880 6748,5878 6749,5876 6750,5874 6750,5872 L 6750,5821 6750,5822 6750,5822 C 6750,5819 6749,5817 6748,5815 6747,5813 6746,5812 6744,5811 6742,5810 6740,5809 6738,5809 L 6650,5809 Z"/>
        </g>
       </g>
       <g class="com.sun.star.drawing.CustomShape">
        <g id="id20">
         <rect class="BoundingBox" stroke="none" fill="none" x="6637" y="5058" width="114" height="76"/>
         <path fill="rgb(28,82,127)" stroke="none" d="M 6650,5058 L 6651,5058 C 6648,5058 6646,5059 6644,5060 6642,5061 6641,5062 6640,5064 6639,5066 6638,5068 6638,5071 L 6638,5120 6638,5121 C 6638,5123 6639,5125 6640,5127 6641,5129 6642,5130 6644,5131 6646,5132 6648,5133 6651,5133 L 6737,5133 6738,5133 C 6740,5133 6742,5132 6744,5131 6746,5130 6747,5129 6748,5127 6749,5125 6750,5123 6750,5121 L 6750,5070 6750,5071 6750,5071 C 6750,5068 6749,5066 6748,5064 6747,5062 6746,5061 6744,5060 6742,5059 6740,5058 6738,5058 L 6650,5058 Z"/>
        </g>
       </g>
      </g>
      <g class="Group">
       <g class="Group">
        <g class="com.sun.star.drawing.CustomShape">
         <g id="id21">
          <rect class="BoundingBox" stroke="none" fill="none" x="6209" y="2241" width="513" height="524"/>
          <path fill="rgb(199,199,199)" stroke="none" d="M 6658,2673 C 6629,2708 6591,2734 6549,2749 6506,2764 6461,2767 6417,2759 6373,2750 6332,2730 6298,2700 6264,2670 6239,2632 6224,2588 6209,2545 6206,2499 6214,2454 6223,2409 6243,2367 6272,2332 6301,2298 6339,2271 6381,2256 6424,2241 6469,2238 6513,2247 6557,2255 6598,2275 6632,2305 6666,2335 6691,2374 6706,2417 6721,2460 6724,2507 6716,2552 6707,2597 6687,2639 6658,2673 L 6658,2673 Z"/>
         </g>
        </g>
        <g class="com.sun.star.drawing.PolyPolygonShape">
         <g id="id22">
          <rect class="BoundingBox" stroke="none" fill="none" x="5000" y="1213" width="2806" height="2688"/>
          <path fill="rgb(255,255,255)" stroke="none" d="M 5244,2899 L 5549,2539 5000,2056 5710,1213 6579,1978 6844,1663 7218,1995 6954,2308 7804,3057 7094,3900 6533,3406 6227,3767 5244,2899 Z"/>
         </g>
        </g>
       </g>
       <g class="Group">
        <g class="com.sun.star.drawing.CustomShape">
         <g id="id23">
          <rect class="BoundingBox" stroke="none" fill="none" x="5829" y="1974" width="1145" height="1188"/>
          <path fill="rgb(255,255,255)" stroke="none" d="M 6122,2899 L 5856,2664 6413,2001 6946,2471 6389,3134 6122,2899 Z"/>
          <path fill="none" stroke="rgb(28,82,127)" stroke-width="53" stroke-linejoin="round" d="M 6122,2899 L 5856,2664 6413,2001 6946,2471 6389,3134 6122,2899 Z"/>
         </g>
        </g>
        <g class="com.sun.star.drawing.CustomShape">
         <g id="id24">
          <rect class="BoundingBox" stroke="none" fill="none" x="6149" y="2288" width="511" height="521"/>
          <path fill="none" stroke="rgb(28,82,127)" stroke-width="53" stroke-linejoin="round" d="M 6576,2700 C 6550,2731 6516,2755 6479,2768 6441,2782 6400,2785 6361,2777 6322,2770 6285,2751 6255,2725 6225,2698 6202,2663 6189,2625 6176,2586 6173,2545 6180,2504 6188,2464 6206,2427 6232,2396 6258,2365 6292,2341 6329,2328 6367,2314 6408,2311 6447,2319 6486,2326 6523,2345 6553,2371 6583,2398 6606,2433 6619,2471 6632,2510 6635,2551 6628,2592 6620,2632 6602,2669 6576,2700 Z"/>
         </g>
        </g>
        <g class="com.sun.star.drawing.CustomShape">
         <g id="id25">
          <rect class="BoundingBox" stroke="none" fill="none" x="5349" y="2549" width="1166" height="1112"/>
          <path fill="rgb(255,255,255)" stroke="none" d="M 5803,3257 L 5376,2880 5633,2576 6487,3330 6229,3633 5803,3257 Z"/>
          <path fill="none" stroke="rgb(28,82,127)" stroke-width="53" stroke-linejoin="round" d="M 5803,3257 L 5376,2880 5633,2576 6487,3330 6229,3633 5803,3257 Z"/>
         </g>
        </g>
        <g class="com.sun.star.drawing.CustomShape">
         <g id="id26">
          <rect class="BoundingBox" stroke="none" fill="none" x="6569" y="1752" width="540" height="560"/>
          <path fill="rgb(255,255,255)" stroke="none" d="M 6711,2184 L 6596,2083 6853,1779 7081,1980 6825,2284 6711,2184 Z"/>
          <path fill="none" stroke="rgb(28,82,127)" stroke-width="53" stroke-linejoin="round" d="M 6711,2184 L 6596,2083 6853,1779 7081,1980 6825,2284 6711,2184 Z"/>
         </g>
        </g>
        <g class="com.sun.star.drawing.CustomShape">
         <g id="id27">
          <rect class="BoundingBox" stroke="none" fill="none" x="6517" y="2582" width="1164" height="1204"/>
          <path fill="rgb(255,255,255)" stroke="none" d="M 6820,3515 L 6544,3271 7101,2609 7653,3096 7096,3758 6820,3515 Z"/>
          <path fill="none" stroke="rgb(28,82,127)" stroke-width="53" stroke-linejoin="round" d="M 6820,3515 L 6544,3271 7101,2609 7653,3096 7096,3758 6820,3515 Z"/>
         </g>
        </g>
        <g class="com.sun.star.drawing.LineShape">
         <g id="id28">
          <rect class="BoundingBox" stroke="none" fill="none" x="6713" y="3034" width="588" height="522"/>
          <path fill="none" stroke="rgb(28,82,127)" stroke-width="35" stroke-linejoin="round" d="M 6731,3052 L 7282,3537"/>
         </g>
        </g>
        <g class="com.sun.star.drawing.LineShape">
         <g id="id29">
          <rect class="BoundingBox" stroke="none" fill="none" x="6898" y="2813" width="589" height="523"/>
          <path fill="none" stroke="rgb(28,82,127)" stroke-width="35" stroke-linejoin="round" d="M 6916,2831 L 7468,3317"/>
         </g>
        </g>
        <g class="com.sun.star.drawing.CustomShape">
         <g id="id30">
          <rect class="BoundingBox" stroke="none" fill="none" x="5138" y="1366" width="1163" height="1206"/>
          <path fill="rgb(255,255,255)" stroke="none" d="M 5440,2300 L 5165,2057 5721,1393 6273,1880 5716,2544 5440,2300 Z"/>
          <path fill="none" stroke="rgb(28,82,127)" stroke-width="53" stroke-linejoin="round" d="M 5440,2300 L 5165,2057 5721,1393 6273,1880 5716,2544 5440,2300 Z"/>
         </g>
        </g>
        <g class="com.sun.star.drawing.LineShape">
         <g id="id31">
          <rect class="BoundingBox" stroke="none" fill="none" x="5334" y="1817" width="588" height="523"/>
          <path fill="none" stroke="rgb(28,82,127)" stroke-width="35" stroke-linejoin="round" d="M 5352,1835 L 5903,2321"/>
         </g>
        </g>
        <g class="com.sun.star.drawing.LineShape">
         <g id="id32">
          <rect class="BoundingBox" stroke="none" fill="none" x="5519" y="1597" width="588" height="523"/>
          <path fill="none" stroke="rgb(28,82,127)" stroke-width="35" stroke-linejoin="round" d="M 5537,1615 L 6088,2101"/>
         </g>
        </g>
       </g>
      </g>
      <g class="Group">
       <g class="Group">
        <g class="com.sun.star.drawing.PolyPolygonShape">
         <g id="id33">
          <rect class="BoundingBox" stroke="none" fill="none" x="2442" y="6433" width="186" height="995"/>
          <path fill="rgb(255,255,255)" stroke="none" d="M 2567,6474 L 2565,6481 2564,6490 2563,6513 2562,6539 2561,6570 2562,6703 2569,6841 2571,6872 2573,6898 2575,6909 2576,6919 2578,6927 2579,6930 2580,6933 2581,6940 2584,6949 2585,6959 2587,6972 2590,7000 2592,7032 2596,7101 2598,7168 2599,7245 2600,7311 2599,7339 2598,7363 2596,7384 2595,7393 2593,7400 2501,7386 2503,7378 2504,7368 2506,7346 2507,7320 2508,7290 2506,7154 2500,7024 2498,6990 2495,6959 2493,6947 2492,6936 2490,6928 2489,6924 2488,6922 2486,6915 2485,6907 2483,6897 2482,6886 2479,6858 2477,6827 2470,6685 2469,6549 2470,6519 2470,6493 2471,6482 2472,6473 2474,6466 2474,6463 2475,6460 2567,6474 Z"/>
          <path fill="none" stroke="rgb(28,82,127)" stroke-width="53" stroke-linejoin="round" d="M 2567,6474 L 2565,6481 2564,6490 2563,6513 2562,6539 2561,6570 2562,6703 2569,6841 2571,6872 2573,6898 2575,6909 2576,6919 2578,6927 2579,6930 2580,6933 2581,6940 2584,6949 2585,6959 2587,6972 2590,7000 2592,7032 2596,7101 2598,7168 2599,7245 2600,7311 2599,7339 2598,7363 2596,7384 2595,7393 2593,7400 2501,7386 2503,7378 2504,7368 2506,7346 2507,7320 2508,7290 2506,7154 2500,7024 2498,6990 2495,6959 2493,6947 2492,6936 2490,6928 2489,6924 2488,6922 2486,6915 2485,6907 2483,6897 2482,6886 2479,6858 2477,6827 2470,6685 2469,6549 2470,6519 2470,6493 2471,6482 2472,6473 2474,6466 2474,6463 2475,6460 2567,6474 Z"/>
         </g>
        </g>
        <g class="Group">
         <g class="com.sun.star.drawing.PolyPolygonShape">
          <g id="id34">
           <rect class="BoundingBox" stroke="none" fill="none" x="2490" y="6173" width="638" height="507"/>
           <path fill="rgb(255,255,255)" stroke="none" d="M 2897,6243 L 3098,6201 3094,6204 3100,6200 3006,6368 2961,6441 2918,6501 2877,6549 2840,6586 2805,6614 2773,6634 2758,6640 2744,6646 2730,6649 2717,6651 2705,6652 2694,6652 2683,6651 2673,6649 2664,6647 2656,6644 2641,6636 2630,6629 2622,6622 2617,6617 2616,6615 2597,6597 2583,6584 2577,6579 2575,6577 2573,6576 2573,6576 2573,6576 2573,6576 2574,6575 2577,6572 2576,6573 2572,6575 2571,6576 2570,6576 2570,6576 2570,6576 2570,6574 2568,6572 2564,6565 2554,6549 2539,6529 2537,6527 2533,6521 2528,6513 2523,6500 2518,6486 2517,6478 2517,6469 2517,6460 2518,6450 2521,6440 2525,6430 2531,6419 2538,6408 2547,6397 2558,6385 2586,6361 2624,6337 2673,6313 2734,6289 2808,6266 2897,6243 Z"/>
           <path fill="none" stroke="rgb(28,82,127)" stroke-width="53" stroke-linejoin="round" d="M 2897,6243 L 3098,6201 3094,6204 3100,6200 3006,6368 2961,6441 2918,6501 2877,6549 2840,6586 2805,6614 2773,6634 2758,6640 2744,6646 2730,6649 2717,6651 2705,6652 2694,6652 2683,6651 2673,6649 2664,6647 2656,6644 2641,6636 2630,6629 2622,6622 2617,6617 2616,6615 2597,6597 2583,6584 2577,6579 2575,6577 2573,6576 2573,6576 2573,6576 2573,6576 2574,6575 2577,6572 2576,6573 2572,6575 2571,6576 2570,6576 2570,6576 2570,6576 2570,6574 2568,6572 2564,6565 2554,6549 2539,6529 2537,6527 2533,6521 2528,6513 2523,6500 2518,6486 2517,6478 2517,6469 2517,6460 2518,6450 2521,6440 2525,6430 2531,6419 2538,6408 2547,6397 2558,6385 2586,6361 2624,6337 2673,6313 2734,6289 2808,6266 2897,6243 Z"/>
          </g>
         </g>
        </g>
        <g class="Group">
         <g class="com.sun.star.drawing.PolyPolygonShape">
          <g id="id35">
           <rect class="BoundingBox" stroke="none" fill="none" x="2113" y="6182" width="447" height="453"/>
           <path fill="rgb(255,255,255)" stroke="none" d="M 2276,6247 L 2141,6210 2144,6213 2140,6209 2203,6357 2233,6421 2262,6474 2289,6516 2315,6549 2338,6573 2360,6591 2370,6597 2379,6601 2389,6604 2397,6606 2405,6607 2413,6607 2420,6606 2427,6604 2433,6603 2438,6600 2448,6593 2456,6586 2461,6580 2464,6576 2465,6574 2478,6559 2488,6547 2491,6542 2493,6541 2494,6540 2494,6540 2494,6540 2494,6540 2493,6539 2491,6536 2492,6537 2495,6539 2496,6540 2496,6540 2496,6540 2496,6540 2496,6538 2497,6536 2500,6531 2507,6516 2517,6498 2518,6496 2521,6492 2524,6484 2528,6473 2531,6461 2531,6454 2532,6446 2532,6438 2531,6430 2529,6421 2526,6411 2523,6402 2518,6392 2512,6382 2504,6372 2485,6351 2460,6330 2427,6308 2386,6288 2336,6267 2276,6247 Z"/>
           <path fill="none" stroke="rgb(28,82,127)" stroke-width="53" stroke-linejoin="round" d="M 2276,6247 L 2141,6210 2144,6213 2140,6209 2203,6357 2233,6421 2262,6474 2289,6516 2315,6549 2338,6573 2360,6591 2370,6597 2379,6601 2389,6604 2397,6606 2405,6607 2413,6607 2420,6606 2427,6604 2433,6603 2438,6600 2448,6593 2456,6586 2461,6580 2464,6576 2465,6574 2478,6559 2488,6547 2491,6542 2493,6541 2494,6540 2494,6540 2494,6540 2494,6540 2493,6539 2491,6536 2492,6537 2495,6539 2496,6540 2496,6540 2496,6540 2496,6540 2496,6538 2497,6536 2500,6531 2507,6516 2517,6498 2518,6496 2521,6492 2524,6484 2528,6473 2531,6461 2531,6454 2532,6446 2532,6438 2531,6430 2529,6421 2526,6411 2523,6402 2518,6392 2512,6382 2504,6372 2485,6351 2460,6330 2427,6308 2386,6288 2336,6267 2276,6247 Z"/>
          </g>
         </g>
        </g>
       </g>
      </g>
     </g>
    </g>
   </g>
  </g>
 </g>
</svg>