<?xml version="1.0" encoding="UTF-8"?>
<!DOCTYPE svg PUBLIC "-//W3C//DTD SVG 1.1//EN" "http://www.w3.org/Graphics/SVG/1.1/DTD/svg11.dtd">
<svg version="1.2" width="100mm" height="100mm" viewBox="0 0 10000 10000" preserveAspectRatio="xMidYMid" fill-rule="evenodd" stroke-width="28.222" stroke-linejoin="round" xmlns="http://www.w3.org/2000/svg" xmlns:ooo="http://xml.openoffice.org/svg/export" xmlns:xlink="http://www.w3.org/1999/xlink" xmlns:presentation="http://sun.com/xmlns/staroffice/presentation" xmlns:smil="http://www.w3.org/2001/SMIL20/" xmlns:anim="urn:oasis:names:tc:opendocument:xmlns:animation:1.0" xml:space="preserve">
 <defs class="ClipPathGroup">
  <clipPath id="presentation_clip_path" clipPathUnits="userSpaceOnUse">
   <rect x="0" y="0" width="10000" height="10000"/>
  </clipPath>
  <clipPath id="presentation_clip_path_shrink" clipPathUnits="userSpaceOnUse">
   <rect x="10" y="10" width="9980" height="9980"/>
  </clipPath>
 </defs>
 <defs class="TextShapeIndex">
  <g ooo:slide="id1" ooo:id-list="id3 id4 id5 id6 id7 id8 id9 id10 id11 id12 id13 id14 id15 id16 id17 id18 id19 id20 id21"/>
 </defs>
 <defs class="EmbeddedBulletChars">
  <g id="bullet-char-template-57356" transform="scale(0.00048828125,-0.00048828125)">
   <path d="M 580,1141 L 1163,571 580,0 -4,571 580,1141 Z"/>
  </g>
  <g id="bullet-char-template-57354" transform="scale(0.00048828125,-0.00048828125)">
   <path d="M 8,1128 L 1137,1128 1137,0 8,0 8,1128 Z"/>
  </g>
  <g id="bullet-char-template-10146" transform="scale(0.00048828125,-0.00048828125)">
   <path d="M 174,0 L 602,739 174,1481 1456,739 174,0 Z M 1358,739 L 309,1346 659,739 1358,739 Z"/>
  </g>
  <g id="bullet-char-template-10132" transform="scale(0.00048828125,-0.00048828125)">
   <path d="M 2015,739 L 1276,0 717,0 1260,543 174,543 174,936 1260,936 717,1481 1274,1481 2015,739 Z"/>
  </g>
  <g id="bullet-char-template-10007" transform="scale(0.00048828125,-0.00048828125)">
   <path d="M 0,-2 C -7,14 -16,27 -25,37 L 356,567 C 262,823 215,952 215,954 215,979 228,992 255,992 264,992 276,990 289,987 310,991 331,999 354,1012 L 381,999 492,748 772,1049 836,1024 860,1049 C 881,1039 901,1025 922,1006 886,937 835,863 770,784 769,783 710,716 594,584 L 774,223 C 774,196 753,168 711,139 L 727,119 C 717,90 699,76 672,76 641,76 570,178 457,381 L 164,-76 C 142,-110 111,-127 72,-127 30,-127 9,-110 8,-76 1,-67 -2,-52 -2,-32 -2,-23 -1,-13 0,-2 Z"/>
  </g>
  <g id="bullet-char-template-10004" transform="scale(0.00048828125,-0.00048828125)">
   <path d="M 285,-33 C 182,-33 111,30 74,156 52,228 41,333 41,471 41,549 55,616 82,672 116,743 169,778 240,778 293,778 328,747 346,684 L 369,508 C 377,444 397,411 428,410 L 1163,1116 C 1174,1127 1196,1133 1229,1133 1271,1133 1292,1118 1292,1087 L 1292,965 C 1292,929 1282,901 1262,881 L 442,47 C 390,-6 338,-33 285,-33 Z"/>
  </g>
  <g id="bullet-char-template-9679" transform="scale(0.00048828125,-0.00048828125)">
   <path d="M 813,0 C 632,0 489,54 383,161 276,268 223,411 223,592 223,773 276,916 383,1023 489,1130 632,1184 813,1184 992,1184 1136,1130 1245,1023 1353,916 1407,772 1407,592 1407,412 1353,268 1245,161 1136,54 992,0 813,0 Z"/>
  </g>
  <g id="bullet-char-template-8226" transform="scale(0.00048828125,-0.00048828125)">
   <path d="M 346,457 C 273,457 209,483 155,535 101,586 74,649 74,723 74,796 101,859 155,911 209,963 273,989 346,989 419,989 480,963 531,910 582,859 608,796 608,723 608,648 583,586 532,535 482,483 420,457 346,457 Z"/>
  </g>
  <g id="bullet-char-template-8211" transform="scale(0.00048828125,-0.00048828125)">
   <path d="M -4,459 L 1135,459 1135,606 -4,606 -4,459 Z"/>
  </g>
  <g id="bullet-char-template-61548" transform="scale(0.00048828125,-0.00048828125)">
   <path d="M 173,740 C 173,903 231,1043 346,1159 462,1274 601,1332 765,1332 928,1332 1067,1274 1183,1159 1299,1043 1357,903 1357,740 1357,577 1299,437 1183,322 1067,206 928,148 765,148 601,148 462,206 346,322 231,437 173,577 173,740 Z"/>
  </g>
 </defs>
 <g>
  <g id="id2" class="Master_Slide">
   <g id="bg-id2" class="Background"/>
   <g id="bo-id2" class="BackgroundObjects"/>
  </g>
 </g>
 <g class="SlideGroup">
  <g>
   <g id="container-id1">
    <g id="id1" class="Slide" clip-path="url(#presentation_clip_path)">
     <g class="Page">
      <g class="com.sun.star.drawing.CustomShape">
       <g id="id3">
        <rect class="BoundingBox" stroke="none" fill="none" x="0" y="1000" width="10002" height="7053"/>
        <path fill="rgb(28,82,127)" stroke="none" d="M 176,1000 L 177,1000 C 146,1000 115,1008 88,1024 62,1039 39,1062 24,1088 8,1115 0,1146 0,1177 L 0,7874 0,7874 C 0,7905 8,7936 24,7963 39,7989 62,8012 88,8027 115,8043 146,8051 177,8051 L 9824,8050 9824,8051 C 9855,8051 9886,8043 9913,8027 9939,8012 9962,7989 9977,7963 9993,7936 10001,7905 10001,7874 L 10001,1176 10001,1177 10001,1177 C 10001,1146 9993,1115 9977,1088 9962,1062 9939,1039 9913,1024 9886,1008 9855,1000 9824,1000 L 176,1000 Z"/>
       </g>
      </g>
      <g class="Group">
       <g class="Group">
        <g class="com.sun.star.drawing.PolyPolygonShape">
         <g id="id4">
          <rect class="BoundingBox" stroke="none" fill="none" x="213" y="3358" width="1453" height="1762"/>
          <path fill="rgb(255,255,255)" stroke="none" d="M 213,5118 L 772,5118 870,5114 965,5101 1054,5081 1138,5053 1217,5017 1291,4974 1358,4924 1420,4868 1475,4805 1524,4735 1566,4660 1601,4579 1629,4493 1649,4401 1661,4304 1665,4203 1661,4106 1650,4015 1632,3928 1606,3848 1574,3773 1535,3703 1489,3640 1436,3582 1378,3531 1313,3486 1242,3448 1165,3416 1082,3391 994,3374 900,3363 801,3359 213,3359 213,5118 Z M 598,4740 L 598,3737 778,3737 833,3739 885,3746 934,3757 980,3772 1023,3791 1062,3815 1098,3842 1131,3874 1160,3909 1185,3948 1207,3990 1225,4036 1239,4086 1250,4138 1256,4195 1258,4254 1256,4311 1251,4365 1242,4415 1229,4462 1213,4506 1193,4546 1170,4582 1144,4615 1115,4644 1082,4669 1045,4691 1006,4709 963,4722 918,4732 869,4738 817,4740 598,4740 Z"/>
         </g>
        </g>
        <g class="com.sun.star.drawing.PolyPolygonShape">
         <g id="id5">
          <rect class="BoundingBox" stroke="none" fill="none" x="1735" y="3358" width="1596" height="1762"/>
          <path fill="rgb(255,255,255)" stroke="none" d="M 1735,5118 L 2154,5118 2249,4756 2796,4756 2898,5118 3329,5118 2793,3359 2294,3359 1735,5118 Z M 2355,4360 L 2518,3747 2687,4360 2355,4360 Z"/>
         </g>
        </g>
        <g class="com.sun.star.drawing.PolyPolygonShape">
         <g id="id6">
          <rect class="BoundingBox" stroke="none" fill="none" x="3329" y="3358" width="1359" height="1762"/>
          <path fill="rgb(255,255,255)" stroke="none" d="M 3813,5118 L 4198,5118 4198,3744 4686,3744 4686,3359 3329,3359 3329,3744 3813,3744 3813,5118 Z"/>
         </g>
        </g>
        <g class="com.sun.star.drawing.PolyPolygonShape">
         <g id="id7">
          <rect class="BoundingBox" stroke="none" fill="none" x="4687" y="3358" width="1596" height="1762"/>
          <path fill="rgb(255,255,255)" stroke="none" d="M 4687,5118 L 5106,5118 5201,4756 5748,4756 5850,5118 6282,5118 5746,3359 5246,3359 4687,5118 Z M 5307,4360 L 5470,3747 5639,4360 5307,4360 Z"/>
         </g>
        </g>
       </g>
       <g class="Group">
        <g class="com.sun.star.drawing.CustomShape">
         <g id="id8">
          <rect class="BoundingBox" stroke="none" fill="none" x="6543" y="3305" width="3357" height="1523"/>
          <path fill="rgb(255,255,255)" stroke="none" d="M 9899,4066 C 9899,4200 9821,4331 9674,4447 9527,4562 9315,4658 9060,4725 8805,4792 8516,4827 8221,4827 7926,4827 7637,4792 7382,4725 7127,4658 6915,4562 6768,4447 6621,4331 6543,4200 6543,4066 6543,3932 6621,3801 6768,3686 6915,3570 7127,3474 7382,3407 7637,3340 7926,3305 8221,3305 8516,3305 8805,3340 9060,3407 9315,3474 9527,3570 9674,3685 9821,3801 9899,3932 9899,4066 L 9899,4066 Z"/>
         </g>
        </g>
        <g class="com.sun.star.drawing.ClosedBezierShape">
         <g id="id9">
          <rect class="BoundingBox" stroke="none" fill="none" x="6540" y="4094" width="3361" height="2517"/>
          <path fill="rgb(255,255,255)" stroke="none" d="M 9677,5246 C 9530,5362 9318,5459 9063,5525 8808,5592 8518,5627 8223,5627 7928,5627 7639,5592 7385,5525 7129,5459 6917,5362 6770,5246 6640,5144 6565,5029 6548,4911 6545,4930 6544,4949 6544,4966 6544,5099 6621,5232 6768,5347 6916,5463 7129,5559 7384,5625 7639,5692 7927,5727 8222,5727 8517,5727 8807,5692 9062,5625 9317,5559 9528,5463 9676,5347 9803,5247 9878,5137 9896,5022 L 9896,5799 C 9899,5815 9900,5832 9900,5850 9900,5983 9823,6114 9676,6231 9528,6345 9317,6442 9060,6509 8805,6575 8517,6610 8222,6610 7927,6610 7637,6575 7382,6509 7127,6442 6914,6345 6768,6231 6627,6120 6549,5993 6544,5865 L 6540,5865 6540,4095 6558,4095 C 6548,4126 6544,4159 6544,4191 6544,4325 6621,4457 6768,4572 6916,4688 7129,4785 7384,4851 7639,4917 7927,4953 8222,4953 8517,4953 8807,4917 9062,4851 9317,4785 9528,4688 9676,4572 9803,4471 9878,4362 9896,4247 L 9896,4928 C 9876,5039 9801,5148 9677,5246 Z M 9887,4095 L 9896,4095 9896,4137 C 9894,4122 9891,4108 9887,4095 Z"/>
         </g>
        </g>
       </g>
       <g class="Group">
        <g class="com.sun.star.drawing.CustomShape">
         <g id="id10">
          <rect class="BoundingBox" stroke="none" fill="none" x="1665" y="1149" width="835" height="865"/>
          <path fill="rgb(255,255,255)" stroke="none" d="M 2499,1581 C 2499,1657 2480,1732 2443,1797 2407,1863 2354,1917 2291,1955 2227,1993 2156,2013 2083,2013 2009,2013 1938,1993 1874,1955 1811,1917 1758,1863 1722,1797 1685,1732 1666,1657 1666,1582 1666,1506 1685,1431 1722,1366 1758,1300 1811,1246 1874,1208 1938,1170 2009,1150 2082,1150 2156,1150 2227,1170 2291,1208 2354,1246 2407,1300 2443,1366 2480,1431 2499,1506 2499,1581 L 2499,1581 Z"/>
         </g>
        </g>
        <g class="com.sun.star.drawing.CustomShape">
         <g id="id11">
          <rect class="BoundingBox" stroke="none" fill="none" x="6922" y="2087" width="837" height="864"/>
          <path fill="rgb(255,255,255)" stroke="none" d="M 7758,2519 C 7758,2594 7739,2669 7702,2734 7665,2800 7613,2854 7549,2892 7486,2930 7414,2950 7340,2950 7267,2950 7195,2930 7132,2892 7068,2854 7016,2800 6979,2734 6942,2669 6923,2594 6923,2519 6923,2443 6942,2368 6979,2303 7016,2237 7068,2183 7132,2145 7195,2107 7267,2087 7340,2087 7414,2087 7486,2107 7549,2145 7613,2183 7665,2237 7702,2303 7739,2368 7758,2443 7758,2518 L 7758,2519 Z"/>
         </g>
        </g>
        <g class="com.sun.star.drawing.ClosedBezierShape">
         <g id="id12">
          <rect class="BoundingBox" stroke="none" fill="none" x="2498" y="1408" width="4650" height="909"/>
          <path fill="rgb(255,255,255)" stroke="none" d="M 2538,1584 C 2538,1524 2527,1463 2502,1409 L 6536,1409 7147,2071 C 7127,2080 7109,2088 7091,2099 7029,2137 6975,2192 6939,2257 6929,2275 6918,2295 6911,2316 L 6407,1768 2498,1768 C 2525,1711 2538,1647 2538,1584 Z"/>
         </g>
        </g>
       </g>
       <g class="Group">
        <g class="com.sun.star.drawing.CustomShape">
         <g id="id13">
          <rect class="BoundingBox" stroke="none" fill="none" x="254" y="2082" width="835" height="866"/>
          <path fill="rgb(255,255,255)" stroke="none" d="M 1088,2515 C 1088,2591 1069,2665 1032,2731 996,2797 943,2851 880,2889 816,2927 744,2947 671,2947 598,2947 526,2927 463,2889 399,2851 346,2797 310,2731 273,2665 254,2591 254,2515 254,2439 273,2365 310,2299 346,2233 399,2179 462,2141 526,2103 598,2083 671,2083 744,2083 816,2103 879,2141 943,2179 996,2233 1032,2299 1069,2365 1088,2439 1088,2515 L 1088,2515 Z"/>
         </g>
        </g>
        <g class="com.sun.star.drawing.CustomShape">
         <g id="id14">
          <rect class="BoundingBox" stroke="none" fill="none" x="5640" y="2085" width="835" height="865"/>
          <path fill="rgb(255,255,255)" stroke="none" d="M 6474,2517 C 6474,2593 6455,2668 6418,2733 6382,2799 6329,2853 6266,2891 6202,2929 6130,2949 6057,2949 5984,2949 5912,2929 5849,2891 5785,2853 5732,2799 5696,2733 5659,2668 5640,2593 5640,2518 5640,2442 5659,2367 5696,2302 5732,2236 5785,2182 5849,2144 5912,2106 5984,2086 6057,2086 6130,2086 6202,2106 6266,2144 6329,2182 6382,2236 6418,2302 6455,2367 6474,2442 6474,2517 L 6474,2517 Z"/>
         </g>
        </g>
        <g class="com.sun.star.drawing.ClosedBezierShape">
         <g id="id15">
          <rect class="BoundingBox" stroke="none" fill="none" x="1088" y="2342" width="4554" height="362"/>
          <path fill="rgb(255,255,255)" stroke="none" d="M 1131,2518 C 1131,2458 1118,2397 1093,2343 L 5636,2343 C 5612,2397 5598,2458 5598,2520 5598,2583 5613,2645 5640,2702 L 1088,2702 C 1117,2645 1131,2581 1131,2518 Z"/>
         </g>
        </g>
       </g>
       <g class="Group">
        <g class="com.sun.star.drawing.CustomShape">
         <g id="id16">
          <rect class="BoundingBox" stroke="none" fill="none" x="498" y="7085" width="836" height="865"/>
          <path fill="rgb(255,255,255)" stroke="none" d="M 1333,7517 C 1333,7593 1314,7667 1277,7733 1241,7799 1188,7853 1124,7891 1061,7929 989,7949 916,7949 843,7949 771,7929 708,7891 644,7853 591,7799 555,7733 518,7667 499,7593 499,7517 499,7441 518,7367 555,7301 591,7235 644,7181 707,7143 771,7105 843,7085 916,7085 989,7085 1061,7105 1124,7143 1188,7181 1241,7235 1277,7301 1314,7367 1333,7441 1333,7517 L 1333,7517 Z"/>
         </g>
        </g>
        <g class="com.sun.star.drawing.CustomShape">
         <g id="id17">
          <rect class="BoundingBox" stroke="none" fill="none" x="7295" y="7088" width="836" height="864"/>
          <path fill="rgb(255,255,255)" stroke="none" d="M 8130,7520 C 8130,7595 8111,7670 8074,7735 8037,7801 7985,7855 7921,7893 7858,7931 7786,7951 7713,7951 7639,7951 7567,7931 7504,7893 7440,7855 7388,7801 7351,7735 7314,7670 7295,7595 7295,7520 7295,7444 7314,7369 7351,7304 7388,7238 7440,7184 7504,7146 7567,7108 7639,7088 7713,7088 7786,7088 7858,7108 7921,7146 7985,7184 8037,7238 8074,7304 8111,7369 8130,7444 8130,7520 L 8130,7520 Z"/>
         </g>
        </g>
        <g class="com.sun.star.drawing.ClosedBezierShape">
         <g id="id18">
          <rect class="BoundingBox" stroke="none" fill="none" x="1333" y="7344" width="5964" height="362"/>
          <path fill="rgb(255,255,255)" stroke="none" d="M 7256,7522 C 7256,7585 7270,7647 7295,7704 L 1333,7704 C 1378,7647 1402,7584 1402,7520 1402,7460 1382,7400 1341,7345 L 7293,7345 C 7268,7400 7256,7460 7256,7522 Z"/>
         </g>
        </g>
       </g>
       <g class="Group">
        <g class="com.sun.star.drawing.PolyPolygonShape">
         <g id="id19">
          <rect class="BoundingBox" stroke="none" fill="none" x="222" y="5146" width="1374" height="1871"/>
          <path fill="rgb(255,255,255)" stroke="none" d="M 222,7015 L 660,7015 660,6466 804,6466 892,6463 975,6453 1054,6437 1128,6416 1198,6389 1263,6356 1323,6318 1378,6275 1427,6227 1470,6174 1507,6116 1538,6055 1562,5989 1580,5919 1590,5846 1594,5769 1591,5697 1582,5630 1566,5566 1545,5507 1518,5452 1486,5400 1447,5354 1404,5311 1355,5274 1301,5241 1242,5212 1179,5189 1110,5171 1037,5158 960,5150 878,5147 222,5147 222,7015 Z M 842,5556 L 875,5557 906,5561 935,5567 963,5575 989,5585 1014,5597 1036,5611 1057,5627 1075,5645 1091,5664 1105,5685 1117,5708 1126,5733 1133,5758 1137,5786 1138,5814 1137,5842 1134,5868 1128,5893 1121,5916 1111,5937 1099,5957 1085,5975 1069,5992 1052,6007 1033,6020 1012,6031 989,6040 965,6047 939,6052 911,6055 883,6057 660,6057 660,5556 842,5556 Z"/>
         </g>
        </g>
        <g class="com.sun.star.drawing.PolyPolygonShape">
         <g id="id20">
          <rect class="BoundingBox" stroke="none" fill="none" x="1700" y="5146" width="1652" height="1898"/>
          <path fill="rgb(255,255,255)" stroke="none" d="M 2504,7043 L 2598,7039 2688,7028 2773,7010 2853,6986 2928,6955 2998,6917 3062,6874 3120,6824 3172,6769 3218,6709 3258,6643 3290,6572 3316,6497 3335,6416 3346,6332 3350,6243 3350,5147 2885,5147 2885,6297 2883,6336 2879,6373 2872,6408 2862,6441 2850,6471 2835,6500 2818,6525 2798,6548 2775,6569 2750,6587 2723,6603 2694,6616 2662,6626 2629,6633 2593,6637 2555,6639 2511,6637 2469,6632 2430,6623 2393,6612 2359,6597 2327,6579 2298,6558 2272,6534 2249,6507 2229,6477 2212,6444 2197,6409 2186,6371 2178,6331 2173,6288 2171,6243 2171,5147 1700,5147 1700,6270 1704,6358 1714,6441 1732,6520 1755,6594 1786,6663 1822,6726 1865,6784 1914,6837 1969,6884 2029,6925 2095,6960 2167,6990 2243,7013 2325,7029 2412,7039 2504,7043 Z"/>
         </g>
        </g>
        <g class="com.sun.star.drawing.PolyPolygonShape">
         <g id="id21">
          <rect class="BoundingBox" stroke="none" fill="none" x="3430" y="5146" width="1437" height="1871"/>
          <path fill="rgb(255,255,255)" stroke="none" d="M 3430,7015 L 4129,7015 4210,7012 4288,7004 4361,6990 4431,6971 4496,6947 4556,6918 4612,6885 4663,6847 4709,6805 4749,6758 4784,6708 4813,6654 4835,6596 4852,6535 4862,6471 4865,6404 4864,6361 4860,6320 4854,6281 4845,6243 4833,6207 4820,6172 4804,6139 4785,6108 4764,6078 4741,6051 4716,6025 4688,6001 4658,5979 4626,5959 4593,5941 4557,5925 4575,5909 4592,5893 4609,5875 4624,5857 4638,5838 4651,5818 4663,5798 4674,5776 4684,5755 4692,5732 4699,5709 4705,5685 4710,5661 4713,5636 4715,5611 4716,5586 4713,5533 4705,5484 4692,5438 4674,5396 4651,5356 4622,5320 4588,5288 4549,5258 4505,5232 4456,5210 4402,5191 4343,5175 4279,5163 4210,5154 4058,5147 3430,5147 3430,7015 Z M 3860,5513 L 4033,5513 4059,5514 4085,5516 4110,5521 4132,5527 4154,5534 4174,5543 4192,5553 4209,5565 4224,5578 4237,5592 4249,5608 4258,5624 4266,5642 4271,5661 4274,5681 4276,5701 4275,5714 4274,5726 4272,5738 4269,5750 4266,5762 4262,5773 4257,5785 4251,5796 4245,5806 4238,5817 4230,5827 4221,5837 4212,5847 4202,5856 4179,5874 3860,5874 3860,5513 Z M 3860,6649 L 3860,6229 4162,6229 4190,6230 4217,6233 4243,6238 4267,6245 4289,6253 4309,6263 4328,6275 4345,6289 4360,6304 4373,6321 4384,6339 4393,6358 4400,6379 4405,6402 4409,6425 4410,6450 4409,6474 4406,6496 4402,6517 4396,6536 4388,6554 4378,6571 4367,6586 4353,6599 4339,6610 4322,6621 4304,6629 4284,6636 4262,6642 4239,6646 4214,6648 4187,6649 3860,6649 Z"/>
         </g>
        </g>
       </g>
      </g>
     </g>
    </g>
   </g>
  </g>
 </g>
</svg>