<?xml version="1.0" encoding="UTF-8"?>
<!DOCTYPE svg PUBLIC "-//W3C//DTD SVG 1.1//EN" "http://www.w3.org/Graphics/SVG/1.1/DTD/svg11.dtd">
<svg version="1.2" width="100mm" height="100mm" viewBox="0 0 10000 10000" preserveAspectRatio="xMidYMid" fill-rule="evenodd" stroke-width="28.222" stroke-linejoin="round" xmlns="http://www.w3.org/2000/svg" xmlns:ooo="http://xml.openoffice.org/svg/export" xmlns:xlink="http://www.w3.org/1999/xlink" xmlns:presentation="http://sun.com/xmlns/staroffice/presentation" xmlns:smil="http://www.w3.org/2001/SMIL20/" xmlns:anim="urn:oasis:names:tc:opendocument:xmlns:animation:1.0" xml:space="preserve">
 <defs class="ClipPathGroup">
  <clipPath id="presentation_clip_path" clipPathUnits="userSpaceOnUse">
   <rect x="0" y="0" width="10000" height="10000"/>
  </clipPath>
  <clipPath id="presentation_clip_path_shrink" clipPathUnits="userSpaceOnUse">
   <rect x="10" y="10" width="9980" height="9980"/>
  </clipPath>
 </defs>
 <defs class="TextShapeIndex">
  <g ooo:slide="id1" ooo:id-list="id3 id4 id5 id6"/>
 </defs>
 <defs class="EmbeddedBulletChars">
  <g id="bullet-char-template-57356" transform="scale(0.00048828125,-0.00048828125)">
   <path d="M 580,1141 L 1163,571 580,0 -4,571 580,1141 Z"/>
  </g>
  <g id="bullet-char-template-57354" transform="scale(0.00048828125,-0.00048828125)">
   <path d="M 8,1128 L 1137,1128 1137,0 8,0 8,1128 Z"/>
  </g>
  <g id="bullet-char-template-10146" transform="scale(0.00048828125,-0.00048828125)">
   <path d="M 174,0 L 602,739 174,1481 1456,739 174,0 Z M 1358,739 L 309,1346 659,739 1358,739 Z"/>
  </g>
  <g id="bullet-char-template-10132" transform="scale(0.00048828125,-0.00048828125)">
   <path d="M 2015,739 L 1276,0 717,0 1260,543 174,543 174,936 1260,936 717,1481 1274,1481 2015,739 Z"/>
  </g>
  <g id="bullet-char-template-10007" transform="scale(0.00048828125,-0.00048828125)">
   <path d="M 0,-2 C -7,14 -16,27 -25,37 L 356,567 C 262,823 215,952 215,954 215,979 228,992 255,992 264,992 276,990 289,987 310,991 331,999 354,1012 L 381,999 492,748 772,1049 836,1024 860,1049 C 881,1039 901,1025 922,1006 886,937 835,863 770,784 769,783 710,716 594,584 L 774,223 C 774,196 753,168 711,139 L 727,119 C 717,90 699,76 672,76 641,76 570,178 457,381 L 164,-76 C 142,-110 111,-127 72,-127 30,-127 9,-110 8,-76 1,-67 -2,-52 -2,-32 -2,-23 -1,-13 0,-2 Z"/>
  </g>
  <g id="bullet-char-template-10004" transform="scale(0.00048828125,-0.00048828125)">
   <path d="M 285,-33 C 182,-33 111,30 74,156 52,228 41,333 41,471 41,549 55,616 82,672 116,743 169,778 240,778 293,778 328,747 346,684 L 369,508 C 377,444 397,411 428,410 L 1163,1116 C 1174,1127 1196,1133 1229,1133 1271,1133 1292,1118 1292,1087 L 1292,965 C 1292,929 1282,901 1262,881 L 442,47 C 390,-6 338,-33 285,-33 Z"/>
  </g>
  <g id="bullet-char-template-9679" transform="scale(0.00048828125,-0.00048828125)">
   <path d="M 813,0 C 632,0 489,54 383,161 276,268 223,411 223,592 223,773 276,916 383,1023 489,1130 632,1184 813,1184 992,1184 1136,1130 1245,1023 1353,916 1407,772 1407,592 1407,412 1353,268 1245,161 1136,54 992,0 813,0 Z"/>
  </g>
  <g id="bullet-char-template-8226" transform="scale(0.00048828125,-0.00048828125)">
   <path d="M 346,457 C 273,457 209,483 155,535 101,586 74,649 74,723 74,796 101,859 155,911 209,963 273,989 346,989 419,989 480,963 531,910 582,859 608,796 608,723 608,648 583,586 532,535 482,483 420,457 346,457 Z"/>
  </g>
  <g id="bullet-char-template-8211" transform="scale(0.00048828125,-0.00048828125)">
   <path d="M -4,459 L 1135,459 1135,606 -4,606 -4,459 Z"/>
  </g>
  <g id="bullet-char-template-61548" transform="scale(0.00048828125,-0.00048828125)">
   <path d="M 173,740 C 173,903 231,1043 346,1159 462,1274 601,1332 765,1332 928,1332 1067,1274 1183,1159 1299,1043 1357,903 1357,740 1357,577 1299,437 1183,322 1067,206 928,148 765,148 601,148 462,206 346,322 231,437 173,577 173,740 Z"/>
  </g>
 </defs>
 <g>
  <g id="id2" class="Master_Slide">
   <g id="bg-id2" class="Background"/>
   <g id="bo-id2" class="BackgroundObjects"/>
  </g>
 </g>
 <g class="SlideGroup">
  <g>
   <g id="container-id1">
    <g id="id1" class="Slide" clip-path="url(#presentation_clip_path)">
     <g class="Page">
      <g class="com.sun.star.drawing.CustomShape">
       <g id="id3">
        <rect class="BoundingBox" stroke="none" fill="none" x="859" y="859" width="8184" height="8184"/>
        <path fill="rgb(255,255,255)" stroke="none" d="M 9001,4951 C 9001,5662 8814,6360 8458,6976 8103,7592 7592,8103 6976,8458 6360,8814 5662,9001 4951,9001 4239,9001 3541,8814 2925,8458 2309,8103 1798,7592 1443,6976 1087,6360 900,5662 900,4951 900,4239 1087,3541 1443,2925 1798,2309 2309,1798 2925,1443 3541,1087 4239,900 4950,900 5662,900 6360,1087 6976,1443 7592,1798 8103,2309 8458,2925 8814,3541 9001,4239 9001,4950 L 9001,4951 Z"/>
        <path fill="none" stroke="rgb(28,82,127)" stroke-width="81" stroke-linejoin="round" d="M 9001,4951 C 9001,5662 8814,6360 8458,6976 8103,7592 7592,8103 6976,8458 6360,8814 5662,9001 4951,9001 4239,9001 3541,8814 2925,8458 2309,8103 1798,7592 1443,6976 1087,6360 900,5662 900,4951 900,4239 1087,3541 1443,2925 1798,2309 2309,1798 2925,1443 3541,1087 4239,900 4950,900 5662,900 6360,1087 6976,1443 7592,1798 8103,2309 8458,2925 8814,3541 9001,4239 9001,4950 L 9001,4951 Z"/>
       </g>
      </g>
      <g class="com.sun.star.drawing.ClosedBezierShape">
       <g id="id4">
        <rect class="BoundingBox" stroke="none" fill="none" x="4815" y="4328" width="3157" height="4234"/>
        <path fill="none" stroke="rgb(28,82,127)" stroke-width="81" stroke-linejoin="round" d="M 6509,8520 C 6245,8356 5956,8142 5924,7732 5900,7383 5963,7097 5977,6769 5996,6422 5764,6075 5395,6157 5034,6236 4758,5707 4889,5340 5001,5032 4897,4624 5288,4464 5618,4328 5997,4322 6296,4552 6561,4754 6963,4558 7148,4961 7277,5244 7394,5447 7811,5601 8086,5703 7834,6430 7547,6476 6776,6603 7677,6847 7440,7178 7218,7485 6927,7736 6749,8083 L 6589,8374 6616,8520 6509,8520 Z"/>
       </g>
      </g>
      <g class="com.sun.star.drawing.ClosedBezierShape">
       <g id="id5">
        <rect class="BoundingBox" stroke="none" fill="none" x="899" y="1924" width="3696" height="6491"/>
        <path fill="none" stroke="rgb(28,82,127)" stroke-width="81" stroke-linejoin="round" d="M 2492,8133 C 2487,8100 2481,8070 2477,8043 2431,7761 2249,7517 2213,7234 2182,6997 2391,6768 2015,6563 1779,6434 1593,6129 1641,5823 1674,5604 1892,5306 1508,5153 1298,5068 1134,4980 1022,4643 996,4563 969,4490 940,4421 1009,3910 1181,3413 1444,2963 1501,2862 1565,2764 1633,2670 1681,2671 1747,2659 1839,2631 2202,2519 2231,2161 2610,2147 2879,2135 3144,1835 3447,2031 3681,2181 4008,2217 4261,2100 4878,1819 4338,2457 4261,2563 4085,2810 3831,2957 3624,3164 3157,3629 3512,2961 3335,2817 3065,2597 2786,2964 3007,3257 3114,3401 3406,3997 2961,3812 2419,3582 2733,4251 2258,4136 1787,4019 2199,4896 1773,4553 1435,4278 1246,4968 1553,4968 1952,4968 1758,5487 2102,5431 2400,5381 2594,5536 2786,5707 3033,5929 3467,6057 3402,6423 3346,6752 3634,6887 3226,7188 2999,7356 2906,7610 2786,7882 2714,8043 2801,8221 2847,8373 2725,8299 2606,8219 2492,8133 Z"/>
       </g>
      </g>
      <g class="com.sun.star.drawing.ClosedBezierShape">
       <g id="id6">
        <rect class="BoundingBox" stroke="none" fill="none" x="4795" y="2028" width="4217" height="3607"/>
        <path fill="none" stroke="rgb(28,82,127)" stroke-width="81" stroke-linejoin="round" d="M 8430,2966 C 8783,3572 8970,4261 8970,4962 8970,5085 8964,5209 8952,5331 8826,5152 8630,5021 8415,4982 7471,4811 8904,5012 8258,5481 7795,5819 7585,5302 7423,5076 L 7205,4763 6924,4450 7142,4325 C 7871,4103 7078,3523 6802,3854 6472,4249 6177,3721 5776,3980 5569,4115 4504,4744 4940,4074 5260,3579 5016,3515 4940,3262 4824,2868 5363,3073 5807,3073 6245,3073 6016,2282 6336,2167 6657,2050 6959,2428 7298,2197 7426,2109 7569,2082 7715,2069 7995,2333 8235,2633 8430,2966 Z"/>
       </g>
      </g>
     </g>
    </g>
   </g>
  </g>
 </g>
</svg>