<?xml version="1.0" encoding="UTF-8"?>
<!DOCTYPE svg PUBLIC "-//W3C//DTD SVG 1.1//EN" "http://www.w3.org/Graphics/SVG/1.1/DTD/svg11.dtd">
<svg version="1.2" width="100mm" height="100mm" viewBox="0 0 10000 10000" preserveAspectRatio="xMidYMid" fill-rule="evenodd" stroke-width="28.222" stroke-linejoin="round" xmlns="http://www.w3.org/2000/svg" xmlns:ooo="http://xml.openoffice.org/svg/export" xmlns:xlink="http://www.w3.org/1999/xlink" xmlns:presentation="http://sun.com/xmlns/staroffice/presentation" xmlns:smil="http://www.w3.org/2001/SMIL20/" xmlns:anim="urn:oasis:names:tc:opendocument:xmlns:animation:1.0" xml:space="preserve">
 <defs class="ClipPathGroup">
  <clipPath id="presentation_clip_path" clipPathUnits="userSpaceOnUse">
   <rect x="0" y="0" width="10000" height="10000"/>
  </clipPath>
  <clipPath id="presentation_clip_path_shrink" clipPathUnits="userSpaceOnUse">
   <rect x="10" y="10" width="9980" height="9980"/>
  </clipPath>
 </defs>
 <defs class="TextShapeIndex">
  <g ooo:slide="id1" ooo:id-list="id3 id4 id5 id6 id7 id8 id9 id10 id11 id12 id13 id14 id15 id16 id17 id18 id19 id20 id21 id22 id23 id24"/>
 </defs>
 <defs class="EmbeddedBulletChars">
  <g id="bullet-char-template-57356" transform="scale(0.00048828125,-0.00048828125)">
   <path d="M 580,1141 L 1163,571 580,0 -4,571 580,1141 Z"/>
  </g>
  <g id="bullet-char-template-57354" transform="scale(0.00048828125,-0.00048828125)">
   <path d="M 8,1128 L 1137,1128 1137,0 8,0 8,1128 Z"/>
  </g>
  <g id="bullet-char-template-10146" transform="scale(0.00048828125,-0.00048828125)">
   <path d="M 174,0 L 602,739 174,1481 1456,739 174,0 Z M 1358,739 L 309,1346 659,739 1358,739 Z"/>
  </g>
  <g id="bullet-char-template-10132" transform="scale(0.00048828125,-0.00048828125)">
   <path d="M 2015,739 L 1276,0 717,0 1260,543 174,543 174,936 1260,936 717,1481 1274,1481 2015,739 Z"/>
  </g>
  <g id="bullet-char-template-10007" transform="scale(0.00048828125,-0.00048828125)">
   <path d="M 0,-2 C -7,14 -16,27 -25,37 L 356,567 C 262,823 215,952 215,954 215,979 228,992 255,992 264,992 276,990 289,987 310,991 331,999 354,1012 L 381,999 492,748 772,1049 836,1024 860,1049 C 881,1039 901,1025 922,1006 886,937 835,863 770,784 769,783 710,716 594,584 L 774,223 C 774,196 753,168 711,139 L 727,119 C 717,90 699,76 672,76 641,76 570,178 457,381 L 164,-76 C 142,-110 111,-127 72,-127 30,-127 9,-110 8,-76 1,-67 -2,-52 -2,-32 -2,-23 -1,-13 0,-2 Z"/>
  </g>
  <g id="bullet-char-template-10004" transform="scale(0.00048828125,-0.00048828125)">
   <path d="M 285,-33 C 182,-33 111,30 74,156 52,228 41,333 41,471 41,549 55,616 82,672 116,743 169,778 240,778 293,778 328,747 346,684 L 369,508 C 377,444 397,411 428,410 L 1163,1116 C 1174,1127 1196,1133 1229,1133 1271,1133 1292,1118 1292,1087 L 1292,965 C 1292,929 1282,901 1262,881 L 442,47 C 390,-6 338,-33 285,-33 Z"/>
  </g>
  <g id="bullet-char-template-9679" transform="scale(0.00048828125,-0.00048828125)">
   <path d="M 813,0 C 632,0 489,54 383,161 276,268 223,411 223,592 223,773 276,916 383,1023 489,1130 632,1184 813,1184 992,1184 1136,1130 1245,1023 1353,916 1407,772 1407,592 1407,412 1353,268 1245,161 1136,54 992,0 813,0 Z"/>
  </g>
  <g id="bullet-char-template-8226" transform="scale(0.00048828125,-0.00048828125)">
   <path d="M 346,457 C 273,457 209,483 155,535 101,586 74,649 74,723 74,796 101,859 155,911 209,963 273,989 346,989 419,989 480,963 531,910 582,859 608,796 608,723 608,648 583,586 532,535 482,483 420,457 346,457 Z"/>
  </g>
  <g id="bullet-char-template-8211" transform="scale(0.00048828125,-0.00048828125)">
   <path d="M -4,459 L 1135,459 1135,606 -4,606 -4,459 Z"/>
  </g>
  <g id="bullet-char-template-61548" transform="scale(0.00048828125,-0.00048828125)">
   <path d="M 173,740 C 173,903 231,1043 346,1159 462,1274 601,1332 765,1332 928,1332 1067,1274 1183,1159 1299,1043 1357,903 1357,740 1357,577 1299,437 1183,322 1067,206 928,148 765,148 601,148 462,206 346,322 231,437 173,577 173,740 Z"/>
  </g>
 </defs>
 <g>
  <g id="id2" class="Master_Slide">
   <g id="bg-id2" class="Background"/>
   <g id="bo-id2" class="BackgroundObjects"/>
  </g>
 </g>
 <g class="SlideGroup">
  <g>
   <g id="container-id1">
    <g id="id1" class="Slide" clip-path="url(#presentation_clip_path)">
     <g class="Page">
      <g class="Group">
       <g class="Group">
        <g class="com.sun.star.drawing.CustomShape">
         <g id="id3">
          <rect class="BoundingBox" stroke="none" fill="none" x="0" y="0" width="10002" height="10002"/>
          <path fill="rgb(28,82,127)" stroke="none" d="M 77,0 L 77,0 C 63,0 50,4 39,10 27,17 17,27 10,39 4,50 0,63 0,77 L 0,9924 0,9924 C 0,9938 4,9951 10,9963 17,9974 27,9984 39,9991 50,9997 63,10001 77,10001 L 9924,10001 9924,10001 C 9938,10001 9951,9997 9963,9991 9974,9984 9984,9974 9991,9963 9997,9951 10001,9938 10001,9924 L 10001,77 10001,77 10001,77 C 10001,63 9997,50 9991,39 9984,27 9974,17 9963,10 9951,4 9938,0 9924,0 L 77,0 Z"/>
         </g>
        </g>
       </g>
       <g class="Group">
        <g class="com.sun.star.drawing.PolyPolygonShape">
         <g id="id4">
          <rect class="BoundingBox" stroke="none" fill="none" x="74" y="204" width="834" height="1484"/>
          <path fill="rgb(255,255,255)" stroke="none" d="M 399,1687 L 458,1684 513,1677 565,1666 614,1651 659,1631 701,1607 739,1579 774,1547 804,1510 831,1470 854,1427 872,1379 887,1328 898,1273 904,1215 906,1154 906,204 540,204 540,1175 539,1198 537,1219 534,1239 529,1258 523,1275 515,1290 506,1304 496,1317 484,1328 471,1338 457,1346 441,1353 424,1358 406,1361 386,1364 365,1364 342,1364 319,1361 294,1358 270,1353 246,1347 222,1340 199,1333 178,1324 75,1611 110,1629 148,1644 186,1657 227,1668 268,1676 311,1682 354,1685 399,1687 Z"/>
         </g>
        </g>
        <g class="com.sun.star.drawing.PolyPolygonShape">
         <g id="id5">
          <rect class="BoundingBox" stroke="none" fill="none" x="1148" y="204" width="1278" height="1484"/>
          <path fill="rgb(255,255,255)" stroke="none" d="M 1770,1687 L 1843,1684 1912,1675 1978,1661 2040,1642 2098,1618 2152,1589 2201,1555 2246,1516 2287,1473 2322,1426 2353,1374 2378,1319 2398,1260 2413,1197 2422,1131 2425,1061 2425,204 2064,204 2064,1103 2063,1134 2060,1163 2055,1191 2047,1216 2038,1240 2026,1262 2013,1282 1997,1300 1980,1316 1961,1331 1940,1343 1917,1353 1893,1360 1867,1366 1839,1370 1810,1371 1775,1369 1743,1365 1713,1359 1684,1350 1658,1338 1633,1324 1611,1307 1591,1289 1573,1268 1557,1244 1544,1219 1533,1191 1524,1162 1518,1130 1514,1097 1513,1061 1513,204 1148,204 1148,1082 1151,1151 1159,1216 1173,1278 1191,1336 1214,1389 1243,1439 1276,1485 1314,1526 1356,1563 1403,1595 1454,1622 1509,1645 1568,1663 1632,1676 1699,1684 1770,1687 Z"/>
         </g>
        </g>
        <g class="com.sun.star.drawing.PolyPolygonShape">
         <g id="id6">
          <rect class="BoundingBox" stroke="none" fill="none" x="2694" y="204" width="1251" height="1463"/>
          <path fill="rgb(255,255,255)" stroke="none" d="M 2694,1666 L 3059,1666 3059,1167 3221,1167 3505,1666 3943,1666 3579,1091 3609,1074 3637,1055 3664,1034 3689,1012 3713,989 3734,964 3754,938 3772,910 3788,881 3802,851 3814,820 3824,787 3832,754 3837,719 3841,684 3842,647 3840,595 3833,547 3821,501 3805,459 3785,419 3760,383 3731,350 3698,320 3661,293 3620,270 3575,250 3527,234 3474,221 3419,212 3359,206 3297,204 2694,204 2694,1666 Z M 3246,522 L 3271,523 3295,526 3317,529 3338,534 3357,541 3375,549 3391,558 3406,569 3419,581 3430,594 3440,608 3448,624 3455,641 3459,658 3462,677 3463,697 3462,716 3460,733 3457,749 3452,764 3446,778 3439,792 3430,804 3420,815 3409,824 3396,833 3383,840 3368,847 3352,851 3335,855 3316,857 3297,858 3059,858 3059,522 3246,522 Z"/>
         </g>
        </g>
        <g class="com.sun.star.drawing.PolyPolygonShape">
         <g id="id7">
          <rect class="BoundingBox" stroke="none" fill="none" x="3938" y="204" width="1487" height="1463"/>
          <path fill="rgb(255,255,255)" stroke="none" d="M 3939,1666 L 4329,1666 4417,1364 4927,1364 5021,1666 5424,1666 4925,204 4459,204 3939,1666 Z M 4516,1036 L 4668,527 4826,1036 4516,1036 Z"/>
         </g>
        </g>
        <g class="com.sun.star.drawing.PolyPolygonShape">
         <g id="id8">
          <rect class="BoundingBox" stroke="none" fill="none" x="5468" y="183" width="1129" height="1505"/>
          <path fill="rgb(255,255,255)" stroke="none" d="M 5993,1687 L 6064,1684 6130,1678 6192,1668 6250,1653 6304,1635 6354,1613 6399,1587 6439,1557 6475,1525 6507,1488 6534,1449 6556,1407 6573,1361 6585,1313 6593,1262 6595,1209 6593,1160 6587,1116 6577,1075 6564,1038 6548,1004 6529,973 6507,946 6482,920 6456,898 6428,877 6367,843 6301,815 6234,793 5986,726 5940,706 5920,695 5904,683 5891,669 5881,654 5875,637 5873,617 5874,604 5877,591 5881,579 5888,569 5896,558 5906,549 5918,541 5932,533 5947,526 5964,520 5982,515 6003,511 6047,506 6098,504 6143,505 6188,508 6234,512 6280,519 6324,527 6368,537 6410,548 6450,561 6551,270 6503,251 6453,233 6399,219 6344,206 6288,196 6231,189 6174,185 6117,184 6049,186 5984,192 5922,203 5863,218 5808,238 5757,260 5710,287 5666,317 5628,351 5593,388 5564,428 5539,471 5520,518 5505,566 5497,618 5494,672 5496,717 5502,758 5512,796 5525,830 5541,862 5560,891 5582,917 5606,941 5632,962 5660,981 5721,1015 5786,1042 5853,1064 5985,1101 6045,1118 6100,1137 6146,1158 6165,1170 6181,1184 6194,1198 6204,1215 6210,1233 6212,1253 6211,1265 6209,1277 6205,1288 6200,1298 6193,1307 6185,1316 6174,1324 6163,1331 6149,1337 6134,1343 6118,1347 6099,1351 6057,1356 6008,1358 5957,1357 5904,1353 5849,1347 5793,1338 5737,1326 5681,1311 5625,1293 5570,1272 5469,1571 5527,1595 5588,1617 5652,1637 5719,1654 5787,1668 5856,1678 5925,1684 5993,1687 Z"/>
         </g>
        </g>
        <g class="com.sun.star.drawing.PolyPolygonShape">
         <g id="id9">
          <rect class="BoundingBox" stroke="none" fill="none" x="6713" y="183" width="1128" height="1505"/>
          <path fill="rgb(255,255,255)" stroke="none" d="M 7238,1687 L 7308,1684 7375,1678 7437,1668 7495,1653 7549,1635 7599,1613 7644,1587 7684,1557 7720,1525 7752,1488 7778,1449 7800,1407 7818,1361 7830,1313 7837,1262 7840,1209 7838,1160 7832,1116 7822,1075 7809,1038 7793,1004 7773,973 7751,946 7727,920 7701,898 7672,877 7611,843 7546,815 7479,793 7231,726 7184,706 7165,695 7149,683 7136,669 7126,654 7120,637 7118,617 7119,604 7121,591 7126,579 7133,569 7141,558 7151,549 7163,541 7177,533 7192,526 7209,520 7227,515 7247,511 7292,506 7343,504 7388,505 7433,508 7479,512 7524,519 7569,527 7613,537 7655,548 7695,561 7796,270 7748,251 7697,233 7644,219 7589,206 7533,196 7476,189 7418,185 7362,184 7294,186 7229,192 7167,203 7108,218 7053,238 7002,260 6954,287 6911,317 6872,351 6838,388 6808,428 6784,471 6764,518 6750,566 6742,618 6739,672 6741,717 6747,758 6756,796 6769,830 6786,862 6805,891 6827,917 6851,941 6877,962 6905,981 6966,1015 7031,1042 7098,1064 7229,1101 7290,1118 7345,1137 7390,1158 7410,1170 7426,1184 7439,1198 7449,1215 7455,1233 7457,1253 7456,1265 7454,1277 7450,1288 7445,1298 7438,1307 7429,1316 7419,1324 7407,1331 7394,1337 7379,1343 7362,1347 7344,1351 7302,1356 7252,1358 7201,1357 7148,1353 7094,1347 7038,1338 6982,1326 6925,1311 6869,1293 6814,1272 6713,1571 6771,1595 6833,1617 6897,1637 6964,1654 7032,1668 7100,1678 7169,1684 7238,1687 Z"/>
         </g>
        </g>
        <g class="com.sun.star.drawing.PolyPolygonShape">
         <g id="id10">
          <rect class="BoundingBox" stroke="none" fill="none" x="8046" y="204" width="373" height="1463"/>
          <path fill="rgb(255,255,255)" stroke="none" d="M 8047,1666 L 8417,1666 8417,204 8047,204 8047,1666 Z"/>
         </g>
        </g>
        <g class="com.sun.star.drawing.PolyPolygonShape">
         <g id="id11">
          <rect class="BoundingBox" stroke="none" fill="none" x="8645" y="183" width="1223" height="1505"/>
          <path fill="rgb(255,255,255)" stroke="none" d="M 9397,1687 L 9457,1685 9518,1679 9579,1670 9640,1658 9698,1643 9752,1625 9803,1605 9848,1583 9768,1320 9735,1331 9701,1340 9665,1348 9629,1354 9592,1360 9556,1363 9520,1366 9485,1366 9432,1364 9381,1358 9334,1349 9290,1335 9249,1318 9211,1297 9176,1272 9145,1245 9117,1214 9093,1179 9072,1142 9055,1101 9042,1057 9032,1011 9026,962 9024,910 9026,861 9031,816 9040,773 9052,734 9067,698 9085,665 9107,635 9132,608 9160,584 9191,563 9225,546 9262,531 9302,520 9345,512 9391,507 9439,506 9482,507 9527,510 9571,514 9615,521 9657,528 9697,538 9733,548 9765,561 9867,274 9814,253 9761,234 9709,219 9656,206 9604,196 9551,189 9497,185 9443,184 9357,187 9274,198 9195,215 9120,238 9050,268 8984,304 8924,345 8868,393 8818,445 8774,503 8736,566 8704,633 8678,705 8660,781 8649,861 8645,946 8649,1027 8659,1105 8676,1179 8700,1249 8730,1314 8766,1375 8807,1431 8854,1483 8907,1529 8964,1569 9026,1604 9092,1633 9163,1656 9237,1673 9315,1683 9397,1687 Z"/>
         </g>
        </g>
       </g>
       <g class="Group">
        <g class="Group">
         <g class="com.sun.star.drawing.ClosedBezierShape">
          <g id="id12">
           <rect class="BoundingBox" stroke="none" fill="none" x="320" y="6507" width="9390" height="3420"/>
           <path fill="rgb(255,255,255)" stroke="none" d="M 321,9925 C 427,9600 566,9285 737,8987 1172,8233 1796,7607 2546,7172 3297,6737 4148,6507 5015,6507 5882,6507 6734,6737 7485,7172 8236,7607 8858,8233 9293,8987 9464,9285 9603,9600 9709,9925 L 321,9925 Z"/>
          </g>
         </g>
         <g class="com.sun.star.drawing.ClosedBezierShape">
          <g id="id13">
           <rect class="BoundingBox" stroke="none" fill="none" x="674" y="8044" width="8541" height="1883"/>
           <path fill="rgb(28,82,127)" stroke="none" d="M 5127,9926 C 5112,9766 4997,9672 4948,9506 4818,9061 5422,9293 5921,9293 6412,9293 6155,8402 6515,8272 6875,8140 7213,8566 7594,8306 7737,8206 7899,8176 8063,8161 8376,8458 8646,8797 8864,9172 9004,9412 9121,9666 9213,9926 L 5127,9926 Z M 675,9926 C 767,9664 885,9411 1025,9169 1090,9055 1161,8945 1237,8839 1291,8840 1366,8827 1469,8796 1876,8669 1909,8266 2334,8249 2636,8236 2933,7899 3273,8120 3536,8288 3903,8329 4187,8197 4879,7881 4273,8599 4187,8718 3990,8997 3704,9163 3472,9396 2948,9920 3346,9167 3148,9005 2845,8757 2531,9170 2779,9500 2836,9578 2939,9767 2979,9926 L 675,9926 Z"/>
          </g>
         </g>
        </g>
        <g class="com.sun.star.drawing.ClosedBezierShape">
         <g id="id14">
          <rect class="BoundingBox" stroke="none" fill="none" x="73" y="4252" width="9852" height="5675"/>
          <path fill="rgb(35,106,165)" stroke="none" d="M 9924,9925 L 9709,9925 C 9603,9600 9464,9285 9293,8987 8858,8233 8236,7607 7484,7172 6733,6737 5882,6507 5015,6507 4148,6507 3297,6737 2545,7172 2181,7384 1846,7640 1548,7934 L 1485,7988 1355,8110 1233,8237 1121,8369 1018,8504 924,8643 840,8787 766,8931 752,8961 C 748,8970 743,8979 737,8987 566,9285 427,9600 321,9925 L 73,9925 73,5391 216,5313 375,5233 534,5155 697,5081 863,5009 1031,4939 1201,4873 1373,4810 1548,4752 1724,4696 1901,4642 2082,4593 2264,4546 2446,4503 2631,4463 2816,4427 3003,4394 3191,4364 3381,4337 3570,4315 3761,4296 3952,4281 4143,4269 4336,4260 4527,4254 4719,4252 4912,4254 5104,4260 5296,4269 5487,4281 5678,4296 5869,4315 6058,4337 6248,4364 6436,4394 6622,4427 6807,4463 6993,4503 7175,4546 7357,4593 7537,4642 7715,4696 7891,4752 8066,4810 8237,4873 8407,4939 8576,5009 8742,5081 8904,5155 9066,5233 9222,5313 9378,5397 9530,5484 9679,5573 9825,5664 9924,5730 9924,9925 Z"/>
         </g>
        </g>
       </g>
       <g class="Group">
        <g class="com.sun.star.drawing.CustomShape">
         <g id="id15">
          <rect class="BoundingBox" stroke="none" fill="none" x="5073" y="4402" width="5" height="78"/>
          <path fill="rgb(114,159,207)" stroke="none" d="M 5076,4441 C 5076,4447 5076,4454 5076,4459 5076,4465 5076,4470 5076,4473 5075,4476 5075,4478 5075,4478 5075,4478 5075,4476 5075,4473 5074,4470 5074,4465 5074,4459 5074,4454 5074,4447 5074,4441 5074,4434 5074,4427 5074,4422 5074,4416 5074,4411 5075,4408 5075,4405 5075,4403 5075,4403 5075,4403 5075,4405 5076,4408 5076,4411 5076,4416 5076,4422 5076,4427 5076,4434 5076,4441 L 5076,4441 Z"/>
          <path fill="none" stroke="rgb(52,101,164)" d="M 5076,4441 C 5076,4447 5076,4454 5076,4459 5076,4465 5076,4470 5076,4473 5075,4476 5075,4478 5075,4478 5075,4478 5075,4476 5075,4473 5074,4470 5074,4465 5074,4459 5074,4454 5074,4447 5074,4441 5074,4434 5074,4427 5074,4422 5074,4416 5074,4411 5075,4408 5075,4405 5075,4403 5075,4403 5075,4403 5075,4405 5076,4408 5076,4411 5076,4416 5076,4422 5076,4427 5076,4434 5076,4441 Z"/>
         </g>
        </g>
        <g class="com.sun.star.drawing.CustomShape">
         <g id="id16">
          <rect class="BoundingBox" stroke="none" fill="none" x="8776" y="4148" width="674" height="675"/>
          <path fill="rgb(255,255,255)" stroke="none" d="M 9449,4485 C 9449,4545 9433,4603 9404,4654 9374,4705 9332,4747 9281,4777 9230,4806 9172,4822 9113,4822 9053,4822 8995,4806 8944,4777 8893,4747 8851,4705 8821,4654 8792,4603 8776,4545 8776,4485 8776,4426 8792,4368 8821,4317 8851,4266 8893,4224 8944,4194 8995,4165 9053,4149 9113,4149 9172,4149 9230,4165 9281,4194 9332,4224 9374,4266 9404,4317 9433,4368 9449,4426 9449,4485 L 9449,4485 Z"/>
         </g>
        </g>
        <g class="com.sun.star.drawing.ClosedBezierShape">
         <g id="id17">
          <rect class="BoundingBox" stroke="none" fill="none" x="8135" y="4883" width="895" height="2570"/>
          <path fill="rgb(255,255,255)" stroke="none" d="M 9029,4913 L 8995,5017 C 8993,5023 8989,5029 8984,5034 8979,5038 8973,5042 8966,5043 8959,5045 8952,5044 8945,5042 8939,5040 8933,5036 8928,5031 8923,5026 8920,5019 8919,5013 8917,5006 8918,4999 8920,4992 L 8955,4883 C 8979,4896 9004,4905 9029,4913 Z M 8871,5142 C 8873,5135 8877,5129 8882,5125 8888,5120 8894,5117 8901,5115 8907,5114 8914,5114 8921,5116 8928,5119 8934,5122 8938,5128 8943,5133 8946,5139 8948,5146 8949,5153 8949,5160 8946,5166 L 8897,5318 C 8895,5324 8891,5330 8886,5335 8881,5339 8875,5343 8868,5344 8861,5345 8854,5345 8848,5343 8841,5341 8835,5337 8830,5332 8826,5327 8822,5320 8821,5314 8820,5307 8820,5300 8822,5293 L 8871,5142 Z M 8773,5443 C 8776,5436 8779,5430 8785,5426 8790,5421 8796,5418 8803,5416 8810,5415 8817,5415 8823,5417 8830,5420 8836,5423 8840,5429 8845,5434 8848,5440 8850,5447 8851,5454 8851,5461 8849,5467 L 8800,5618 C 8797,5625 8794,5631 8788,5636 8783,5640 8777,5643 8770,5645 8763,5646 8756,5646 8750,5644 8743,5642 8737,5638 8733,5633 8728,5628 8725,5621 8723,5614 8722,5608 8722,5601 8724,5594 L 8773,5443 Z M 8676,5744 C 8678,5737 8682,5731 8687,5727 8692,5722 8698,5719 8705,5717 8712,5716 8719,5716 8726,5718 8732,5720 8738,5724 8743,5729 8747,5735 8751,5741 8752,5748 8753,5755 8753,5762 8751,5768 L 8702,5919 C 8700,5926 8696,5932 8691,5937 8685,5941 8679,5944 8672,5946 8666,5947 8659,5947 8652,5945 8645,5943 8639,5939 8635,5934 8630,5928 8627,5922 8625,5915 8624,5909 8624,5902 8627,5895 L 8676,5744 Z M 8578,6045 C 8580,6038 8584,6032 8589,6027 8594,6023 8600,6020 8607,6018 8614,6017 8621,6017 8628,6019 8634,6021 8640,6025 8645,6030 8650,6036 8653,6042 8654,6049 8656,6055 8655,6062 8653,6069 L 8604,6220 C 8602,6227 8598,6233 8593,6237 8588,6242 8581,6245 8575,6247 8568,6248 8561,6248 8554,6246 8548,6244 8542,6240 8537,6235 8532,6229 8529,6223 8528,6216 8526,6210 8527,6202 8529,6196 L 8578,6045 Z M 8480,6346 C 8482,6339 8486,6333 8491,6328 8496,6324 8503,6321 8509,6319 8516,6318 8523,6318 8530,6320 8537,6322 8542,6326 8547,6331 8552,6336 8555,6343 8556,6350 8558,6356 8557,6363 8555,6370 L 8506,6521 C 8504,6528 8500,6534 8495,6538 8490,6543 8484,6546 8477,6548 8470,6549 8463,6549 8456,6547 8450,6544 8444,6541 8439,6535 8434,6530 8431,6524 8430,6517 8428,6510 8429,6503 8431,6497 L 8480,6346 Z M 8382,6646 C 8384,6640 8388,6634 8393,6629 8399,6625 8405,6621 8412,6620 8418,6619 8425,6619 8432,6621 8439,6623 8445,6627 8449,6632 8454,6637 8457,6644 8459,6650 8460,6657 8460,6664 8457,6671 L 8408,6822 C 8406,6829 8402,6835 8397,6839 8392,6844 8386,6847 8379,6849 8372,6850 8365,6850 8359,6848 8352,6845 8346,6842 8341,6836 8337,6831 8333,6825 8332,6818 8331,6811 8331,6804 8333,6798 L 8382,6646 Z M 8284,6947 C 8287,6941 8290,6935 8296,6930 8301,6926 8307,6922 8314,6921 8321,6920 8328,6920 8334,6922 8341,6924 8347,6928 8351,6933 8356,6938 8359,6945 8361,6951 8362,6958 8362,6965 8360,6972 L 8311,7123 C 8308,7130 8305,7136 8299,7140 8294,7145 8288,7148 8281,7150 8274,7151 8267,7151 8261,7148 8254,7146 8248,7142 8244,7137 8239,7132 8236,7126 8234,7119 8233,7112 8233,7105 8235,7099 L 8284,6947 Z M 8187,7248 C 8189,7242 8193,7236 8198,7231 8203,7227 8209,7223 8216,7222 8223,7220 8230,7221 8236,7223 8243,7225 8249,7229 8254,7234 8258,7239 8262,7246 8263,7252 8264,7259 8264,7266 8262,7273 L 8213,7424 C 8211,7431 8207,7437 8202,7441 8196,7446 8190,7449 8183,7450 8177,7452 8170,7452 8163,7449 8156,7447 8150,7443 8146,7438 8141,7433 8138,7427 8136,7420 8135,7413 8135,7406 8138,7400 L 8187,7248 Z"/>
         </g>
        </g>
        <g class="com.sun.star.drawing.ClosedBezierShape">
         <g id="id18">
          <rect class="BoundingBox" stroke="none" fill="none" x="7871" y="4866" width="1127" height="2487"/>
          <path fill="rgb(255,255,255)" stroke="none" d="M 8940,4875 C 8958,4885 8977,4894 8996,4902 L 8952,5004 C 8949,5011 8945,5016 8939,5020 8934,5024 8927,5027 8920,5028 8913,5029 8906,5028 8900,5025 8894,5022 8888,5018 8884,5012 8880,5007 8877,5000 8876,4993 8876,4986 8877,4979 8879,4973 L 8926,4866 C 8930,4869 8935,4872 8940,4875 Z M 8817,5117 C 8820,5111 8824,5105 8830,5101 8835,5097 8842,5095 8849,5094 8856,5093 8863,5094 8869,5097 8875,5100 8881,5104 8885,5110 8889,5115 8892,5122 8893,5129 8893,5135 8892,5142 8890,5149 L 8826,5295 C 8824,5301 8819,5307 8814,5311 8808,5315 8802,5318 8795,5318 8788,5319 8781,5318 8774,5315 8768,5313 8763,5308 8758,5303 8754,5297 8752,5290 8751,5284 8750,5277 8751,5270 8754,5263 L 8817,5117 Z M 8691,5408 C 8694,5401 8699,5396 8704,5392 8710,5388 8716,5385 8723,5384 8730,5383 8737,5384 8743,5387 8750,5390 8755,5394 8759,5400 8764,5406 8766,5412 8767,5419 8768,5426 8767,5433 8764,5439 L 8701,5585 C 8698,5592 8694,5597 8688,5601 8683,5605 8676,5608 8669,5609 8662,5610 8655,5609 8649,5606 8643,5603 8637,5599 8633,5593 8629,5587 8626,5581 8625,5574 8625,5567 8626,5560 8628,5554 L 8691,5408 Z M 8566,5698 C 8569,5692 8573,5686 8579,5682 8584,5678 8591,5675 8598,5675 8604,5674 8611,5675 8618,5678 8624,5680 8630,5685 8634,5690 8638,5696 8641,5702 8641,5709 8642,5716 8641,5723 8638,5730 L 8575,5876 C 8573,5882 8568,5887 8563,5892 8557,5896 8550,5898 8544,5899 8537,5900 8530,5899 8523,5896 8517,5893 8511,5889 8507,5883 8503,5878 8501,5871 8500,5864 8499,5858 8500,5851 8503,5844 L 8566,5698 Z M 8440,5989 C 8443,5982 8447,5977 8453,5973 8459,5968 8465,5966 8472,5965 8479,5964 8486,5965 8492,5968 8499,5971 8504,5975 8508,5981 8512,5986 8515,5993 8516,6000 8517,6007 8516,6014 8513,6020 L 8450,6166 C 8447,6172 8443,6178 8437,6182 8431,6186 8425,6189 8418,6190 8411,6190 8404,6189 8398,6187 8391,6184 8386,6179 8382,6174 8378,6168 8375,6162 8374,6155 8373,6148 8374,6141 8377,6135 L 8440,5989 Z M 8315,6279 C 8317,6273 8322,6267 8327,6263 8333,6259 8339,6256 8346,6256 8353,6255 8360,6256 8367,6258 8373,6261 8379,6266 8383,6271 8387,6277 8389,6283 8390,6290 8391,6297 8390,6304 8387,6310 L 8324,6456 C 8321,6463 8317,6468 8311,6472 8306,6477 8299,6479 8292,6480 8285,6481 8279,6480 8272,6477 8266,6474 8260,6470 8256,6464 8252,6459 8249,6452 8249,6445 8248,6438 8249,6431 8252,6425 L 8315,6279 Z M 8189,6570 C 8192,6563 8196,6558 8202,6553 8207,6549 8214,6547 8221,6546 8228,6545 8235,6546 8241,6549 8247,6552 8253,6556 8257,6562 8261,6567 8264,6574 8265,6581 8265,6588 8264,6595 8262,6601 L 8199,6747 C 8196,6753 8191,6759 8186,6763 8180,6767 8174,6770 8167,6770 8160,6771 8153,6770 8147,6767 8140,6765 8135,6760 8130,6755 8126,6749 8124,6743 8123,6736 8122,6729 8123,6722 8126,6715 L 8189,6570 Z M 8063,6860 C 8066,6854 8071,6848 8076,6844 8082,6840 8088,6837 8095,6836 8102,6836 8109,6837 8115,6839 8122,6842 8127,6846 8132,6852 8136,6858 8138,6864 8139,6871 8140,6878 8139,6885 8136,6891 L 8073,7037 C 8070,7044 8066,7049 8060,7053 8055,7057 8048,7060 8041,7061 8034,7062 8027,7061 8021,7058 8015,7055 8009,7051 8005,7045 8001,7040 7998,7033 7997,7026 7997,7019 7998,7012 8000,7006 L 8063,6860 Z M 7938,7150 C 7941,7144 7945,7138 7951,7134 7956,7130 7963,7128 7970,7127 7977,7126 7983,7127 7990,7130 7996,7133 8002,7137 8006,7142 8010,7148 8013,7155 8013,7162 8014,7168 8013,7175 8010,7182 L 7947,7328 C 7945,7334 7940,7340 7935,7344 7929,7348 7923,7351 7916,7351 7909,7352 7902,7351 7895,7348 7889,7346 7883,7341 7879,7336 7875,7330 7873,7323 7872,7317 7871,7310 7872,7303 7875,7296 L 7938,7150 Z"/>
         </g>
        </g>
        <g class="com.sun.star.drawing.ClosedBezierShape">
         <g id="id19">
          <rect class="BoundingBox" stroke="none" fill="none" x="7647" y="4847" width="1321" height="2358"/>
          <path fill="rgb(255,255,255)" stroke="none" d="M 8940,4875 C 8949,4880 8958,4885 8967,4889 L 8912,4989 C 8909,4995 8904,5000 8898,5004 8892,5007 8886,5009 8879,5010 8872,5010 8865,5008 8859,5005 8853,5002 8848,4997 8844,4991 8840,4985 8838,4978 8838,4971 8838,4964 8840,4957 8843,4951 L 8899,4848 C 8912,4858 8926,4867 8940,4875 Z M 8768,5090 C 8771,5083 8776,5078 8782,5075 8788,5071 8795,5069 8802,5069 8808,5069 8815,5070 8821,5074 8828,5077 8833,5082 8836,5088 8840,5094 8842,5100 8842,5107 8842,5114 8841,5121 8837,5127 L 8761,5267 C 8758,5273 8753,5278 8747,5282 8741,5285 8735,5288 8728,5288 8721,5288 8714,5286 8708,5283 8702,5280 8697,5275 8693,5269 8689,5263 8687,5256 8687,5249 8687,5242 8689,5235 8692,5229 L 8768,5090 Z M 8617,5368 C 8620,5362 8625,5356 8631,5353 8637,5349 8644,5347 8651,5347 8657,5347 8664,5348 8670,5352 8677,5355 8682,5360 8685,5366 8689,5372 8691,5379 8691,5385 8691,5392 8690,5399 8686,5405 L 8610,5545 C 8607,5551 8602,5556 8596,5560 8590,5564 8584,5566 8577,5566 8570,5566 8563,5564 8557,5561 8551,5558 8546,5553 8542,5547 8538,5541 8536,5534 8536,5527 8536,5520 8538,5513 8541,5507 L 8617,5368 Z M 8466,5646 C 8469,5640 8474,5634 8480,5631 8486,5627 8493,5625 8500,5625 8507,5625 8513,5627 8520,5630 8526,5633 8531,5638 8534,5644 8538,5650 8540,5657 8540,5664 8540,5670 8539,5677 8535,5683 L 8460,5823 C 8456,5829 8451,5834 8445,5838 8440,5842 8433,5844 8426,5844 8419,5844 8412,5842 8406,5839 8400,5836 8395,5831 8391,5825 8387,5819 8385,5812 8385,5805 8385,5798 8387,5792 8390,5785 L 8466,5646 Z M 8315,5924 C 8318,5918 8323,5913 8329,5909 8335,5905 8342,5903 8349,5903 8356,5903 8362,5905 8369,5908 8375,5911 8380,5916 8383,5922 8387,5928 8389,5935 8389,5942 8389,5949 8388,5955 8384,5962 L 8309,6101 C 8305,6107 8300,6112 8294,6116 8289,6120 8282,6122 8275,6122 8268,6122 8261,6120 8255,6117 8249,6114 8244,6109 8240,6103 8236,6097 8234,6090 8234,6083 8234,6076 8236,6070 8239,6064 L 8315,5924 Z M 8164,6202 C 8167,6196 8172,6191 8178,6187 8184,6183 8191,6181 8198,6181 8205,6181 8211,6183 8218,6186 8224,6189 8229,6194 8232,6200 8236,6206 8238,6213 8238,6220 8238,6227 8237,6234 8233,6240 L 8158,6379 C 8154,6385 8149,6391 8144,6394 8138,6398 8131,6400 8124,6400 8117,6400 8110,6399 8104,6395 8098,6392 8093,6387 8089,6381 8086,6375 8084,6368 8083,6362 8083,6355 8085,6348 8088,6342 L 8164,6202 Z M 8013,6480 C 8016,6474 8021,6469 8027,6465 8033,6461 8040,6459 8047,6459 8054,6459 8061,6461 8067,6464 8073,6467 8078,6472 8081,6478 8085,6484 8087,6491 8087,6498 8087,6505 8086,6512 8083,6518 L 8007,6657 C 8003,6664 7998,6669 7993,6672 7987,6676 7980,6678 7973,6678 7966,6678 7959,6677 7953,6673 7947,6670 7942,6665 7938,6659 7935,6653 7933,6647 7932,6640 7932,6633 7934,6626 7937,6620 L 8013,6480 Z M 7862,6758 C 7865,6752 7870,6747 7876,6743 7882,6740 7889,6738 7896,6737 7903,6737 7910,6739 7916,6742 7922,6745 7927,6750 7931,6756 7934,6762 7936,6769 7936,6776 7937,6783 7935,6790 7932,6796 L 7856,6936 C 7852,6942 7848,6947 7842,6950 7836,6954 7829,6956 7822,6956 7815,6956 7808,6955 7802,6951 7796,6948 7791,6943 7787,6937 7784,6931 7782,6925 7781,6918 7781,6911 7783,6904 7786,6898 L 7862,6758 Z M 7711,7036 C 7714,7030 7719,7025 7725,7021 7731,7018 7738,7016 7745,7015 7752,7015 7759,7017 7765,7020 7771,7024 7776,7028 7780,7034 7783,7040 7785,7047 7785,7054 7786,7061 7784,7068 7781,7074 L 7721,7183 C 7718,7189 7713,7194 7707,7198 7701,7202 7695,7204 7688,7204 7681,7204 7674,7202 7668,7199 7662,7196 7656,7191 7653,7185 7649,7179 7647,7172 7647,7165 7647,7158 7648,7151 7652,7145 L 7711,7036 Z"/>
         </g>
        </g>
        <g class="com.sun.star.drawing.ClosedBezierShape">
         <g id="id20">
          <rect class="BoundingBox" stroke="none" fill="none" x="1154" y="4618" width="7621" height="2363"/>
          <path fill="rgb(255,255,255)" stroke="none" d="M 8773,4694 L 8661,4728 C 8654,4730 8647,4730 8640,4728 8634,4727 8627,4723 8622,4718 8617,4714 8613,4708 8611,4701 8609,4694 8609,4687 8611,4681 8612,4674 8616,4668 8621,4663 8625,4657 8631,4654 8638,4652 L 8747,4619 C 8753,4645 8762,4670 8773,4694 Z M 8487,4697 C 8494,4695 8501,4695 8508,4697 8514,4698 8521,4702 8526,4706 8531,4711 8535,4717 8537,4724 8539,4730 8539,4737 8537,4744 8536,4751 8532,4757 8527,4762 8523,4767 8517,4771 8510,4773 L 8358,4819 C 8351,4821 8344,4821 8337,4820 8331,4818 8324,4815 8319,4810 8314,4805 8311,4799 8309,4793 8307,4786 8306,4779 8308,4772 8310,4765 8313,4759 8318,4754 8322,4749 8328,4745 8335,4743 L 8487,4697 Z M 8184,4789 C 8191,4787 8198,4786 8205,4788 8212,4790 8218,4793 8223,4798 8228,4802 8232,4809 8234,4815 8236,4822 8236,4829 8234,4836 8233,4842 8229,4849 8225,4854 8220,4859 8214,4862 8207,4864 L 8055,4910 C 8048,4912 8041,4913 8034,4911 8028,4909 8022,4906 8016,4901 8011,4897 8008,4891 8006,4884 8004,4877 8003,4870 8005,4863 8007,4857 8010,4851 8015,4845 8019,4840 8025,4837 8032,4835 L 8184,4789 Z M 7881,4880 C 7888,4878 7895,4878 7902,4880 7909,4881 7915,4884 7920,4889 7925,4894 7929,4900 7931,4907 7933,4913 7933,4920 7931,4927 7930,4934 7926,4940 7922,4945 7917,4950 7911,4954 7904,4956 L 7752,5002 C 7745,5004 7738,5004 7732,5002 7725,5001 7719,4998 7714,4993 7708,4988 7705,4982 7703,4975 7701,4969 7701,4962 7702,4955 7704,4948 7707,4942 7712,4937 7717,4932 7723,4928 7729,4926 L 7881,4880 Z M 7578,4972 C 7585,4970 7592,4969 7599,4971 7606,4973 7612,4976 7617,4981 7622,4985 7626,4991 7628,4998 7630,5005 7630,5012 7628,5019 7627,5025 7623,5031 7619,5037 7614,5042 7608,5045 7601,5047 L 7449,5093 C 7442,5095 7435,5096 7429,5094 7422,5092 7416,5089 7411,5084 7406,5080 7402,5073 7400,5067 7398,5060 7398,5053 7399,5046 7401,5040 7404,5033 7409,5028 7414,5023 7420,5020 7426,5018 L 7578,4972 Z M 7276,5063 C 7282,5061 7289,5061 7296,5062 7303,5064 7309,5067 7314,5072 7319,5077 7323,5083 7325,5089 7327,5096 7327,5103 7325,5110 7324,5117 7321,5123 7316,5128 7311,5133 7305,5137 7298,5139 L 7146,5185 C 7140,5187 7132,5187 7126,5185 7119,5184 7113,5180 7108,5176 7103,5171 7099,5165 7097,5158 7095,5152 7095,5145 7096,5138 7098,5131 7101,5125 7106,5120 7111,5115 7117,5111 7123,5109 L 7276,5063 Z M 6973,5154 C 6979,5152 6986,5152 6993,5154 7000,5155 7006,5159 7011,5164 7016,5168 7020,5174 7022,5181 7024,5188 7024,5195 7023,5201 7021,5208 7018,5214 7013,5219 7008,5224 7002,5228 6995,5230 L 6843,5276 C 6837,5278 6830,5278 6823,5277 6816,5275 6810,5272 6805,5267 6800,5262 6796,5256 6794,5250 6792,5243 6792,5236 6793,5229 6795,5223 6798,5216 6803,5211 6808,5206 6814,5202 6820,5200 L 6973,5154 Z M 6670,5246 C 6676,5244 6683,5244 6690,5245 6697,5247 6703,5250 6708,5255 6713,5260 6717,5266 6719,5272 6721,5279 6721,5286 6720,5293 6718,5300 6715,5306 6710,5311 6705,5316 6699,5320 6693,5322 L 6540,5368 C 6534,5370 6527,5370 6520,5368 6513,5367 6507,5363 6502,5359 6497,5354 6493,5348 6491,5341 6489,5335 6489,5327 6490,5321 6492,5314 6495,5308 6500,5303 6505,5298 6511,5294 6518,5292 L 6670,5246 Z M 6367,5337 C 6373,5335 6381,5335 6387,5337 6394,5338 6400,5342 6405,5346 6410,5351 6414,5357 6416,5364 6418,5370 6418,5378 6417,5384 6415,5391 6412,5397 6407,5402 6402,5407 6396,5411 6390,5413 L 6237,5459 C 6231,5461 6224,5461 6217,5460 6210,5458 6204,5455 6199,5450 6194,5445 6190,5439 6188,5433 6186,5426 6186,5419 6188,5412 6189,5405 6192,5399 6197,5394 6202,5389 6208,5385 6215,5383 L 6367,5337 Z M 6064,5429 C 6071,5427 6078,5427 6084,5428 6091,5430 6097,5433 6102,5438 6107,5443 6111,5449 6113,5455 6115,5462 6115,5469 6114,5476 6112,5482 6109,5489 6104,5494 6099,5499 6093,5503 6087,5505 L 5935,5551 C 5928,5553 5921,5553 5914,5551 5907,5550 5901,5546 5896,5541 5891,5537 5887,5531 5885,5524 5883,5517 5883,5510 5885,5504 5886,5497 5890,5491 5894,5486 5899,5481 5905,5477 5912,5475 L 6064,5429 Z M 5761,5520 C 5768,5518 5775,5518 5781,5520 5788,5521 5794,5525 5799,5529 5805,5534 5808,5540 5810,5547 5812,5553 5812,5560 5811,5567 5809,5574 5806,5580 5801,5585 5796,5590 5790,5594 5784,5596 L 5632,5642 C 5625,5644 5618,5644 5611,5643 5604,5641 5598,5638 5593,5633 5588,5628 5584,5622 5582,5616 5580,5609 5580,5602 5582,5595 5583,5588 5587,5582 5591,5577 5596,5572 5602,5568 5609,5566 L 5761,5520 Z M 5458,5612 C 5465,5610 5472,5610 5479,5611 5485,5613 5492,5616 5497,5621 5502,5626 5505,5632 5507,5638 5509,5645 5510,5652 5508,5659 5506,5665 5503,5672 5498,5677 5494,5682 5488,5685 5481,5687 L 5329,5733 C 5322,5735 5315,5736 5308,5734 5301,5732 5295,5729 5290,5724 5285,5720 5281,5714 5279,5707 5277,5700 5277,5693 5279,5687 5280,5680 5284,5674 5288,5668 5293,5663 5299,5660 5306,5658 L 5458,5612 Z M 5155,5703 C 5162,5701 5169,5701 5176,5703 5182,5704 5189,5707 5194,5712 5199,5717 5202,5723 5204,5730 5206,5736 5207,5743 5205,5750 5203,5757 5200,5763 5195,5768 5191,5773 5185,5777 5178,5779 L 5026,5825 C 5019,5827 5012,5827 5005,5825 4999,5824 4992,5821 4987,5816 4982,5811 4979,5805 4976,5798 4974,5792 4974,5785 4976,5778 4977,5771 4981,5765 4986,5760 4990,5755 4996,5751 5003,5749 L 5155,5703 Z M 4852,5795 C 4859,5793 4866,5792 4873,5794 4879,5796 4886,5799 4891,5804 4896,5808 4900,5814 4902,5821 4904,5828 4904,5835 4902,5842 4901,5848 4897,5855 4892,5860 4888,5865 4882,5868 4875,5870 L 4723,5916 C 4716,5918 4709,5919 4702,5917 4696,5915 4689,5912 4684,5907 4679,5903 4676,5897 4674,5890 4672,5883 4671,5876 4673,5869 4675,5863 4678,5856 4683,5851 4687,5846 4693,5843 4700,5841 L 4852,5795 Z M 4549,5886 C 4556,5884 4563,5884 4570,5885 4577,5887 4583,5890 4588,5895 4593,5900 4597,5906 4599,5913 4601,5919 4601,5926 4599,5933 4598,5940 4594,5946 4590,5951 4585,5956 4579,5960 4572,5962 L 4420,6008 C 4413,6010 4406,6010 4399,6008 4393,6007 4387,6003 4381,5999 4376,5994 4373,5988 4371,5981 4369,5975 4368,5968 4370,5961 4372,5954 4375,5948 4380,5943 4384,5938 4390,5934 4397,5932 L 4549,5886 Z M 4246,5978 C 4253,5976 4260,5975 4267,5977 4274,5978 4280,5982 4285,5987 4290,5991 4294,5997 4296,6004 4298,6011 4298,6018 4296,6024 4295,6031 4291,6037 4287,6042 4282,6048 4276,6051 4269,6053 L 4117,6099 C 4110,6101 4103,6101 4097,6100 4090,6098 4084,6095 4079,6090 4073,6085 4070,6079 4068,6073 4066,6066 4066,6059 4067,6052 4069,6046 4072,6039 4077,6034 4082,6029 4088,6025 4094,6023 L 4246,5978 Z M 3943,6069 C 3950,6067 3957,6067 3964,6068 3971,6070 3977,6073 3982,6078 3987,6083 3991,6089 3993,6095 3995,6102 3995,6109 3993,6116 3992,6123 3988,6129 3984,6134 3979,6139 3973,6143 3966,6145 L 3814,6191 C 3807,6193 3800,6193 3794,6191 3787,6190 3781,6186 3776,6182 3771,6177 3767,6171 3765,6164 3763,6158 3763,6151 3764,6144 3766,6137 3769,6131 3774,6126 3779,6121 3785,6117 3791,6115 L 3943,6069 Z M 3641,6160 C 3647,6158 3654,6158 3661,6160 3668,6161 3674,6165 3679,6169 3684,6174 3688,6180 3690,6187 3692,6193 3692,6201 3691,6207 3689,6214 3686,6220 3681,6225 3676,6230 3670,6234 3663,6236 L 3511,6282 C 3505,6284 3498,6284 3491,6283 3484,6281 3478,6278 3473,6273 3468,6268 3464,6262 3462,6256 3460,6249 3460,6242 3461,6235 3463,6228 3466,6222 3471,6217 3476,6212 3482,6208 3488,6206 L 3641,6160 Z M 3338,6252 C 3344,6250 3351,6250 3358,6251 3365,6253 3371,6256 3376,6261 3381,6266 3385,6272 3387,6278 3389,6285 3389,6292 3388,6299 3386,6306 3383,6312 3378,6317 3373,6322 3367,6326 3361,6328 L 3208,6374 C 3202,6376 3195,6376 3188,6374 3181,6373 3175,6369 3170,6365 3165,6360 3161,6354 3159,6347 3157,6340 3157,6333 3158,6327 3160,6320 3163,6314 3168,6309 3173,6304 3179,6300 3185,6298 L 3338,6252 Z M 3035,6343 C 3041,6341 3048,6341 3055,6343 3062,6344 3068,6348 3073,6352 3078,6357 3082,6363 3084,6370 3086,6376 3086,6383 3085,6390 3083,6397 3080,6403 3075,6408 3070,6413 3064,6417 3058,6419 L 2905,6465 C 2899,6467 2892,6467 2885,6466 2878,6464 2872,6461 2867,6456 2862,6451 2858,6445 2856,6439 2854,6432 2854,6425 2855,6418 2857,6411 2860,6405 2865,6400 2870,6395 2876,6391 2883,6389 L 3035,6343 Z M 2732,6435 C 2738,6433 2746,6433 2752,6434 2759,6436 2765,6439 2770,6444 2775,6449 2779,6455 2781,6461 2783,6468 2783,6475 2782,6482 2780,6488 2777,6495 2772,6500 2767,6505 2761,6508 2755,6510 L 2602,6556 C 2596,6558 2589,6559 2582,6557 2575,6555 2569,6552 2564,6547 2559,6543 2555,6537 2553,6530 2551,6523 2551,6516 2553,6510 2554,6503 2557,6497 2562,6491 2567,6486 2573,6483 2580,6481 L 2732,6435 Z M 2429,6526 C 2436,6524 2443,6524 2449,6526 2456,6527 2462,6530 2467,6535 2472,6540 2476,6546 2478,6553 2480,6559 2480,6566 2479,6573 2477,6580 2474,6586 2469,6591 2464,6596 2458,6600 2452,6602 L 2300,6648 C 2293,6650 2286,6650 2279,6649 2272,6647 2266,6644 2261,6639 2256,6634 2252,6628 2250,6621 2248,6615 2248,6608 2250,6601 2251,6594 2255,6588 2259,6583 2264,6578 2270,6574 2277,6572 L 2429,6526 Z M 2126,6618 C 2133,6616 2140,6615 2146,6617 2153,6619 2159,6622 2164,6627 2170,6631 2173,6637 2175,6644 2177,6651 2178,6658 2176,6665 2174,6671 2171,6678 2166,6683 2161,6688 2155,6691 2149,6693 L 1997,6739 C 1990,6741 1983,6742 1976,6740 1969,6738 1963,6735 1958,6730 1953,6726 1949,6720 1947,6713 1945,6706 1945,6699 1947,6692 1948,6686 1952,6679 1956,6674 1961,6669 1967,6666 1974,6664 L 2126,6618 Z M 1823,6709 C 1830,6707 1837,6707 1844,6708 1850,6710 1857,6713 1862,6718 1867,6723 1870,6729 1872,6736 1874,6742 1875,6749 1873,6756 1871,6763 1868,6769 1863,6774 1859,6779 1853,6783 1846,6785 L 1694,6831 C 1687,6833 1680,6833 1673,6831 1666,6830 1660,6826 1655,6822 1650,6817 1646,6811 1644,6804 1642,6798 1642,6791 1644,6784 1645,6777 1649,6771 1653,6766 1658,6761 1664,6757 1671,6755 L 1823,6709 Z M 1520,6801 C 1527,6799 1534,6798 1541,6800 1547,6801 1554,6805 1559,6810 1564,6814 1567,6820 1569,6827 1571,6834 1572,6841 1570,6847 1569,6854 1565,6860 1560,6865 1556,6871 1550,6874 1543,6876 L 1391,6922 C 1384,6924 1377,6924 1370,6923 1364,6921 1357,6918 1352,6913 1347,6908 1344,6902 1342,6896 1340,6889 1339,6882 1341,6875 1342,6869 1346,6862 1351,6857 1355,6852 1361,6848 1368,6846 L 1520,6801 Z M 1217,6892 C 1224,6890 1231,6890 1238,6891 1244,6893 1251,6896 1256,6901 1261,6906 1265,6912 1267,6918 1269,6925 1269,6932 1267,6939 1266,6946 1262,6952 1258,6957 1253,6962 1247,6966 1240,6968 L 1205,6978 C 1199,6980 1192,6980 1185,6979 1178,6977 1172,6974 1167,6969 1162,6964 1158,6958 1156,6952 1154,6945 1154,6938 1156,6931 1157,6925 1160,6918 1165,6913 1170,6908 1176,6904 1183,6902 L 1217,6892 Z"/>
         </g>
        </g>
        <g class="com.sun.star.drawing.ClosedBezierShape">
         <g id="id21">
          <rect class="BoundingBox" stroke="none" fill="none" x="1194" y="4593" width="7571" height="1782"/>
          <path fill="rgb(255,255,255)" stroke="none" d="M 8763,4670 L 8650,4696 C 8643,4697 8636,4697 8629,4695 8622,4693 8616,4689 8612,4684 8607,4679 8604,4673 8602,4666 8601,4659 8601,4652 8603,4645 8605,4639 8609,4633 8614,4628 8619,4623 8625,4620 8632,4619 L 8741,4594 C 8746,4620 8753,4645 8763,4670 Z M 8479,4653 C 8485,4652 8492,4652 8499,4654 8506,4656 8512,4660 8516,4665 8521,4670 8524,4676 8526,4683 8527,4690 8527,4697 8525,4704 8523,4710 8519,4716 8514,4721 8509,4726 8503,4729 8496,4731 L 8341,4766 C 8334,4767 8327,4767 8320,4765 8314,4763 8308,4759 8303,4754 8298,4749 8295,4743 8294,4736 8292,4729 8292,4722 8294,4715 8296,4709 8300,4703 8305,4698 8310,4693 8317,4690 8323,4689 L 8479,4653 Z M 8170,4723 C 8177,4722 8184,4722 8190,4724 8197,4726 8203,4730 8208,4735 8212,4740 8216,4746 8217,4753 8219,4760 8218,4767 8216,4774 8214,4780 8211,4786 8206,4791 8200,4796 8194,4799 8187,4800 L 8032,4836 C 8026,4837 8018,4837 8012,4835 8005,4833 7999,4829 7995,4824 7990,4819 7987,4812 7985,4806 7983,4799 7984,4792 7986,4785 7988,4779 7992,4773 7997,4768 8002,4763 8008,4760 8015,4758 L 8170,4723 Z M 7861,4793 C 7868,4792 7875,4792 7882,4794 7888,4796 7894,4800 7899,4805 7904,4810 7907,4816 7909,4823 7910,4830 7910,4837 7908,4843 7906,4850 7902,4856 7897,4861 7892,4865 7886,4869 7879,4870 L 7724,4905 C 7717,4907 7710,4907 7703,4905 7697,4903 7691,4899 7686,4894 7681,4889 7678,4882 7676,4876 7675,4869 7675,4862 7677,4855 7679,4848 7683,4843 7688,4838 7693,4833 7699,4830 7706,4828 L 7861,4793 Z M 7553,4863 C 7559,4861 7567,4862 7573,4864 7580,4866 7586,4870 7590,4875 7595,4880 7598,4886 7600,4893 7602,4900 7601,4907 7599,4913 7597,4920 7593,4926 7588,4931 7583,4935 7577,4939 7570,4940 L 7415,4975 C 7408,4977 7401,4977 7395,4974 7388,4972 7382,4969 7377,4964 7373,4958 7369,4952 7368,4945 7366,4939 7367,4932 7369,4925 7371,4918 7374,4912 7380,4908 7385,4903 7391,4900 7398,4898 L 7553,4863 Z M 7244,4933 C 7251,4931 7258,4932 7265,4934 7271,4936 7277,4940 7282,4945 7287,4950 7290,4956 7291,4963 7293,4970 7293,4977 7291,4983 7289,4990 7285,4996 7280,5001 7275,5005 7268,5009 7262,5010 L 7106,5045 C 7100,5047 7093,5046 7086,5044 7079,5042 7073,5039 7069,5033 7064,5028 7061,5022 7059,5015 7058,5009 7058,5001 7060,4995 7062,4988 7066,4982 7071,4978 7076,4973 7082,4970 7089,4968 L 7244,4933 Z M 6935,5003 C 6942,5001 6949,5002 6956,5004 6963,5006 6969,5009 6973,5014 6978,5020 6981,5026 6983,5033 6984,5039 6984,5046 6982,5053 6980,5060 6976,5066 6971,5070 6966,5075 6960,5078 6953,5080 L 6798,5115 C 6791,5117 6784,5116 6777,5114 6771,5112 6765,5108 6760,5103 6755,5098 6752,5092 6751,5085 6749,5078 6749,5071 6751,5065 6753,5058 6757,5052 6762,5047 6767,5043 6774,5039 6780,5038 L 6935,5003 Z M 6627,5073 C 6634,5071 6641,5071 6647,5073 6654,5076 6660,5079 6665,5084 6669,5089 6673,5096 6674,5102 6676,5109 6675,5116 6673,5123 6671,5130 6668,5136 6662,5140 6657,5145 6651,5148 6644,5150 L 6489,5185 C 6483,5186 6475,5186 6469,5184 6462,5182 6456,5178 6452,5173 6447,5168 6444,5162 6442,5155 6440,5148 6441,5141 6443,5135 6445,5128 6449,5122 6454,5117 6459,5113 6465,5109 6472,5108 L 6627,5073 Z M 6318,5143 C 6325,5141 6332,5141 6339,5143 6345,5145 6351,5149 6356,5154 6361,5159 6364,5166 6366,5172 6367,5179 6367,5186 6365,5193 6363,5199 6359,5205 6354,5210 6349,5215 6343,5218 6336,5220 L 6181,5255 C 6174,5256 6167,5256 6160,5254 6154,5252 6148,5248 6143,5243 6138,5238 6135,5232 6133,5225 6132,5218 6132,5211 6134,5204 6136,5198 6140,5192 6145,5187 6150,5182 6156,5179 6163,5178 L 6318,5143 Z M 6010,5212 C 6016,5211 6024,5211 6030,5213 6037,5215 6043,5219 6047,5224 6052,5229 6055,5235 6057,5242 6059,5249 6058,5256 6056,5263 6054,5269 6050,5275 6045,5280 6040,5285 6034,5288 6027,5290 L 5872,5325 C 5865,5326 5858,5326 5852,5324 5845,5322 5839,5318 5834,5313 5830,5308 5826,5302 5825,5295 5823,5288 5824,5281 5826,5274 5828,5268 5831,5262 5836,5257 5842,5252 5848,5249 5855,5248 L 6010,5212 Z M 5701,5282 C 5708,5281 5715,5281 5722,5283 5728,5285 5734,5289 5739,5294 5744,5299 5747,5305 5748,5312 5750,5319 5750,5326 5748,5333 5746,5339 5742,5345 5737,5350 5732,5355 5725,5358 5719,5359 L 5563,5395 C 5557,5396 5550,5396 5543,5394 5536,5392 5530,5388 5526,5383 5521,5378 5518,5371 5516,5365 5515,5358 5515,5351 5517,5344 5519,5338 5523,5332 5528,5327 5533,5322 5539,5319 5546,5317 L 5701,5282 Z M 5392,5352 C 5399,5351 5406,5351 5413,5353 5420,5355 5426,5359 5430,5364 5435,5369 5438,5375 5440,5382 5441,5389 5441,5396 5439,5402 5437,5409 5433,5415 5428,5420 5423,5424 5417,5428 5410,5429 L 5255,5464 C 5248,5466 5241,5466 5234,5464 5228,5462 5222,5458 5217,5453 5212,5448 5209,5441 5208,5435 5206,5428 5206,5421 5208,5414 5210,5407 5214,5402 5219,5397 5224,5392 5231,5389 5237,5387 L 5392,5352 Z M 5084,5422 C 5091,5420 5098,5421 5104,5423 5111,5425 5117,5429 5122,5434 5126,5439 5130,5445 5131,5452 5133,5459 5132,5466 5130,5472 5128,5479 5125,5485 5119,5490 5114,5494 5108,5498 5101,5499 L 4946,5534 C 4939,5536 4932,5536 4926,5533 4919,5531 4913,5528 4908,5523 4904,5517 4900,5511 4899,5504 4897,5498 4898,5491 4900,5484 4902,5477 4906,5471 4911,5467 4916,5462 4922,5459 4929,5457 L 5084,5422 Z M 4775,5492 C 4782,5490 4789,5491 4796,5493 4802,5495 4808,5499 4813,5504 4818,5509 4821,5515 4823,5522 4824,5529 4824,5536 4822,5542 4820,5549 4816,5555 4811,5560 4806,5564 4799,5568 4793,5569 L 4638,5604 C 4631,5606 4624,5605 4617,5603 4611,5601 4605,5598 4600,5592 4595,5587 4592,5581 4590,5574 4589,5568 4589,5560 4591,5554 4593,5547 4597,5541 4602,5537 4607,5532 4613,5529 4620,5527 L 4775,5492 Z M 4467,5562 C 4473,5560 4480,5561 4487,5563 4494,5565 4500,5568 4504,5573 4509,5579 4512,5585 4514,5592 4515,5598 4515,5605 4513,5612 4511,5619 4507,5625 4502,5629 4497,5634 4491,5637 4484,5639 L 4329,5674 C 4322,5676 4315,5675 4309,5673 4302,5671 4296,5667 4291,5662 4287,5657 4283,5651 4282,5644 4280,5637 4280,5630 4283,5624 4285,5617 4288,5611 4293,5606 4299,5602 4305,5598 4312,5597 L 4467,5562 Z M 4158,5632 C 4165,5630 4172,5630 4178,5632 4185,5634 4191,5638 4196,5643 4201,5648 4204,5655 4205,5661 4207,5668 4207,5675 4205,5682 4202,5689 4199,5695 4194,5699 4189,5704 4182,5707 4176,5709 L 4020,5744 C 4014,5745 4007,5745 4000,5743 3993,5741 3987,5737 3983,5732 3978,5727 3975,5721 3973,5714 3972,5707 3972,5700 3974,5694 3976,5687 3980,5681 3985,5676 3990,5672 3996,5668 4003,5667 L 4158,5632 Z M 3849,5702 C 3856,5700 3863,5700 3870,5702 3877,5704 3882,5708 3887,5713 3892,5718 3895,5725 3897,5731 3898,5738 3898,5745 3896,5752 3894,5758 3890,5764 3885,5769 3880,5774 3874,5777 3867,5779 L 3712,5814 C 3705,5815 3698,5815 3691,5813 3685,5811 3679,5807 3674,5802 3669,5797 3666,5791 3665,5784 3663,5777 3663,5770 3665,5763 3667,5757 3671,5751 3676,5746 3681,5741 3688,5738 3694,5737 L 3849,5702 Z M 3541,5771 C 3548,5770 3555,5770 3561,5772 3568,5774 3574,5778 3579,5783 3583,5788 3587,5794 3588,5801 3590,5808 3589,5815 3587,5822 3585,5828 3582,5834 3576,5839 3571,5844 3565,5847 3558,5849 L 3403,5884 C 3396,5885 3389,5885 3383,5883 3376,5881 3370,5877 3365,5872 3361,5867 3357,5861 3356,5854 3354,5847 3355,5840 3357,5833 3359,5827 3363,5821 3368,5816 3373,5811 3379,5808 3386,5806 L 3541,5771 Z M 3232,5841 C 3239,5840 3246,5840 3253,5842 3259,5844 3265,5848 3270,5853 3275,5858 3278,5864 3280,5871 3281,5878 3281,5885 3279,5892 3277,5898 3273,5904 3268,5909 3263,5914 3256,5917 3250,5918 L 3095,5954 C 3088,5955 3081,5955 3074,5953 3068,5951 3062,5947 3057,5942 3052,5937 3049,5930 3047,5924 3046,5917 3046,5910 3048,5903 3050,5897 3054,5891 3059,5886 3064,5881 3070,5878 3077,5876 L 3232,5841 Z M 2924,5911 C 2930,5910 2937,5910 2944,5912 2951,5914 2957,5918 2961,5923 2966,5928 2969,5934 2971,5941 2972,5948 2972,5955 2970,5961 2968,5968 2964,5974 2959,5979 2954,5983 2948,5987 2941,5988 L 2786,6023 C 2779,6025 2772,6025 2766,6023 2759,6021 2753,6017 2748,6012 2744,6007 2740,6000 2739,5994 2737,5987 2737,5980 2739,5973 2742,5966 2745,5960 2750,5956 2756,5951 2762,5948 2769,5946 L 2924,5911 Z M 2615,5981 C 2622,5979 2629,5980 2635,5982 2642,5984 2648,5988 2653,5993 2657,5998 2661,6004 2662,6011 2664,6018 2664,6025 2662,6031 2659,6038 2656,6044 2651,6049 2645,6053 2639,6057 2632,6058 L 2477,6093 C 2471,6095 2464,6095 2457,6092 2450,6090 2444,6087 2440,6082 2435,6076 2432,6070 2430,6063 2429,6057 2429,6050 2431,6043 2433,6036 2437,6030 2442,6026 2447,6021 2453,6018 2460,6016 L 2615,5981 Z M 2306,6051 C 2313,6049 2320,6050 2327,6052 2333,6054 2339,6057 2344,6063 2349,6068 2352,6074 2354,6081 2355,6087 2355,6095 2353,6101 2351,6108 2347,6114 2342,6118 2337,6123 2331,6126 2324,6128 L 2169,6163 C 2162,6165 2155,6164 2148,6162 2142,6160 2136,6157 2131,6151 2126,6146 2123,6140 2121,6133 2120,6127 2120,6119 2122,6113 2124,6106 2128,6100 2133,6096 2138,6091 2145,6088 2151,6086 L 2306,6051 Z M 1998,6121 C 2005,6119 2012,6119 2018,6122 2025,6124 2031,6127 2036,6132 2040,6138 2044,6144 2045,6151 2047,6157 2046,6164 2044,6171 2042,6178 2038,6184 2033,6188 2028,6193 2022,6196 2015,6198 L 1860,6233 C 1853,6235 1846,6234 1840,6232 1833,6230 1827,6226 1822,6221 1818,6216 1814,6210 1813,6203 1811,6196 1812,6189 1814,6183 1816,6176 1820,6170 1825,6165 1830,6161 1836,6157 1843,6156 L 1998,6121 Z M 1689,6191 C 1696,6189 1703,6189 1710,6191 1716,6193 1722,6197 1727,6202 1732,6207 1735,6214 1736,6220 1738,6227 1738,6234 1736,6241 1734,6248 1730,6254 1725,6258 1720,6263 1713,6266 1707,6268 L 1552,6303 C 1545,6304 1538,6304 1531,6302 1524,6300 1519,6296 1514,6291 1509,6286 1506,6280 1504,6273 1503,6266 1503,6259 1505,6253 1507,6246 1511,6240 1516,6235 1521,6231 1527,6227 1534,6226 L 1689,6191 Z M 1381,6260 C 1387,6259 1394,6259 1401,6261 1408,6263 1414,6267 1418,6272 1423,6277 1426,6284 1428,6290 1429,6297 1429,6304 1427,6311 1425,6317 1421,6323 1416,6328 1411,6333 1405,6336 1398,6338 L 1243,6373 C 1236,6374 1229,6374 1223,6372 1216,6370 1210,6366 1205,6361 1200,6356 1197,6350 1196,6343 1194,6336 1194,6329 1196,6322 1199,6316 1202,6310 1207,6305 1212,6300 1219,6297 1226,6296 L 1381,6260 Z"/>
         </g>
        </g>
        <g class="com.sun.star.drawing.ClosedBezierShape">
         <g id="id22">
          <rect class="BoundingBox" stroke="none" fill="none" x="1095" y="4570" width="7662" height="1289"/>
          <path fill="rgb(255,255,255)" stroke="none" d="M 8755,4648 L 8641,4666 C 8634,4667 8627,4666 8621,4664 8614,4661 8609,4657 8604,4652 8600,4646 8597,4640 8596,4633 8595,4626 8596,4619 8598,4613 8601,4606 8605,4600 8610,4596 8615,4592 8622,4589 8629,4588 L 8738,4570 C 8741,4597 8747,4623 8755,4648 Z M 8473,4612 C 8480,4611 8487,4612 8494,4615 8500,4617 8506,4621 8510,4627 8515,4632 8517,4638 8519,4645 8520,4652 8519,4659 8516,4666 8514,4672 8510,4678 8504,4682 8499,4687 8493,4690 8486,4691 L 8329,4716 C 8322,4717 8315,4716 8308,4713 8302,4711 8296,4707 8292,4701 8287,4696 8284,4690 8283,4683 8282,4676 8283,4669 8286,4662 8288,4656 8292,4650 8298,4646 8303,4641 8309,4639 8316,4637 L 8473,4612 Z M 8161,4662 C 8168,4661 8175,4662 8181,4664 8188,4667 8193,4671 8198,4676 8202,4682 8205,4688 8206,4695 8207,4702 8206,4709 8204,4715 8201,4722 8197,4728 8192,4732 8186,4736 8180,4739 8173,4740 L 8016,4765 C 8009,4766 8002,4766 7996,4763 7989,4761 7984,4756 7979,4751 7975,4746 7972,4739 7971,4732 7970,4725 7971,4718 7973,4712 7976,4705 7980,4700 7985,4695 7990,4691 7997,4688 8004,4687 L 8161,4662 Z M 7848,4712 C 7855,4711 7862,4711 7869,4714 7875,4716 7881,4721 7885,4726 7890,4731 7892,4738 7894,4745 7895,4751 7894,4759 7891,4765 7889,4771 7885,4777 7879,4782 7874,4786 7868,4789 7861,4790 L 7704,4815 C 7697,4816 7690,4815 7683,4813 7677,4810 7671,4806 7667,4801 7662,4795 7659,4789 7658,4782 7657,4775 7658,4768 7661,4762 7663,4755 7667,4749 7673,4745 7678,4741 7684,4738 7691,4737 L 7848,4712 Z M 7536,4761 C 7543,4760 7550,4761 7556,4764 7563,4766 7568,4770 7573,4776 7577,4781 7580,4787 7581,4794 7582,4801 7581,4808 7579,4815 7576,4821 7572,4827 7567,4831 7561,4836 7555,4838 7548,4840 L 7391,4864 C 7384,4866 7377,4865 7371,4862 7364,4860 7359,4856 7354,4850 7350,4845 7347,4838 7346,4832 7345,4825 7346,4818 7348,4811 7351,4805 7355,4799 7360,4795 7365,4790 7372,4787 7379,4786 L 7536,4761 Z M 7223,4811 C 7230,4810 7237,4811 7244,4813 7250,4816 7256,4820 7260,4825 7265,4831 7267,4837 7269,4844 7270,4851 7269,4858 7266,4864 7264,4871 7260,4876 7254,4881 7249,4885 7243,4888 7236,4889 L 7079,4914 C 7072,4915 7065,4915 7058,4912 7052,4910 7046,4905 7042,4900 7037,4895 7034,4888 7033,4881 7032,4874 7033,4867 7036,4861 7038,4854 7042,4849 7048,4844 7053,4840 7059,4837 7066,4836 L 7223,4811 Z M 6911,4861 C 6918,4860 6925,4860 6931,4863 6938,4865 6943,4869 6948,4875 6952,4880 6955,4887 6956,4894 6957,4900 6956,4907 6954,4914 6951,4920 6947,4926 6942,4931 6937,4935 6930,4938 6923,4939 L 6766,4964 C 6759,4965 6752,4964 6746,4962 6739,4959 6734,4955 6729,4950 6725,4944 6722,4938 6721,4931 6720,4924 6721,4917 6723,4911 6726,4904 6730,4898 6735,4894 6740,4890 6747,4887 6754,4886 L 6911,4861 Z M 6598,4910 C 6605,4909 6612,4910 6619,4913 6625,4915 6631,4919 6635,4925 6640,4930 6642,4936 6644,4943 6645,4950 6644,4957 6641,4964 6639,4970 6635,4976 6629,4980 6624,4985 6618,4987 6611,4988 L 6454,5013 C 6447,5015 6440,5014 6433,5011 6427,5009 6421,5005 6417,4999 6412,4994 6409,4987 6408,4981 6407,4974 6408,4967 6411,4960 6413,4954 6417,4948 6423,4944 6428,4939 6434,4936 6441,4935 L 6598,4910 Z M 6286,4960 C 6293,4959 6300,4960 6306,4962 6313,4965 6318,4969 6323,4974 6327,4980 6330,4986 6331,4993 6332,5000 6331,5007 6329,5013 6326,5020 6322,5025 6317,5030 6312,5034 6305,5037 6298,5038 L 6141,5063 C 6134,5064 6127,5063 6121,5061 6114,5058 6109,5054 6104,5049 6100,5044 6097,5037 6096,5030 6095,5023 6096,5016 6098,5010 6101,5003 6105,4998 6110,4993 6115,4989 6122,4986 6129,4985 L 6286,4960 Z M 5973,5010 C 5980,5009 5987,5009 5994,5012 6000,5014 6006,5018 6010,5024 6015,5029 6017,5036 6019,5043 6020,5049 6019,5056 6016,5063 6014,5069 6010,5075 6004,5079 5999,5084 5993,5087 5986,5088 L 5829,5113 C 5822,5114 5815,5113 5808,5111 5802,5108 5796,5104 5792,5099 5787,5093 5784,5087 5783,5080 5782,5073 5783,5066 5786,5060 5788,5053 5792,5047 5798,5043 5803,5039 5809,5036 5816,5035 L 5973,5010 Z M 5661,5059 C 5668,5058 5675,5059 5681,5061 5688,5064 5693,5068 5698,5073 5702,5079 5705,5085 5706,5092 5707,5099 5706,5106 5704,5113 5701,5119 5697,5125 5692,5129 5687,5133 5680,5136 5673,5137 L 5516,5162 C 5509,5163 5502,5163 5496,5160 5489,5158 5484,5154 5479,5148 5475,5143 5472,5136 5471,5130 5470,5123 5471,5116 5473,5109 5476,5103 5480,5097 5485,5093 5490,5088 5497,5085 5504,5084 L 5661,5059 Z M 5348,5109 C 5355,5108 5362,5109 5369,5111 5375,5114 5381,5118 5385,5123 5390,5129 5392,5135 5394,5142 5395,5149 5394,5156 5391,5162 5389,5169 5385,5174 5379,5179 5374,5183 5368,5186 5361,5187 L 5204,5212 C 5197,5213 5190,5212 5183,5210 5177,5207 5171,5203 5167,5198 5162,5192 5159,5186 5158,5179 5157,5172 5158,5165 5161,5159 5163,5152 5167,5147 5173,5142 5178,5138 5184,5135 5191,5134 L 5348,5109 Z M 5036,5159 C 5043,5158 5050,5158 5056,5161 5063,5163 5068,5167 5073,5173 5077,5178 5080,5185 5081,5191 5082,5198 5081,5205 5079,5212 5076,5218 5072,5224 5067,5228 5062,5233 5055,5236 5048,5237 L 4891,5262 C 4884,5263 4877,5262 4871,5260 4864,5257 4859,5253 4854,5248 4850,5242 4847,5236 4846,5229 4845,5222 4846,5215 4848,5208 4851,5202 4855,5196 4860,5192 4865,5188 4872,5185 4879,5184 L 5036,5159 Z M 4723,5208 C 4730,5207 4737,5208 4744,5210 4750,5213 4756,5217 4760,5222 4765,5228 4767,5234 4769,5241 4770,5248 4769,5255 4766,5261 4764,5268 4760,5274 4754,5278 4749,5282 4743,5285 4736,5286 L 4579,5311 C 4572,5312 4565,5312 4558,5309 4552,5307 4546,5303 4542,5297 4537,5292 4534,5285 4533,5278 4532,5272 4533,5265 4536,5258 4538,5252 4542,5246 4548,5242 4553,5237 4559,5234 4566,5233 L 4723,5208 Z M 4411,5258 C 4418,5257 4425,5258 4431,5260 4438,5263 4443,5267 4448,5272 4452,5277 4455,5284 4456,5291 4457,5298 4456,5305 4454,5311 4451,5318 4447,5323 4442,5328 4437,5332 4430,5335 4423,5336 L 4266,5361 C 4259,5362 4252,5361 4246,5359 4239,5356 4234,5352 4229,5347 4225,5341 4222,5335 4221,5328 4220,5321 4221,5314 4223,5308 4226,5301 4230,5296 4235,5291 4240,5287 4247,5284 4254,5283 L 4411,5258 Z M 4098,5308 C 4105,5306 4112,5307 4119,5310 4125,5312 4131,5316 4135,5322 4140,5327 4142,5334 4144,5340 4145,5347 4144,5354 4141,5361 4139,5367 4135,5373 4129,5377 4124,5382 4118,5385 4111,5386 L 3954,5411 C 3947,5412 3940,5411 3933,5409 3927,5406 3921,5402 3917,5396 3912,5391 3910,5385 3908,5378 3907,5371 3908,5364 3911,5357 3913,5351 3917,5345 3923,5341 3928,5336 3934,5334 3941,5333 L 4098,5308 Z M 3786,5357 C 3793,5356 3800,5357 3806,5359 3813,5362 3818,5366 3823,5371 3827,5377 3830,5383 3831,5390 3832,5397 3831,5404 3829,5410 3826,5417 3822,5423 3817,5427 3812,5431 3805,5434 3798,5435 L 3641,5460 C 3634,5461 3627,5461 3621,5458 3614,5456 3609,5452 3604,5446 3600,5441 3597,5434 3596,5427 3595,5421 3596,5414 3598,5407 3601,5401 3605,5395 3610,5390 3615,5386 3622,5383 3629,5382 L 3786,5357 Z M 3473,5407 C 3480,5406 3487,5407 3494,5409 3500,5411 3506,5416 3510,5421 3515,5426 3517,5433 3519,5440 3520,5447 3519,5454 3516,5460 3514,5467 3510,5472 3504,5477 3499,5481 3493,5484 3486,5485 L 3329,5510 C 3322,5511 3315,5510 3308,5508 3302,5505 3296,5501 3292,5496 3287,5490 3285,5484 3283,5477 3282,5470 3283,5463 3286,5457 3288,5450 3292,5445 3298,5440 3303,5436 3309,5433 3316,5432 L 3473,5407 Z M 3161,5457 C 3168,5455 3175,5456 3181,5459 3188,5461 3193,5465 3198,5471 3202,5476 3205,5483 3206,5489 3207,5496 3206,5503 3204,5510 3201,5516 3197,5522 3192,5526 3187,5531 3180,5534 3173,5535 L 3016,5560 C 3009,5561 3002,5560 2996,5557 2989,5555 2984,5551 2979,5545 2975,5540 2972,5534 2971,5527 2970,5520 2971,5513 2973,5506 2976,5500 2980,5494 2985,5490 2990,5485 2997,5483 3004,5481 L 3161,5457 Z M 2848,5506 C 2855,5505 2862,5506 2869,5508 2875,5511 2881,5515 2885,5520 2890,5526 2892,5532 2894,5539 2895,5546 2894,5553 2891,5559 2889,5566 2885,5572 2879,5576 2874,5580 2868,5583 2861,5584 L 2704,5609 C 2697,5610 2690,5610 2683,5607 2677,5605 2671,5600 2667,5595 2662,5590 2660,5583 2658,5576 2657,5570 2658,5562 2661,5556 2663,5550 2667,5544 2673,5539 2678,5535 2684,5532 2691,5531 L 2848,5506 Z M 2536,5556 C 2543,5555 2550,5555 2556,5558 2563,5560 2568,5565 2573,5570 2577,5575 2580,5582 2581,5589 2582,5596 2581,5603 2579,5609 2576,5616 2572,5621 2567,5626 2562,5630 2555,5633 2548,5634 L 2391,5659 C 2384,5660 2377,5659 2371,5657 2364,5654 2359,5650 2354,5645 2350,5639 2347,5633 2346,5626 2345,5619 2346,5612 2348,5606 2351,5599 2355,5593 2360,5589 2365,5585 2372,5582 2379,5581 L 2536,5556 Z M 2223,5605 C 2230,5604 2237,5605 2244,5608 2250,5610 2256,5614 2260,5620 2265,5625 2267,5631 2269,5638 2270,5645 2269,5652 2266,5659 2264,5665 2260,5671 2254,5675 2249,5680 2243,5682 2236,5684 L 2079,5709 C 2072,5710 2065,5709 2058,5706 2052,5704 2046,5700 2042,5694 2037,5689 2035,5683 2033,5676 2032,5669 2033,5662 2036,5655 2038,5649 2042,5643 2048,5639 2053,5634 2059,5631 2066,5630 L 2223,5605 Z M 1911,5655 C 1918,5654 1925,5655 1931,5657 1938,5660 1943,5664 1948,5669 1952,5675 1955,5681 1956,5688 1957,5695 1956,5702 1954,5708 1951,5715 1947,5721 1942,5725 1937,5729 1930,5732 1923,5733 L 1766,5758 C 1759,5759 1752,5759 1746,5756 1739,5754 1734,5749 1729,5744 1725,5739 1722,5732 1721,5725 1720,5718 1721,5711 1723,5705 1726,5698 1730,5693 1735,5688 1740,5684 1747,5681 1754,5680 L 1911,5655 Z M 1598,5705 C 1605,5704 1612,5704 1619,5707 1625,5709 1631,5714 1635,5719 1640,5724 1642,5731 1644,5738 1645,5744 1644,5751 1641,5758 1639,5764 1635,5770 1629,5775 1624,5779 1618,5782 1611,5783 L 1454,5808 C 1447,5809 1440,5808 1433,5806 1427,5803 1421,5799 1417,5794 1412,5788 1410,5782 1408,5775 1407,5768 1408,5761 1411,5755 1413,5748 1417,5742 1423,5738 1428,5734 1434,5731 1441,5730 L 1598,5705 Z M 1286,5754 C 1293,5753 1300,5754 1306,5757 1313,5759 1318,5763 1323,5769 1327,5774 1330,5780 1331,5787 1332,5794 1331,5801 1329,5808 1326,5814 1322,5820 1317,5824 1312,5829 1305,5831 1298,5833 L 1141,5857 C 1134,5859 1127,5858 1121,5855 1114,5853 1109,5849 1104,5843 1100,5838 1097,5831 1096,5825 1095,5818 1096,5811 1098,5804 1101,5798 1105,5792 1110,5788 1115,5783 1122,5780 1129,5779 L 1286,5754 Z"/>
         </g>
        </g>
        <g class="com.sun.star.drawing.ClosedBezierShape">
         <g id="id23">
          <rect class="BoundingBox" stroke="none" fill="none" x="1037" y="4550" width="7714" height="861"/>
          <path fill="rgb(255,255,255)" stroke="none" d="M 8749,4628 L 8636,4640 C 8629,4640 8622,4639 8615,4636 8609,4634 8603,4629 8599,4624 8595,4618 8593,4611 8592,4604 8591,4598 8593,4591 8595,4584 8598,4578 8603,4572 8608,4568 8614,4564 8621,4562 8627,4561 L 8736,4550 C 8738,4577 8742,4603 8749,4628 Z M 8471,4577 C 8478,4576 8485,4577 8491,4580 8497,4583 8503,4588 8507,4593 8511,4599 8514,4605 8514,4612 8515,4619 8514,4626 8511,4633 8508,4639 8504,4644 8498,4648 8492,4652 8486,4655 8479,4656 L 8321,4672 C 8314,4673 8307,4671 8301,4669 8294,4666 8289,4661 8285,4656 8281,4650 8278,4643 8277,4636 8277,4630 8278,4623 8281,4616 8283,4610 8288,4604 8294,4600 8299,4596 8306,4594 8313,4593 L 8471,4577 Z M 8156,4609 C 8163,4608 8170,4609 8176,4612 8183,4615 8188,4620 8192,4625 8196,4631 8199,4638 8199,4644 8200,4651 8199,4658 8196,4665 8193,4671 8189,4676 8183,4680 8178,4685 8171,4687 8164,4688 L 8006,4704 C 7999,4705 7992,4703 7986,4701 7979,4698 7974,4693 7970,4688 7966,4682 7963,4675 7963,4669 7962,4662 7963,4655 7966,4648 7969,4642 7973,4637 7979,4632 7984,4628 7991,4626 7998,4625 L 8156,4609 Z M 7841,4641 C 7848,4640 7855,4642 7862,4644 7868,4647 7873,4652 7877,4657 7881,4663 7884,4670 7885,4676 7885,4683 7884,4690 7881,4697 7879,4703 7874,4708 7868,4713 7863,4717 7856,4719 7849,4720 L 7691,4736 C 7684,4737 7677,4736 7671,4733 7665,4730 7659,4725 7655,4720 7651,4714 7648,4708 7648,4701 7647,4694 7648,4687 7651,4680 7654,4674 7658,4669 7664,4665 7670,4660 7676,4658 7683,4657 L 7841,4641 Z M 7527,4673 C 7533,4672 7540,4674 7547,4676 7553,4679 7559,4684 7563,4689 7567,4695 7569,4702 7570,4709 7571,4715 7569,4722 7567,4729 7564,4735 7559,4741 7554,4745 7548,4749 7541,4751 7535,4752 L 7376,4768 C 7369,4769 7362,4768 7356,4765 7350,4762 7344,4757 7340,4752 7336,4746 7334,4740 7333,4733 7332,4726 7333,4719 7336,4712 7339,4706 7344,4701 7349,4697 7355,4693 7361,4690 7368,4689 L 7527,4673 Z M 7212,4705 C 7219,4705 7226,4706 7232,4709 7238,4711 7244,4716 7248,4721 7252,4727 7254,4734 7255,4741 7256,4748 7255,4754 7252,4761 7249,4767 7245,4773 7239,4777 7233,4781 7227,4783 7220,4784 L 7062,4800 C 7055,4801 7048,4800 7041,4797 7035,4794 7030,4789 7025,4784 7021,4778 7019,4772 7018,4765 7018,4758 7019,4751 7021,4745 7024,4738 7029,4733 7034,4729 7040,4725 7047,4722 7054,4721 L 7212,4705 Z M 6897,4737 C 6904,4737 6911,4738 6917,4741 6923,4743 6929,4748 6933,4754 6937,4759 6940,4766 6940,4773 6941,4780 6940,4787 6937,4793 6934,4799 6930,4805 6924,4809 6918,4813 6912,4815 6905,4816 L 6747,4832 C 6740,4833 6733,4832 6727,4829 6720,4826 6715,4822 6711,4816 6707,4810 6704,4804 6703,4797 6703,4790 6704,4783 6707,4777 6710,4770 6714,4765 6720,4761 6725,4757 6732,4754 6739,4753 L 6897,4737 Z M 6582,4769 C 6589,4769 6596,4770 6602,4773 6609,4775 6614,4780 6618,4786 6622,4791 6625,4798 6626,4805 6626,4812 6625,4819 6622,4825 6619,4831 6615,4837 6609,4841 6604,4845 6597,4847 6590,4848 L 6432,4864 C 6425,4865 6418,4864 6412,4861 6405,4858 6400,4854 6396,4848 6392,4842 6389,4836 6389,4829 6388,4822 6389,4815 6392,4809 6395,4802 6399,4797 6405,4793 6410,4789 6417,4786 6424,4785 L 6582,4769 Z M 6267,4801 C 6274,4801 6281,4802 6288,4805 6294,4808 6299,4812 6303,4818 6308,4823 6310,4830 6311,4837 6311,4844 6310,4851 6307,4857 6305,4863 6300,4869 6295,4873 6289,4877 6282,4879 6275,4880 L 6117,4896 C 6110,4897 6103,4896 6097,4893 6091,4890 6085,4886 6081,4880 6077,4874 6075,4868 6074,4861 6073,4854 6074,4847 6077,4841 6080,4834 6084,4829 6090,4825 6096,4821 6102,4818 6109,4818 L 6267,4801 Z M 5953,4834 C 5959,4833 5966,4834 5973,4837 5979,4840 5985,4844 5989,4850 5993,4855 5995,4862 5996,4869 5997,4876 5996,4883 5993,4889 5990,4895 5985,4901 5980,4905 5974,4909 5967,4912 5961,4912 L 5802,4928 C 5796,4929 5789,4928 5782,4925 5776,4922 5770,4918 5766,4912 5762,4906 5760,4900 5759,4893 5758,4886 5759,4879 5762,4873 5765,4866 5770,4861 5775,4857 5781,4853 5787,4850 5794,4850 L 5953,4834 Z M 5638,4866 C 5645,4865 5652,4866 5658,4869 5664,4872 5670,4876 5674,4882 5678,4887 5680,4894 5681,4901 5682,4908 5681,4915 5678,4921 5675,4927 5671,4933 5665,4937 5659,4941 5653,4944 5646,4944 L 5488,4960 C 5481,4961 5474,4960 5467,4957 5461,4954 5456,4950 5452,4944 5447,4939 5445,4932 5444,4925 5444,4918 5445,4911 5448,4905 5450,4898 5455,4893 5460,4889 5466,4885 5473,4882 5480,4882 L 5638,4866 Z M 5323,4898 C 5330,4897 5337,4898 5343,4901 5350,4904 5355,4908 5359,4914 5363,4919 5366,4926 5366,4933 5367,4940 5366,4947 5363,4953 5360,4960 5356,4965 5350,4969 5345,4973 5338,4976 5331,4976 L 5173,4992 C 5166,4993 5159,4992 5153,4989 5146,4986 5141,4982 5137,4976 5133,4971 5130,4964 5129,4957 5129,4950 5130,4943 5133,4937 5136,4931 5140,4925 5146,4921 5151,4917 5158,4914 5165,4914 L 5323,4898 Z M 5008,4930 C 5015,4929 5022,4930 5028,4933 5035,4936 5040,4940 5044,4946 5048,4952 5051,4958 5052,4965 5052,4972 5051,4979 5048,4985 5045,4992 5041,4997 5035,5001 5030,5005 5023,5008 5016,5008 L 4858,5025 C 4851,5025 4844,5024 4838,5021 4831,5018 4826,5014 4822,5008 4818,5003 4815,4996 4815,4989 4814,4982 4815,4975 4818,4969 4821,4963 4825,4957 4831,4953 4837,4949 4843,4947 4850,4946 L 5008,4930 Z M 4693,4962 C 4700,4961 4707,4962 4714,4965 4720,4968 4725,4972 4729,4978 4734,4984 4736,4990 4737,4997 4737,5004 4736,5011 4734,5017 4731,5024 4726,5029 4721,5033 4715,5037 4708,5040 4701,5040 L 4543,5057 C 4536,5057 4529,5056 4523,5053 4517,5050 4511,5046 4507,5040 4503,5035 4501,5028 4500,5021 4499,5014 4500,5007 4503,5001 4506,4995 4510,4989 4516,4985 4522,4981 4528,4979 4535,4978 L 4693,4962 Z M 4379,4994 C 4386,4993 4393,4994 4399,4997 4405,5000 4411,5004 4415,5010 4419,5016 4421,5022 4422,5029 4423,5036 4422,5043 4419,5049 4416,5056 4411,5061 4406,5065 4400,5069 4394,5072 4387,5073 L 4228,5089 C 4222,5089 4215,5088 4208,5085 4202,5083 4196,5078 4192,5072 4188,5067 4186,5060 4185,5053 4184,5046 4186,5039 4188,5033 4191,5027 4196,5021 4201,5017 4207,5013 4214,5011 4220,5010 L 4379,4994 Z M 4064,5026 C 4071,5025 4078,5026 4084,5029 4090,5032 4096,5036 4100,5042 4104,5048 4106,5054 4107,5061 4108,5068 4107,5075 4104,5081 4101,5088 4097,5093 4091,5097 4085,5101 4079,5104 4072,5105 L 3914,5121 C 3907,5121 3900,5120 3893,5117 3887,5115 3882,5110 3878,5104 3874,5099 3871,5092 3870,5085 3870,5078 3871,5071 3874,5065 3876,5059 3881,5053 3887,5049 3892,5045 3899,5043 3906,5042 L 4064,5026 Z M 3749,5058 C 3756,5057 3763,5058 3769,5061 3776,5064 3781,5069 3785,5074 3789,5080 3792,5086 3792,5093 3793,5100 3792,5107 3789,5113 3786,5120 3782,5125 3776,5129 3771,5133 3764,5136 3757,5137 L 3599,5153 C 3592,5153 3585,5152 3579,5149 3572,5147 3567,5142 3563,5137 3559,5131 3556,5124 3556,5117 3555,5111 3556,5104 3559,5097 3562,5091 3566,5085 3572,5081 3577,5077 3584,5075 3591,5074 L 3749,5058 Z M 3434,5090 C 3441,5089 3448,5090 3454,5093 3461,5096 3466,5101 3470,5106 3474,5112 3477,5118 3478,5125 3478,5132 3477,5139 3474,5146 3472,5152 3467,5157 3461,5161 3456,5165 3449,5168 3442,5169 L 3284,5185 C 3277,5186 3270,5184 3264,5182 3258,5179 3252,5174 3248,5169 3244,5163 3241,5156 3241,5149 3240,5143 3241,5136 3244,5129 3247,5123 3251,5117 3257,5113 3263,5109 3269,5107 3276,5106 L 3434,5090 Z M 3119,5122 C 3126,5121 3133,5122 3140,5125 3146,5128 3151,5133 3156,5138 3160,5144 3162,5150 3163,5157 3164,5164 3162,5171 3160,5178 3157,5184 3152,5189 3147,5193 3141,5198 3134,5200 3127,5201 L 2969,5217 C 2962,5218 2955,5216 2949,5214 2943,5211 2937,5206 2933,5201 2929,5195 2927,5188 2926,5182 2925,5175 2926,5168 2929,5161 2932,5155 2937,5150 2942,5145 2948,5141 2954,5139 2961,5138 L 3119,5122 Z M 2805,5154 C 2812,5153 2819,5155 2825,5157 2831,5160 2837,5165 2841,5170 2845,5176 2847,5183 2848,5189 2849,5196 2848,5203 2845,5210 2842,5216 2837,5221 2832,5226 2826,5230 2820,5232 2813,5233 L 2655,5249 C 2648,5250 2641,5249 2634,5246 2628,5243 2622,5238 2618,5233 2614,5227 2612,5221 2611,5214 2610,5207 2612,5200 2614,5193 2617,5187 2622,5182 2627,5178 2633,5173 2640,5171 2647,5170 L 2805,5154 Z M 2490,5186 C 2497,5185 2504,5187 2510,5189 2516,5192 2522,5197 2526,5202 2530,5208 2533,5215 2533,5222 2534,5228 2533,5235 2530,5242 2527,5248 2523,5254 2517,5258 2511,5262 2505,5264 2498,5265 L 2340,5281 C 2333,5282 2326,5281 2320,5278 2313,5275 2308,5270 2304,5265 2300,5259 2297,5253 2296,5246 2296,5239 2297,5232 2300,5225 2302,5219 2307,5214 2313,5210 2318,5206 2325,5203 2332,5202 L 2490,5186 Z M 2175,5218 C 2182,5218 2189,5219 2195,5222 2202,5224 2207,5229 2211,5234 2215,5240 2218,5247 2218,5254 2219,5260 2218,5267 2215,5274 2212,5280 2208,5286 2202,5290 2197,5294 2190,5296 2183,5297 L 2025,5313 C 2018,5314 2011,5313 2005,5310 1998,5307 1993,5302 1989,5297 1985,5291 1982,5285 1982,5278 1981,5271 1982,5264 1985,5258 1988,5251 1992,5246 1998,5242 2003,5238 2010,5235 2017,5234 L 2175,5218 Z M 1860,5250 C 1867,5250 1874,5251 1881,5254 1887,5256 1892,5261 1896,5267 1900,5272 1903,5279 1904,5286 1904,5293 1903,5300 1900,5306 1898,5312 1893,5318 1887,5322 1882,5326 1875,5328 1868,5329 L 1710,5345 C 1703,5346 1696,5345 1690,5342 1684,5339 1678,5335 1674,5329 1670,5323 1667,5317 1667,5310 1666,5303 1667,5296 1670,5290 1673,5283 1677,5278 1683,5274 1689,5270 1695,5267 1702,5266 L 1860,5250 Z M 1546,5282 C 1552,5282 1559,5283 1566,5286 1572,5288 1578,5293 1582,5299 1586,5304 1588,5311 1589,5318 1590,5325 1588,5332 1586,5338 1583,5344 1578,5350 1573,5354 1567,5358 1560,5360 1554,5361 L 1395,5377 C 1388,5378 1381,5377 1375,5374 1369,5371 1363,5367 1359,5361 1355,5355 1353,5349 1352,5342 1351,5335 1352,5328 1355,5322 1358,5315 1363,5310 1368,5306 1374,5302 1380,5299 1387,5298 L 1546,5282 Z M 1231,5314 C 1238,5314 1245,5315 1251,5318 1257,5321 1263,5325 1267,5331 1271,5336 1273,5343 1274,5350 1275,5357 1274,5364 1271,5370 1268,5376 1264,5382 1258,5386 1252,5390 1246,5392 1239,5393 L 1081,5409 C 1074,5410 1067,5409 1060,5406 1054,5403 1049,5399 1044,5393 1040,5387 1038,5381 1037,5374 1037,5367 1038,5360 1040,5354 1043,5347 1048,5342 1053,5338 1059,5334 1066,5331 1073,5331 L 1231,5314 Z"/>
         </g>
        </g>
        <g class="com.sun.star.drawing.ClosedBezierShape">
         <g id="id24">
          <rect class="BoundingBox" stroke="none" fill="none" x="7400" y="4847" width="1568" height="2254"/>
          <path fill="rgb(255,255,255)" stroke="none" d="M 8935,4874 C 8945,4878 8956,4883 8967,4887 L 8902,4983 C 8898,4989 8893,4993 8885,4997 8878,5000 8870,5002 8862,5002 8854,5003 8846,5001 8839,4998 8831,4995 8825,4990 8821,4984 8817,4979 8814,4972 8814,4966 8814,4959 8816,4952 8820,4947 L 8886,4848 C 8902,4857 8918,4866 8935,4874 Z M 8731,5079 C 8734,5073 8740,5068 8747,5065 8754,5061 8762,5059 8771,5059 8779,5059 8787,5061 8794,5064 8801,5067 8808,5071 8812,5077 8816,5083 8819,5089 8819,5096 8819,5103 8817,5109 8813,5115 L 8723,5249 C 8719,5254 8713,5259 8706,5263 8699,5266 8691,5268 8683,5268 8675,5268 8667,5267 8659,5264 8652,5261 8646,5256 8642,5250 8637,5245 8635,5238 8635,5231 8635,5225 8637,5218 8640,5212 L 8731,5079 Z M 8551,5345 C 8555,5339 8561,5334 8568,5330 8575,5327 8583,5325 8591,5325 8600,5325 8608,5326 8615,5329 8622,5333 8628,5337 8633,5343 8637,5349 8639,5355 8640,5362 8640,5368 8638,5375 8634,5381 L 8544,5514 C 8540,5520 8534,5525 8527,5529 8520,5532 8512,5534 8504,5534 8496,5534 8487,5533 8480,5530 8473,5526 8467,5522 8462,5516 8458,5510 8456,5504 8456,5497 8455,5491 8457,5484 8461,5478 L 8551,5345 Z M 8372,5610 C 8376,5605 8382,5600 8389,5596 8396,5593 8404,5591 8412,5591 8420,5591 8429,5592 8436,5595 8443,5598 8449,5603 8453,5609 8458,5614 8460,5621 8460,5628 8461,5634 8459,5641 8455,5647 L 8365,5780 C 8361,5786 8355,5791 8348,5794 8341,5798 8333,5800 8325,5800 8316,5800 8308,5798 8301,5795 8294,5792 8288,5788 8283,5782 8279,5776 8277,5770 8276,5763 8276,5756 8278,5750 8282,5744 L 8372,5610 Z M 8193,5876 C 8197,5870 8203,5866 8210,5862 8217,5859 8225,5857 8233,5857 8241,5856 8249,5858 8257,5861 8264,5864 8270,5869 8274,5875 8279,5880 8281,5887 8281,5893 8281,5900 8279,5907 8275,5912 L 8185,6046 C 8181,6052 8176,6057 8169,6060 8162,6064 8154,6066 8145,6066 8137,6066 8129,6064 8122,6061 8114,6058 8108,6053 8104,6048 8100,6042 8097,6036 8097,6029 8097,6022 8099,6016 8103,6010 L 8193,5876 Z M 8014,6142 C 8018,6136 8023,6131 8030,6128 8037,6124 8045,6123 8054,6122 8062,6122 8070,6124 8077,6127 8085,6130 8091,6135 8095,6140 8099,6146 8102,6153 8102,6159 8102,6166 8100,6172 8096,6178 L 8006,6312 C 8002,6318 7996,6322 7989,6326 7982,6329 7974,6331 7966,6332 7958,6332 7950,6330 7942,6327 7935,6324 7929,6319 7925,6313 7921,6308 7918,6301 7918,6295 7918,6288 7920,6282 7924,6276 L 8014,6142 Z M 7834,6408 C 7838,6402 7844,6397 7851,6394 7858,6390 7866,6388 7875,6388 7883,6388 7891,6390 7898,6393 7905,6396 7911,6401 7916,6406 7920,6412 7922,6418 7923,6425 7923,6432 7921,6438 7917,6444 L 7827,6578 C 7823,6583 7817,6588 7810,6592 7803,6595 7795,6597 7787,6597 7779,6597 7771,6596 7763,6593 7756,6590 7750,6585 7746,6579 7741,6574 7739,6567 7739,6561 7739,6554 7740,6547 7744,6541 L 7834,6408 Z M 7655,6674 C 7659,6668 7665,6663 7672,6660 7679,6656 7687,6654 7695,6654 7704,6654 7712,6655 7719,6659 7726,6662 7732,6666 7737,6672 7741,6678 7743,6684 7743,6691 7744,6697 7742,6704 7738,6710 L 7648,6843 C 7644,6849 7638,6854 7631,6858 7624,6861 7616,6863 7608,6863 7599,6863 7591,6862 7584,6859 7577,6855 7571,6851 7566,6845 7562,6839 7560,6833 7560,6826 7559,6820 7561,6813 7565,6807 L 7655,6674 Z M 7476,6940 C 7480,6934 7486,6929 7493,6925 7500,6922 7508,6920 7516,6920 7524,6920 7532,6921 7540,6924 7547,6928 7553,6932 7557,6938 7562,6943 7564,6950 7564,6957 7564,6963 7563,6970 7559,6976 L 7488,7080 C 7484,7086 7479,7091 7472,7094 7464,7098 7456,7100 7448,7100 7440,7100 7432,7098 7425,7095 7417,7092 7411,7087 7407,7082 7403,7076 7400,7070 7400,7063 7400,7056 7402,7050 7406,7044 L 7476,6940 Z"/>
         </g>
        </g>
       </g>
      </g>
     </g>
    </g>
   </g>
  </g>
 </g>
</svg>