<?xml version="1.0" encoding="UTF-8"?>
<!DOCTYPE svg PUBLIC "-//W3C//DTD SVG 1.1//EN" "http://www.w3.org/Graphics/SVG/1.1/DTD/svg11.dtd">
<svg version="1.2" width="100mm" height="100mm" viewBox="0 0 10000 10000" preserveAspectRatio="xMidYMid" fill-rule="evenodd" stroke-width="28.222" stroke-linejoin="round" xmlns="http://www.w3.org/2000/svg" xmlns:ooo="http://xml.openoffice.org/svg/export" xmlns:xlink="http://www.w3.org/1999/xlink" xmlns:presentation="http://sun.com/xmlns/staroffice/presentation" xmlns:smil="http://www.w3.org/2001/SMIL20/" xmlns:anim="urn:oasis:names:tc:opendocument:xmlns:animation:1.0" xml:space="preserve">
 <defs class="ClipPathGroup">
  <clipPath id="presentation_clip_path" clipPathUnits="userSpaceOnUse">
   <rect x="0" y="0" width="10000" height="10000"/>
  </clipPath>
  <clipPath id="presentation_clip_path_shrink" clipPathUnits="userSpaceOnUse">
   <rect x="10" y="10" width="9980" height="9980"/>
  </clipPath>
 </defs>
 <defs class="TextShapeIndex">
  <g ooo:slide="id1" ooo:id-list="id3 id4 id5 id6 id7 id8 id9 id10 id11 id12 id13 id14 id15 id16 id17 id18 id19 id20 id21 id22 id23 id24 id25 id26 id27 id28 id29 id30 id31 id32 id33 id34 id35 id36"/>
 </defs>
 <defs class="EmbeddedBulletChars">
  <g id="bullet-char-template-57356" transform="scale(0.00048828125,-0.00048828125)">
   <path d="M 580,1141 L 1163,571 580,0 -4,571 580,1141 Z"/>
  </g>
  <g id="bullet-char-template-57354" transform="scale(0.00048828125,-0.00048828125)">
   <path d="M 8,1128 L 1137,1128 1137,0 8,0 8,1128 Z"/>
  </g>
  <g id="bullet-char-template-10146" transform="scale(0.00048828125,-0.00048828125)">
   <path d="M 174,0 L 602,739 174,1481 1456,739 174,0 Z M 1358,739 L 309,1346 659,739 1358,739 Z"/>
  </g>
  <g id="bullet-char-template-10132" transform="scale(0.00048828125,-0.00048828125)">
   <path d="M 2015,739 L 1276,0 717,0 1260,543 174,543 174,936 1260,936 717,1481 1274,1481 2015,739 Z"/>
  </g>
  <g id="bullet-char-template-10007" transform="scale(0.00048828125,-0.00048828125)">
   <path d="M 0,-2 C -7,14 -16,27 -25,37 L 356,567 C 262,823 215,952 215,954 215,979 228,992 255,992 264,992 276,990 289,987 310,991 331,999 354,1012 L 381,999 492,748 772,1049 836,1024 860,1049 C 881,1039 901,1025 922,1006 886,937 835,863 770,784 769,783 710,716 594,584 L 774,223 C 774,196 753,168 711,139 L 727,119 C 717,90 699,76 672,76 641,76 570,178 457,381 L 164,-76 C 142,-110 111,-127 72,-127 30,-127 9,-110 8,-76 1,-67 -2,-52 -2,-32 -2,-23 -1,-13 0,-2 Z"/>
  </g>
  <g id="bullet-char-template-10004" transform="scale(0.00048828125,-0.00048828125)">
   <path d="M 285,-33 C 182,-33 111,30 74,156 52,228 41,333 41,471 41,549 55,616 82,672 116,743 169,778 240,778 293,778 328,747 346,684 L 369,508 C 377,444 397,411 428,410 L 1163,1116 C 1174,1127 1196,1133 1229,1133 1271,1133 1292,1118 1292,1087 L 1292,965 C 1292,929 1282,901 1262,881 L 442,47 C 390,-6 338,-33 285,-33 Z"/>
  </g>
  <g id="bullet-char-template-9679" transform="scale(0.00048828125,-0.00048828125)">
   <path d="M 813,0 C 632,0 489,54 383,161 276,268 223,411 223,592 223,773 276,916 383,1023 489,1130 632,1184 813,1184 992,1184 1136,1130 1245,1023 1353,916 1407,772 1407,592 1407,412 1353,268 1245,161 1136,54 992,0 813,0 Z"/>
  </g>
  <g id="bullet-char-template-8226" transform="scale(0.00048828125,-0.00048828125)">
   <path d="M 346,457 C 273,457 209,483 155,535 101,586 74,649 74,723 74,796 101,859 155,911 209,963 273,989 346,989 419,989 480,963 531,910 582,859 608,796 608,723 608,648 583,586 532,535 482,483 420,457 346,457 Z"/>
  </g>
  <g id="bullet-char-template-8211" transform="scale(0.00048828125,-0.00048828125)">
   <path d="M -4,459 L 1135,459 1135,606 -4,606 -4,459 Z"/>
  </g>
  <g id="bullet-char-template-61548" transform="scale(0.00048828125,-0.00048828125)">
   <path d="M 173,740 C 173,903 231,1043 346,1159 462,1274 601,1332 765,1332 928,1332 1067,1274 1183,1159 1299,1043 1357,903 1357,740 1357,577 1299,437 1183,322 1067,206 928,148 765,148 601,148 462,206 346,322 231,437 173,577 173,740 Z"/>
  </g>
 </defs>
 <g>
  <g id="id2" class="Master_Slide">
   <g id="bg-id2" class="Background"/>
   <g id="bo-id2" class="BackgroundObjects"/>
  </g>
 </g>
 <g class="SlideGroup">
  <g>
   <g id="container-id1">
    <g id="id1" class="Slide" clip-path="url(#presentation_clip_path)">
     <g class="Page">
      <g class="Group">
       <g class="Group">
        <g class="com.sun.star.drawing.CustomShape">
         <g id="id3">
          <rect class="BoundingBox" stroke="none" fill="none" x="0" y="0" width="10002" height="10002"/>
          <path fill="rgb(28,82,127)" stroke="none" d="M 10001,5001 C 10001,5878 9770,6741 9331,7501 8892,8261 8261,8892 7501,9331 6741,9770 5878,10001 5001,10001 4123,10001 3260,9770 2500,9331 1740,8892 1109,8261 670,7501 231,6741 0,5878 0,5001 0,4123 231,3260 670,2500 1109,1740 1740,1109 2500,670 3260,231 4123,0 5000,0 5878,0 6741,231 7501,670 8261,1109 8892,1740 9331,2500 9770,3260 10001,4123 10001,5000 L 10001,5001 Z"/>
         </g>
        </g>
       </g>
       <g class="com.sun.star.drawing.CustomShape">
        <g id="id4">
         <rect class="BoundingBox" stroke="none" fill="none" x="0" y="0" width="10002" height="10002"/>
         <path fill="rgb(255,255,255)" fill-opacity="0.188" stroke="rgb(255,255,255)" stroke-opacity="0.188" d="M 10001,5001 C 10001,5878 9770,6741 9331,7501 8892,8261 8261,8892 7501,9331 6741,9770 5878,10001 5001,10001 4123,10001 3260,9770 2500,9331 1740,8892 1109,8261 670,7501 231,6741 0,5878 0,5001 0,4123 231,3260 670,2500 1109,1740 1740,1109 2500,670 3260,231 4123,0 5000,0 5878,0 6741,231 7501,670 8261,1109 8892,1740 9331,2500 9770,3260 10001,4123 10001,5000 L 10001,5001 Z"/>
        </g>
       </g>
       <g class="Group">
        <g class="com.sun.star.drawing.OpenBezierShape">
         <g id="id5">
          <rect class="BoundingBox" stroke="none" fill="none" x="5488" y="245" width="1538" height="9651"/>
          <path fill="none" stroke="rgb(28,82,127)" stroke-width="159" stroke-linejoin="round" stroke-linecap="round" d="M 5568,325 C 8561,5818 5742,9815 5742,9815"/>
         </g>
        </g>
        <g class="com.sun.star.drawing.OpenBezierShape">
         <g id="id6">
          <rect class="BoundingBox" stroke="none" fill="none" x="5928" y="245" width="3178" height="9468"/>
          <path fill="none" stroke="rgb(28,82,127)" stroke-width="159" stroke-linejoin="round" stroke-linecap="round" d="M 6008,325 C 12567,5713 6389,9632 6389,9632"/>
         </g>
        </g>
        <g class="com.sun.star.drawing.OpenBezierShape">
         <g id="id7">
          <rect class="BoundingBox" stroke="none" fill="none" x="3044" y="245" width="1538" height="9651"/>
          <path fill="none" stroke="rgb(28,82,127)" stroke-width="159" stroke-linejoin="round" stroke-linecap="round" d="M 4501,325 C 1508,5818 4326,9815 4326,9815"/>
         </g>
        </g>
        <g class="com.sun.star.drawing.OpenBezierShape">
         <g id="id8">
          <rect class="BoundingBox" stroke="none" fill="none" x="964" y="245" width="3178" height="9469"/>
          <path fill="none" stroke="rgb(28,82,127)" stroke-width="159" stroke-linejoin="round" stroke-linecap="round" d="M 4061,325 C -2498,5712 3680,9633 3680,9633"/>
         </g>
        </g>
        <g class="com.sun.star.drawing.LineShape">
         <g id="id9">
          <rect class="BoundingBox" stroke="none" fill="none" x="4930" y="63" width="161" height="9833"/>
          <path fill="none" stroke="rgb(28,82,127)" stroke-width="159" stroke-linejoin="round" stroke-linecap="round" d="M 5010,143 L 5010,9815"/>
         </g>
        </g>
        <g class="com.sun.star.drawing.OpenBezierShape">
         <g id="id10">
          <rect class="BoundingBox" stroke="none" fill="none" x="119" y="5434" width="9650" height="1538"/>
          <path fill="none" stroke="rgb(28,82,127)" stroke-width="159" stroke-linejoin="round" stroke-linecap="round" d="M 9688,5514 C 4195,8507 199,5688 199,5688"/>
         </g>
        </g>
        <g class="com.sun.star.drawing.OpenBezierShape">
         <g id="id11">
          <rect class="BoundingBox" stroke="none" fill="none" x="301" y="5874" width="9468" height="3178"/>
          <path fill="none" stroke="rgb(28,82,127)" stroke-width="159" stroke-linejoin="round" stroke-linecap="round" d="M 9688,5954 C 4300,12513 381,6335 381,6335"/>
         </g>
        </g>
        <g class="com.sun.star.drawing.OpenBezierShape">
         <g id="id12">
          <rect class="BoundingBox" stroke="none" fill="none" x="118" y="2990" width="9651" height="1538"/>
          <path fill="none" stroke="rgb(28,82,127)" stroke-width="159" stroke-linejoin="round" stroke-linecap="round" d="M 9688,4447 C 4195,1454 198,4272 198,4272"/>
         </g>
        </g>
        <g class="com.sun.star.drawing.OpenBezierShape">
         <g id="id13">
          <rect class="BoundingBox" stroke="none" fill="none" x="301" y="910" width="9468" height="3178"/>
          <path fill="none" stroke="rgb(28,82,127)" stroke-width="159" stroke-linejoin="round" stroke-linecap="round" d="M 9688,4007 C 4301,-2552 381,3626 381,3626"/>
         </g>
        </g>
        <g class="com.sun.star.drawing.LineShape">
         <g id="id14">
          <rect class="BoundingBox" stroke="none" fill="none" x="119" y="4876" width="9832" height="161"/>
          <path fill="none" stroke="rgb(28,82,127)" stroke-width="159" stroke-linejoin="round" stroke-linecap="round" d="M 9870,4956 L 199,4956"/>
         </g>
        </g>
       </g>
       <g class="Group">
        <g class="com.sun.star.drawing.PolyPolygonShape">
         <g id="id15">
          <rect class="BoundingBox" stroke="none" fill="none" x="121" y="4023" width="1865" height="1711"/>
          <path fill="rgb(28,82,127)" stroke="none" d="M 136,5718 L 543,5718 543,4774 891,5460 1209,5460 1564,4730 1564,5718 1971,5718 1971,4038 1571,4038 1070,5019 540,4038 136,4038 136,5718 Z"/>
          <path fill="none" stroke="rgb(255,255,255)" stroke-width="28" stroke-linejoin="round" d="M 136,5718 L 543,5718 543,4774 891,5460 1209,5460 1564,4730 1564,5718 1971,5718 1971,4038 1571,4038 1070,5019 540,4038 136,4038 136,5718 Z"/>
         </g>
        </g>
        <g class="com.sun.star.drawing.PolyPolygonShape">
         <g id="id16">
          <rect class="BoundingBox" stroke="none" fill="none" x="2256" y="4023" width="1342" height="1711"/>
          <path fill="rgb(28,82,127)" stroke="none" d="M 2270,5718 L 2689,5718 2689,5225 2826,5225 2911,5222 2990,5213 3066,5200 3137,5180 3203,5155 3266,5126 3323,5092 3375,5053 3422,5010 3463,4962 3498,4911 3528,4855 3552,4796 3568,4733 3578,4667 3582,4597 3580,4533 3571,4473 3555,4416 3536,4362 3509,4312 3479,4266 3442,4223 3400,4185 3353,4152 3302,4123 3245,4096 3185,4076 3120,4060 3050,4048 2975,4041 2896,4038 2270,4038 2270,5718 Z M 2863,4406 L 2895,4407 2924,4410 2952,4415 2978,4422 3004,4432 3028,4442 3048,4455 3069,4470 3086,4486 3101,4504 3115,4523 3126,4543 3134,4565 3142,4588 3145,4613 3146,4638 3145,4663 3142,4688 3137,4709 3128,4730 3120,4749 3108,4768 3095,4784 3080,4799 3064,4812 3045,4823 3025,4834 3003,4842 2980,4848 2955,4853 2930,4855 2902,4857 2689,4857 2689,4406 2863,4406 Z"/>
          <path fill="none" stroke="rgb(255,255,255)" stroke-width="28" stroke-linejoin="round" d="M 2270,5718 L 2689,5718 2689,5225 2826,5225 2911,5222 2990,5213 3066,5200 3137,5180 3203,5155 3266,5126 3323,5092 3375,5053 3422,5010 3463,4962 3498,4911 3528,4855 3552,4796 3568,4733 3578,4667 3582,4597 3580,4533 3571,4473 3555,4416 3536,4362 3509,4312 3479,4266 3442,4223 3400,4185 3353,4152 3302,4123 3245,4096 3185,4076 3120,4060 3050,4048 2975,4041 2896,4038 2270,4038 2270,5718 Z"/>
          <path fill="none" stroke="rgb(255,255,255)" stroke-width="28" stroke-linejoin="round" d="M 2863,4406 L 2895,4407 2924,4410 2952,4415 2978,4422 3004,4432 3028,4442 3048,4455 3069,4470 3086,4486 3101,4504 3115,4523 3126,4543 3134,4565 3142,4588 3145,4613 3146,4638 3145,4663 3142,4688 3137,4709 3128,4730 3120,4749 3108,4768 3095,4784 3080,4799 3064,4812 3045,4823 3025,4834 3003,4842 2980,4848 2955,4853 2930,4855 2902,4857 2689,4857 2689,4406 2863,4406 Z"/>
         </g>
        </g>
        <g class="com.sun.star.drawing.PolyPolygonShape">
         <g id="id17">
          <rect class="BoundingBox" stroke="none" fill="none" x="3569" y="4023" width="1483" height="1711"/>
          <path fill="rgb(28,82,127)" stroke="none" d="M 4102,5718 L 4514,5718 4514,4406 5036,4406 5036,4038 3584,4038 3584,4406 4102,4406 4102,5718 Z"/>
          <path fill="none" stroke="rgb(255,255,255)" stroke-width="28" stroke-linejoin="round" d="M 4102,5718 L 4514,5718 4514,4406 5036,4406 5036,4038 3584,4038 3584,4406 4102,4406 4102,5718 Z"/>
         </g>
        </g>
        <g class="com.sun.star.drawing.PolyPolygonShape">
         <g id="id18">
          <rect class="BoundingBox" stroke="none" fill="none" x="5167" y="4023" width="1465" height="1711"/>
          <path fill="rgb(28,82,127)" stroke="none" d="M 5181,5718 L 5600,5718 5600,5145 5787,5145 6112,5718 6616,5718 6197,5057 6232,5036 6264,5015 6296,4991 6324,4966 6352,4939 6377,4911 6399,4880 6419,4848 6438,4816 6454,4781 6469,4745 6479,4708 6489,4669 6495,4629 6499,4588 6501,4546 6498,4488 6489,4431 6476,4380 6458,4330 6434,4285 6406,4242 6372,4204 6334,4171 6292,4140 6245,4114 6194,4091 6137,4072 6077,4057 6013,4047 5946,4039 5873,4038 5181,4038 5181,5718 Z M 5815,4403 L 5844,4404 5872,4407 5896,4412 5921,4418 5943,4425 5964,4434 5982,4444 5999,4457 6015,4470 6028,4486 6038,4502 6048,4520 6055,4539 6060,4559 6063,4581 6064,4604 6064,4625 6061,4645 6057,4664 6053,4682 6045,4698 6036,4712 6026,4727 6015,4739 6003,4750 5988,4761 5972,4768 5955,4775 5937,4781 5917,4785 5896,4787 5873,4788 5600,4788 5600,4403 5815,4403 Z"/>
          <path fill="none" stroke="rgb(255,255,255)" stroke-width="28" stroke-linejoin="round" d="M 5181,5718 L 5600,5718 5600,5145 5787,5145 6112,5718 6616,5718 6197,5057 6232,5036 6264,5015 6296,4991 6324,4966 6352,4939 6377,4911 6399,4880 6419,4848 6438,4816 6454,4781 6469,4745 6479,4708 6489,4669 6495,4629 6499,4588 6501,4546 6498,4488 6489,4431 6476,4380 6458,4330 6434,4285 6406,4242 6372,4204 6334,4171 6292,4140 6245,4114 6194,4091 6137,4072 6077,4057 6013,4047 5946,4039 5873,4038 5181,4038 5181,5718 Z"/>
          <path fill="none" stroke="rgb(255,255,255)" stroke-width="28" stroke-linejoin="round" d="M 5815,4403 L 5844,4404 5872,4407 5896,4412 5921,4418 5943,4425 5964,4434 5982,4444 5999,4457 6015,4470 6028,4486 6038,4502 6048,4520 6055,4539 6060,4559 6063,4581 6064,4604 6064,4625 6061,4645 6057,4664 6053,4682 6045,4698 6036,4712 6026,4727 6015,4739 6003,4750 5988,4761 5972,4768 5955,4775 5937,4781 5917,4785 5896,4787 5873,4788 5600,4788 5600,4403 5815,4403 Z"/>
         </g>
        </g>
        <g class="com.sun.star.drawing.PolyPolygonShape">
         <g id="id19">
          <rect class="BoundingBox" stroke="none" fill="none" x="6555" y="4023" width="1736" height="1711"/>
          <path fill="rgb(28,82,127)" stroke="none" d="M 6569,5718 L 7018,5718 7118,5372 7705,5372 7813,5718 8276,5718 7702,4038 7168,4038 6569,5718 Z M 7232,4994 L 7407,4409 7588,4994 7232,4994 Z"/>
          <path fill="none" stroke="rgb(255,255,255)" stroke-width="28" stroke-linejoin="round" d="M 6569,5718 L 7018,5718 7118,5372 7705,5372 7813,5718 8276,5718 7702,4038 7168,4038 6569,5718 Z"/>
          <path fill="none" stroke="rgb(255,255,255)" stroke-width="28" stroke-linejoin="round" d="M 7232,4994 L 7407,4409 7588,4994 7232,4994 Z"/>
         </g>
        </g>
        <g class="com.sun.star.drawing.PolyPolygonShape">
         <g id="id20">
          <rect class="BoundingBox" stroke="none" fill="none" x="8289" y="4000" width="1435" height="1759"/>
          <path fill="rgb(28,82,127)" stroke="none" d="M 9168,5743 L 9236,5740 9307,5734 9378,5724 9447,5709 9514,5693 9577,5673 9634,5650 9686,5625 9594,5323 9556,5334 9517,5345 9476,5353 9434,5361 9393,5368 9350,5372 9309,5374 9270,5375 9207,5372 9150,5366 9095,5355 9045,5339 8997,5320 8953,5295 8914,5267 8879,5235 8847,5199 8819,5159 8794,5117 8775,5070 8759,5019 8749,4966 8742,4909 8739,4850 8742,4794 8747,4742 8758,4693 8771,4647 8788,4606 8810,4568 8835,4533 8863,4502 8895,4474 8931,4451 8971,4431 9013,4415 9058,4401 9108,4393 9161,4387 9216,4385 9266,4385 9317,4390 9368,4394 9419,4401 9467,4410 9512,4422 9555,4434 9591,4448 9708,4118 9647,4093 9587,4073 9527,4055 9466,4041 9406,4029 9345,4020 9283,4016 9220,4015 9121,4019 9026,4031 8936,4050 8850,4077 8769,4111 8693,4153 8623,4200 8561,4255 8502,4315 8451,4381 8407,4454 8371,4531 8342,4615 8321,4702 8308,4794 8304,4891 8308,4985 8320,5074 8340,5159 8366,5239 8401,5315 8442,5385 8491,5450 8545,5508 8604,5562 8670,5609 8742,5648 8818,5682 8898,5708 8984,5727 9074,5739 9168,5743 Z"/>
          <path fill="none" stroke="rgb(255,255,255)" stroke-width="28" stroke-linejoin="round" d="M 9168,5743 L 9236,5740 9307,5734 9378,5724 9447,5709 9514,5693 9577,5673 9634,5650 9686,5625 9594,5323 9556,5334 9517,5345 9476,5353 9434,5361 9393,5368 9350,5372 9309,5374 9270,5375 9207,5372 9150,5366 9095,5355 9045,5339 8997,5320 8953,5295 8914,5267 8879,5235 8847,5199 8819,5159 8794,5117 8775,5070 8759,5019 8749,4966 8742,4909 8739,4850 8742,4794 8747,4742 8758,4693 8771,4647 8788,4606 8810,4568 8835,4533 8863,4502 8895,4474 8931,4451 8971,4431 9013,4415 9058,4401 9108,4393 9161,4387 9216,4385 9266,4385 9317,4390 9368,4394 9419,4401 9467,4410 9512,4422 9555,4434 9591,4448 9708,4118 9647,4093 9587,4073 9527,4055 9466,4041 9406,4029 9345,4020 9283,4016 9220,4015 9121,4019 9026,4031 8936,4050 8850,4077 8769,4111 8693,4153 8623,4200 8561,4255 8502,4315 8451,4381 8407,4454 8371,4531 8342,4615 8321,4702 8308,4794 8304,4891 8308,4985 8320,5074 8340,5159 8366,5239 8401,5315 8442,5385 8491,5450 8545,5508 8604,5562 8670,5609 8742,5648 8818,5682 8898,5708 8984,5727 9074,5739 9168,5743 Z"/>
         </g>
        </g>
       </g>
       <g class="Group">
        <g class="com.sun.star.drawing.CustomShape">
         <g id="id21">
          <rect class="BoundingBox" stroke="none" fill="none" x="1968" y="2756" width="630" height="663"/>
          <path fill="rgb(255,255,255)" stroke="none" d="M 2596,3013 C 2596,3070 2582,3129 2554,3184 2527,3240 2487,3290 2439,3329 2392,3369 2338,3396 2282,3409 2227,3422 2173,3420 2125,3403 2078,3386 2038,3354 2011,3312 1983,3269 1968,3217 1968,3160 1968,3104 1983,3045 2011,2989 2038,2934 2078,2884 2125,2844 2173,2805 2227,2777 2282,2764 2338,2751 2392,2754 2439,2771 2487,2788 2527,2819 2554,2862 2582,2904 2596,2957 2596,3013 L 2596,3013 Z"/>
         </g>
        </g>
        <g class="com.sun.star.drawing.ClosedBezierShape">
         <g id="id22">
          <rect class="BoundingBox" stroke="none" fill="none" x="2579" y="1678" width="4429" height="1214"/>
          <path fill="rgb(255,255,255)" stroke="none" d="M 2652,2770 C 2632,2745 2608,2725 2580,2709 L 2662,2669 2808,2602 2958,2539 3112,2477 3269,2417 3429,2358 3593,2305 3756,2252 3922,2203 4090,2155 4258,2113 4427,2073 4594,2036 4761,2004 4927,1976 5092,1949 5255,1927 5415,1908 5572,1894 5727,1884 5876,1877 6006,1875 6095,1679 7006,2015 5830,2266 5898,2115 5866,2114 5748,2113 5626,2113 5501,2121 5371,2129 5239,2140 5106,2157 4969,2174 4831,2196 4694,2221 4553,2249 4412,2279 4270,2312 4131,2348 3990,2388 3851,2428 3713,2471 3578,2518 3445,2566 3313,2615 3183,2668 3057,2722 2936,2776 2817,2834 2707,2890 C 2699,2844 2680,2804 2652,2770 Z"/>
         </g>
        </g>
       </g>
       <g class="Group">
        <g class="com.sun.star.drawing.CustomShape">
         <g id="id23">
          <rect class="BoundingBox" stroke="none" fill="none" x="3941" y="2893" width="767" height="686"/>
          <path fill="rgb(255,255,255)" stroke="none" d="M 4707,3236 C 4707,3296 4689,3355 4656,3407 4622,3459 4574,3502 4516,3532 4457,3562 4391,3578 4324,3578 4257,3578 4191,3562 4133,3532 4074,3502 4026,3459 3992,3407 3959,3355 3941,3296 3941,3236 3941,3175 3959,3116 3992,3064 4026,3012 4074,2969 4133,2939 4191,2909 4257,2893 4324,2893 4391,2893 4457,2909 4516,2939 4574,2969 4622,3012 4656,3064 4689,3116 4707,3175 4707,3235 L 4707,3236 Z"/>
         </g>
        </g>
        <g class="com.sun.star.drawing.ClosedBezierShape">
         <g id="id24">
          <rect class="BoundingBox" stroke="none" fill="none" x="4687" y="2699" width="4074" height="587"/>
          <path fill="rgb(255,255,255)" stroke="none" d="M 4755,2993 C 4736,2962 4714,2934 4688,2909 L 4764,2888 4898,2854 5035,2825 5177,2797 5321,2772 5469,2752 5619,2734 5769,2721 5923,2709 6077,2702 6231,2699 6385,2699 6540,2702 6693,2709 6847,2721 6999,2734 7147,2752 7295,2772 7439,2796 7581,2825 7720,2854 7841,2885 7921,2699 8759,3285 7677,3255 7740,3112 7711,3102 7601,3072 7489,3044 7374,3019 7255,2996 7134,2975 7012,2958 6886,2943 6759,2931 6632,2923 6502,2917 6374,2914 6244,2914 6114,2917 5985,2923 5857,2931 5731,2943 5606,2958 5483,2975 5361,2996 5242,3018 5127,3044 5015,3072 4905,3102 4804,3134 C 4797,3085 4781,3036 4755,2993 Z"/>
         </g>
        </g>
       </g>
       <g class="Group">
        <g class="com.sun.star.drawing.CustomShape">
         <g id="id25">
          <rect class="BoundingBox" stroke="none" fill="none" x="1073" y="7446" width="606" height="522"/>
          <path fill="rgb(255,255,255)" stroke="none" d="M 1677,7799 C 1677,7841 1663,7879 1637,7908 1610,7937 1572,7956 1527,7963 1481,7971 1429,7966 1376,7950 1323,7934 1271,7907 1225,7871 1179,7836 1141,7794 1114,7748 1088,7703 1074,7657 1074,7615 1074,7572 1088,7534 1114,7505 1140,7476 1179,7457 1224,7450 1270,7443 1322,7447 1375,7464 1428,7480 1480,7507 1526,7542 1572,7577 1610,7620 1637,7665 1663,7710 1677,7756 1677,7799 L 1677,7799 Z"/>
         </g>
        </g>
        <g class="com.sun.star.drawing.ClosedBezierShape">
         <g id="id26">
          <rect class="BoundingBox" stroke="none" fill="none" x="1764" y="7799" width="2033" height="509"/>
          <path fill="rgb(255,255,255)" stroke="none" d="M 1780,7852 C 1780,7835 1777,7818 1773,7799 L 1883,7829 2005,7860 2123,7887 2242,7913 2356,7935 2471,7957 2581,7975 2689,7991 2792,8005 2821,8009 2760,7905 3796,8205 2994,8306 2916,8172 2802,8156 2669,8132 2533,8107 2395,8079 2254,8049 2112,8015 1967,7979 1820,7941 1764,7925 C 1774,7902 1780,7878 1780,7852 Z"/>
         </g>
        </g>
       </g>
       <g class="Group">
        <g class="com.sun.star.drawing.CustomShape">
         <g id="id27">
          <rect class="BoundingBox" stroke="none" fill="none" x="4307" y="7663" width="488" height="488"/>
          <path fill="rgb(255,255,255)" stroke="none" d="M 4793,7906 C 4793,7949 4782,7991 4760,8028 4739,8064 4708,8095 4672,8116 4635,8138 4593,8149 4550,8149 4507,8149 4465,8138 4429,8116 4392,8095 4361,8064 4340,8028 4318,7991 4307,7949 4307,7906 4307,7863 4318,7821 4340,7785 4361,7748 4392,7717 4429,7696 4465,7674 4507,7663 4550,7663 4593,7663 4635,7674 4672,7696 4708,7717 4739,7748 4760,7785 4782,7821 4793,7863 4793,7906 L 4793,7906 Z"/>
         </g>
        </g>
        <g class="com.sun.star.drawing.ClosedBezierShape">
         <g id="id28">
          <rect class="BoundingBox" stroke="none" fill="none" x="4862" y="7664" width="1636" height="348"/>
          <path fill="rgb(255,255,255)" stroke="none" d="M 4874,7927 C 4874,7911 4873,7893 4870,7877 L 4958,7873 5055,7866 5152,7857 5247,7847 5340,7835 5431,7822 5520,7807 5606,7790 5691,7772 5712,7766 5664,7680 6496,7664 5853,8010 5790,7901 5696,7918 5591,7936 5482,7953 5371,7966 5257,7980 5143,7990 5026,7997 4908,8004 4863,8006 C 4870,7981 4874,7955 4874,7927 Z"/>
         </g>
        </g>
       </g>
       <g class="Group">
        <g class="com.sun.star.drawing.CustomShape">
         <g id="id29">
          <rect class="BoundingBox" stroke="none" fill="none" x="2189" y="6840" width="473" height="504"/>
          <path fill="rgb(255,255,255)" stroke="none" d="M 2660,7152 C 2660,7195 2649,7234 2629,7266 2608,7297 2578,7320 2543,7332 2507,7345 2466,7345 2425,7335 2384,7324 2343,7302 2307,7272 2272,7241 2242,7203 2221,7161 2201,7118 2190,7074 2190,7031 2190,6988 2201,6949 2221,6917 2242,6886 2272,6863 2307,6851 2343,6838 2384,6838 2425,6848 2466,6859 2507,6881 2543,6911 2578,6942 2608,6980 2629,7022 2649,7065 2660,7109 2660,7152 L 2660,7152 Z"/>
         </g>
        </g>
        <g class="com.sun.star.drawing.ClosedBezierShape">
         <g id="id30">
          <rect class="BoundingBox" stroke="none" fill="none" x="2726" y="7142" width="1586" height="379"/>
          <path fill="rgb(255,255,255)" stroke="none" d="M 2738,7193 C 2738,7177 2737,7158 2734,7142 L 2819,7160 2913,7176 3007,7191 3099,7204 3189,7217 3277,7224 3363,7233 3446,7236 3528,7239 3550,7240 3503,7142 4310,7333 3685,7519 3625,7393 3534,7388 3432,7380 3326,7370 3219,7356 3108,7339 2998,7322 2885,7300 2771,7278 2727,7269 C 2734,7245 2738,7219 2738,7193 Z"/>
         </g>
        </g>
       </g>
       <g class="Group">
        <g class="com.sun.star.drawing.CustomShape">
         <g id="id31">
          <rect class="BoundingBox" stroke="none" fill="none" x="3796" y="6422" width="486" height="487"/>
          <path fill="rgb(255,255,255)" stroke="none" d="M 4281,6665 C 4281,6708 4270,6750 4249,6787 4227,6823 4197,6854 4160,6875 4123,6897 4081,6908 4039,6908 3996,6908 3954,6897 3917,6875 3880,6854 3850,6823 3828,6787 3807,6750 3796,6708 3796,6665 3796,6622 3807,6580 3828,6544 3850,6507 3880,6476 3917,6455 3954,6433 3996,6422 4039,6422 4081,6422 4123,6433 4160,6455 4197,6476 4227,6507 4249,6544 4270,6580 4281,6622 4281,6665 L 4281,6665 Z"/>
         </g>
        </g>
        <g class="com.sun.star.drawing.ClosedBezierShape">
         <g id="id32">
          <rect class="BoundingBox" stroke="none" fill="none" x="4350" y="6423" width="1635" height="348"/>
          <path fill="rgb(255,255,255)" stroke="none" d="M 4362,6686 C 4362,6670 4361,6653 4358,6636 L 4445,6632 4543,6625 4639,6616 4734,6606 4828,6594 4918,6581 5007,6566 5093,6549 5178,6531 5200,6526 5152,6439 5984,6423 5340,6769 5277,6660 5184,6677 5079,6695 4969,6712 4858,6726 4745,6739 4631,6749 4514,6756 4396,6764 4350,6765 C 4358,6740 4362,6714 4362,6686 Z"/>
         </g>
        </g>
       </g>
       <g class="Group">
        <g class="com.sun.star.drawing.CustomShape">
         <g id="id33">
          <rect class="BoundingBox" stroke="none" fill="none" x="1160" y="2268" width="521" height="628"/>
          <path fill="rgb(255,255,255)" stroke="none" d="M 1680,2458 C 1680,2407 1668,2363 1645,2330 1622,2297 1590,2277 1550,2270 1511,2264 1466,2272 1420,2294 1375,2315 1330,2350 1291,2394 1251,2438 1218,2490 1196,2545 1173,2599 1161,2654 1161,2705 1161,2755 1173,2799 1196,2832 1218,2865 1251,2886 1291,2892 1330,2898 1375,2890 1420,2869 1466,2847 1511,2812 1550,2768 1590,2724 1622,2672 1645,2618 1668,2563 1680,2508 1680,2458 L 1680,2458 Z"/>
         </g>
        </g>
        <g class="com.sun.star.drawing.ClosedBezierShape">
         <g id="id34">
          <rect class="BoundingBox" stroke="none" fill="none" x="1754" y="1798" width="1751" height="657"/>
          <path fill="rgb(255,255,255)" stroke="none" d="M 1767,2393 C 1767,2413 1765,2433 1761,2454 L 1856,2415 1961,2374 2063,2335 2165,2298 2264,2266 2363,2235 2457,2209 2551,2186 2639,2165 2664,2159 2613,2284 3503,1882 2813,1798 2746,1961 2647,1987 2533,2019 2417,2055 2298,2095 2176,2138 2053,2184 1929,2233 1802,2286 1755,2305 C 1763,2332 1767,2361 1767,2393 Z"/>
         </g>
        </g>
       </g>
       <g class="Group">
        <g class="com.sun.star.drawing.CustomShape">
         <g id="id35">
          <rect class="BoundingBox" stroke="none" fill="none" x="6352" y="6495" width="486" height="488"/>
          <path fill="rgb(255,255,255)" stroke="none" d="M 6837,6738 C 6837,6781 6826,6823 6805,6860 6783,6896 6753,6927 6716,6948 6679,6970 6637,6981 6595,6981 6552,6981 6510,6970 6473,6948 6436,6927 6406,6896 6384,6860 6363,6823 6352,6781 6352,6738 6352,6695 6363,6653 6384,6617 6406,6580 6436,6549 6473,6528 6510,6506 6552,6495 6595,6495 6637,6495 6679,6506 6716,6528 6753,6549 6783,6580 6805,6617 6826,6653 6837,6695 6837,6738 L 6837,6738 Z"/>
         </g>
        </g>
        <g class="com.sun.star.drawing.ClosedBezierShape">
         <g id="id36">
          <rect class="BoundingBox" stroke="none" fill="none" x="6906" y="6496" width="1636" height="348"/>
          <path fill="rgb(255,255,255)" stroke="none" d="M 6918,6759 C 6918,6743 6917,6726 6914,6709 L 7001,6705 7099,6698 7196,6689 7291,6679 7384,6667 7474,6654 7564,6639 7650,6622 7734,6604 7756,6599 7708,6512 8540,6496 7896,6842 7834,6733 7740,6750 7635,6768 7526,6785 7415,6799 7301,6812 7187,6822 7070,6829 6952,6836 6907,6838 C 6914,6813 6918,6787 6918,6759 Z"/>
         </g>
        </g>
       </g>
      </g>
     </g>
    </g>
   </g>
  </g>
 </g>
</svg>